<svg t="1736010252405" class="icon" viewBox="0 0 1024 1024" version="1.1" xmlns="http://www.w3.org/2000/svg" p-id="11098" width="200" height="200"><path d="M213.333333 138.666667V213.333333h-21.333333a52.565333 52.565333 0 0 0-53.333333 51.712v568.576c0 28.586667 23.893333 51.712 53.333333 51.712h640a52.565333 52.565333 0 0 0 53.333333-51.712V265.045333A52.565333 52.565333 0 0 0 832 213.333333H810.666667v-74.666666h37.376c61.781333 0 111.957333 49.066667 111.957333 109.482666v602.368c0 60.416-50.176 109.482667-112.042667 109.482667H176.128c-61.866667 0-112.042667-49.066667-112.042667-109.482667V248.149333c0-60.416 50.176-109.482667 112.042667-109.482666H213.333333zM363.690667 362.666667v307.797333h73.642666v65.536h-221.866666v-65.536h74.069333V446.293333l-76.202667 19.114667v-67.584l150.357334-35.157333z m373.333333 0v307.797333H810.666667v65.536H588.8v-65.536h74.069333V446.293333l-76.202666 19.114667v-67.584l150.357333-35.157333zM586.666667 512v74.666667h-149.333334V512h149.333334zM736 64v224H661.333333V64h74.666667zM362.666667 64v224h-74.666667V64h74.666667z m224 74.666667V213.333333h-149.333334v-74.666666h149.333334z" fill="#1677ff" p-id="11099"></path></svg>