<svg t="1735478107431" class="icon" viewBox="0 0 1024 1024" version="1.1" xmlns="http://www.w3.org/2000/svg" p-id="3642" width="200" height="200"><path d="M365.714286 438.857143a73.142857 73.142857 0 1 1 0-146.285714 73.142857 73.142857 0 0 1 0 146.285714z m0 292.571428a73.142857 73.142857 0 1 1 0-146.285714 73.142857 73.142857 0 0 1 0 146.285714z m0 292.571429a73.142857 73.142857 0 1 1 0-146.285714 73.142857 73.142857 0 0 1 0 146.285714zM658.285714 146.285714a73.142857 73.142857 0 1 1 0-146.285714 73.142857 73.142857 0 0 1 0 146.285714z m0 292.571429a73.142857 73.142857 0 1 1 0-146.285714 73.142857 73.142857 0 0 1 0 146.285714z m0 292.571428a73.142857 73.142857 0 1 1 0-146.285714 73.142857 73.142857 0 0 1 0 146.285714z m0 292.571429a73.142857 73.142857 0 1 1 0-146.285714 73.142857 73.142857 0 0 1 0 146.285714zM365.714286 146.285714a73.142857 73.142857 0 1 1 0-146.285714 73.142857 73.142857 0 0 1 0 146.285714z" p-id="3643" fill="#666"></path></svg>