<?xml version="1.0" standalone="no"?><!DOCTYPE svg PUBLIC "-//W3C//DTD SVG 1.1//EN" "http://www.w3.org/Graphics/SVG/1.1/DTD/svg11.dtd"><svg t="1757553261227" class="icon" viewBox="0 0 1024 1024" version="1.1" xmlns="http://www.w3.org/2000/svg" p-id="7500" xmlns:xlink="http://www.w3.org/1999/xlink" width="256" height="256"><path d="M755.97056 217.6a51.2 51.2 0 0 1 51.2 51.2v640.768a51.2 51.2 0 0 1-51.2 51.2H114.43456a51.2 51.2 0 0 1-51.2-51.2V268.032a51.2 51.2 0 0 1 51.2-51.2h641.536m0-64H114.43456A114.432 114.432 0 0 0 0.00256 268.032v641.536A114.432 114.432 0 0 0 114.43456 1024h641.536A114.432 114.432 0 0 0 870.40256 909.568V268.032A114.432 114.432 0 0 0 755.97056 153.6zM870.40256 465.152a303.872 303.872 0 0 0-409.6 81.664 234.24 234.24 0 0 1-153.6 95.744 222.976 222.976 0 0 1-264.704-172.544 32.256 32.256 0 0 0-37.12-25.6c-2.048 0-3.584 1.536-5.376 2.048v100.096a291.584 291.584 0 0 0 316.928 159.488 297.216 297.216 0 0 0 195.072-122.88 237.568 237.568 0 0 1 153.6-97.28 233.216 233.216 0 0 1 204.8 60.416zM230.40256 354.048a64 64 0 1 0 64 64 64 64 0 0 0-64-64zM909.57056 0H268.03456a114.176 114.176 0 0 0-113.152 102.4h64.768a51.2 51.2 0 0 1 48.384-38.4h641.536a51.2 51.2 0 0 1 51.2 51.2v640.768A51.2 51.2 0 0 1 921.60256 804.352V870.4a114.176 114.176 0 0 0 102.4-113.152V114.432A114.432 114.432 0 0 0 909.57056 0z" p-id="7501" fill="#1677FF"></path></svg>