<svg t="1744314479888" class="icon" viewBox="0 0 1024 1024" version="1.1" xmlns="http://www.w3.org/2000/svg" p-id="1880" width="200" height="200"><path d="M73.142857 877.714286a73.142857 73.142857 0 0 1-73.142857-73.142857V219.428571a73.142857 73.142857 0 0 1 73.142857-73.142857h877.714286a73.142857 73.142857 0 0 1 73.142857 73.142857v585.142858a73.142857 73.142857 0 0 1-73.142857 73.142857z m0-621.714286v512a36.571429 36.571429 0 0 0 36.571429 36.571429h804.571428a36.571429 36.571429 0 0 0 36.571429-36.571429v-512a36.571429 36.571429 0 0 0-36.571429-36.571429h-804.571428a36.571429 36.571429 0 0 0-36.571429 36.571429zM585.142857 731.428571V658.285714h73.142857v73.142857z m-146.285714 0V658.285714h73.142857v73.142857z m-146.285714 0V658.285714h73.142857v73.142857z m-146.285715 0V292.571429h73.142857v438.857142z" fill="#1677ff" p-id="1881"></path></svg>