<?xml version="1.0" standalone="no"?><!DOCTYPE svg PUBLIC "-//W3C//DTD SVG 1.1//EN" "http://www.w3.org/Graphics/SVG/1.1/DTD/svg11.dtd"><svg t="1756877387366" class="icon" viewBox="0 0 1024 1024" version="1.1" xmlns="http://www.w3.org/2000/svg" p-id="15687" xmlns:xlink="http://www.w3.org/1999/xlink" width="256" height="256"><path d="M896 275.392c0-75.712-64.512-137.28-143.808-137.28-79.232 0-143.744 61.568-143.744 137.28 0.064 55.68 35.264 105.728 89.216 126.912a174.72 174.72 0 0 1-2.368 5.376c-19.84 43.136-56.96 73.92-110.08 91.52-10.88 3.456-22.208 6.592-33.152 9.6-39.936 11.072-81.216 22.464-116.032 52.416v-227.2c61.824-15.36 107.52-69.056 107.52-132.8C543.616 125.568 479.168 64 399.872 64S256 125.568 256 201.216c0 63.744 45.76 117.504 107.52 132.864v355.84C301.76 705.28 256 759.04 256 822.784 256 898.432 320.512 960 399.808 960c79.232 0 143.744-61.568 143.744-137.216 0-61.44-42.368-113.472-100.672-131.008 12.224-52.672 32.384-70.784 39.936-77.632 22.656-20.352 53.632-28.928 89.472-38.848 11.648-3.2 23.808-6.592 36.096-10.496l0.384-0.128c92.928-30.72 135.296-89.088 154.496-132.608 3.2-7.04 5.76-14.016 7.936-20.672C841.6 402.56 896 344.96 896 275.392zM328.512 201.216c0-37.568 31.936-67.968 71.296-67.968 39.36 0 71.232 30.4 71.232 67.968 0 37.568-31.872 68.032-71.232 68.032s-71.232-30.464-71.296-68.032z m142.528 621.568c0 37.568-31.936 67.968-71.296 67.968-39.36 0-71.232-30.4-71.232-67.968 0-37.568 31.872-68.032 71.232-68.032s71.296 30.464 71.296 68.032z m281.216-479.36c-39.36 0-71.296-30.464-71.296-68.032s31.936-68.032 71.296-68.032c39.36 0 71.232 30.464 71.232 68.032 0 37.504-31.872 67.968-71.232 68.032z" fill="#1677FF" fill-opacity=".8" p-id="15688"></path></svg>