<?xml version="1.0" standalone="no"?><!DOCTYPE svg PUBLIC "-//W3C//DTD SVG 1.1//EN" "http://www.w3.org/Graphics/SVG/1.1/DTD/svg11.dtd"><svg t="1756877246661" class="icon" viewBox="0 0 1030 1024" version="1.1" xmlns="http://www.w3.org/2000/svg" p-id="9973" xmlns:xlink="http://www.w3.org/1999/xlink" width="257.5" height="256"><path d="M659.2 1024c-25.6 0-51.2-19.2-64-44.8L428.8 601.6l-384-172.8C12.8 416 0 390.4 0 358.4c0-32 19.2-51.2 44.8-64L928 0c25.6-6.4 51.2 0 70.4 19.2 25.6 19.2 32 44.8 19.2 70.4l-294.4 883.2c-6.4 32-32 51.2-64 51.2z m294.4-960L70.4 358.4s-6.4 0-6.4 6.4 0 6.4 6.4 6.4l384 166.4c12.8 6.4 25.6 19.2 32 38.4l166.4 377.6s0 6.4 6.4 6.4 6.4-6.4 6.4-6.4L960 70.4V64h-6.4z" fill="#1677FF" p-id="9974"></path><path d="M460.8 595.2c-6.4 0-19.2 0-25.6-6.4-12.8-12.8-12.8-32 0-44.8L659.2 320c12.8-12.8 32-12.8 44.8 0s12.8 32 0 44.8L486.4 582.4c-6.4 6.4-12.8 12.8-25.6 12.8z" fill="#1677FF" p-id="9975"></path></svg>