<?xml version="1.0" standalone="no"?><!DOCTYPE svg PUBLIC "-//W3C//DTD SVG 1.1//EN" "http://www.w3.org/Graphics/SVG/1.1/DTD/svg11.dtd"><svg t="1759382895345" class="icon" viewBox="0 0 1024 1024" version="1.1" xmlns="http://www.w3.org/2000/svg" p-id="7678" width="128" height="128" xmlns:xlink="http://www.w3.org/1999/xlink"><path d="M932.990217 854.559936c-9.330506 0-18.23634-4.955872-23.060205-13.464663-106.641809-188.493002-245.272169-210.044854-441.587324-211.501018l0 177.253006c0 10.339486-5.991458 19.695574-15.347546 24.043602-9.383718 4.344958-20.408819 2.836605-28.284183-3.818979L73.884754 530.189268c-5.829775-4.955872-9.247618-12.139481-9.382695-19.800975-0.130983-7.66047 3.049452-14.94948 8.696056-20.093641L424.02125 172.20913c7.795547-7.052626 18.952654-8.827039 28.54922-4.587482 9.56996 4.242627 15.771195 13.760398 15.771195 24.227798l0 150.827147c404.952962 19.218714 489.937518 476.072743 490.75821 480.791208 2.225691 12.69923-5.012154 25.184589-17.151635 29.528524C938.981674 854.057493 935.957805 854.559936 932.990217 854.559936L932.990217 854.559936zM131.22367 509.274936 415.328263 749.697657 415.328263 602.981131c0-14.660908 11.873422-26.508747 26.508747-26.508747 169.434947 0 306.742173 9.968026 417.941787 113.000634-11.348466-25.210172-25.1324-51.928696-41.777499-78.516238-89.673345-143.218866-216.220506-215.849046-376.137683-215.849046-14.634302 0-26.508747-11.874445-26.508747-26.504654L415.354869 251.704672 131.22367 509.274936 131.22367 509.274936zM131.22367 509.274936" fill="#1677FF" p-id="7679"></path></svg>