<?xml version="1.0" standalone="no"?><!DOCTYPE svg PUBLIC "-//W3C//DTD SVG 1.1//EN" "http://www.w3.org/Graphics/SVG/1.1/DTD/svg11.dtd"><svg t="1756877343032" class="icon" viewBox="0 0 1024 1024" version="1.1" xmlns="http://www.w3.org/2000/svg" p-id="14610" xmlns:xlink="http://www.w3.org/1999/xlink" width="256" height="256"><path d="M785.486768 992.017588 63.853283 992.017588 63.853283 150.111856 184.608531 150.111856l0 60.135612-60.619636 0 0 721.633484 601.361237 0L725.350133 210.248492 662.953014 210.248492 662.953014 150.111856l122.533754 0L785.486768 992.017588z" fill="#1677FF" p-id="14611"></path><path d="M604.018763 270.751471l-358.699522 0L245.319242 89.976244l94.197382 0c12.420891-35.002189 45.850258-60.136635 85.065398-60.136635 39.199791 0 72.644507 25.133424 85.065398 60.136635l94.371344 0L604.018763 270.751471zM305.455877 210.614835l238.427274 0L543.883151 150.111856l-89.233324 0 0-30.067806c0-16.576537-13.506619-30.067806-30.067806-30.067806-16.576537 0-30.067806 13.491269-30.067806 30.067806l0 30.067806-89.058338 0L305.455877 210.614835z" fill="#1677FF" p-id="14612"></path><path d="M244.026806 510.928598l360.816742 0 0 60.135612L244.026806 571.06421 244.026806 510.928598z" fill="#1677FF" p-id="14613"></path><path d="M244.026806 631.200846l360.816742 0 0 60.135612L244.026806 691.336458 244.026806 631.200846z" fill="#1677FF" p-id="14614"></path><path d="M244.026806 751.473093l360.816742 0 0 60.136635L244.026806 811.609729 244.026806 751.473093z" fill="#1677FF" p-id="14615"></path><path d="M244.026806 390.656351l150.340053 0 0 60.136635L244.026806 450.792986 244.026806 390.656351z" fill="#1677FF" p-id="14616"></path></svg>