<?xml version="1.0" standalone="no"?><!DOCTYPE svg PUBLIC "-//W3C//DTD SVG 1.1//EN" "http://www.w3.org/Graphics/SVG/1.1/DTD/svg11.dtd"><svg t="1757913302872" class="icon" viewBox="0 0 1024 1024" version="1.1" xmlns="http://www.w3.org/2000/svg" p-id="8385" width="256" height="256" xmlns:xlink="http://www.w3.org/1999/xlink"><path d="M211.642182 713.704727c-26.414545 31.418182-39.842909 62.836364-2.094546 74.146909 78.219636 23.435636 96.442182-79.616 103.749819-125.137454 0.884364-5.608727 1.582545-11.264 2.350545-16.896 19.479273-16.128 38.213818-32.372364 55.086545-50.804364 15.522909 15.173818 51.828364-3.002182 78.289455-28.765091 3.723636 2.862545 9.216 4.584727 17.221818 4.538182 25.716364-0.162909 48.826182-39.424 62.929455-66.304 19.362909 18.664727 60.113455 11.473455 74.728727-15.941818 5.981091-11.217455-12.125091-21.085091-18.129455-9.821091-2.839273 5.329455-43.473455 31.697455-45.91709 3.072-0.744727-8.843636-14.545455-14.312727-19.549091-4.910545-6.749091 12.637091-14.149818 24.855273-21.992728 36.933818-3.770182 5.655273-7.749818 11.217455-11.915636 16.663272-4.096 5.492364-14.149818 13.381818-20.689455 16.64 7.330909-10.193455 12.381091-20.573091 13.614546-29.858909 1.093818-8.285091-12.357818-13.149091-17.92-6.888727-7.261091 8.145455-16.779636 24.459636-18.292364 38.097455-10.798545 12.939636-25.506909 23.784727-38.912 31.418181-10.565818 6.027636-15.662545 3.048727-17.896727-3.188363a2.350545 2.350545 0 0 0 0.302545-0.372364c10.984727-14.289455 44.357818-56.413091 16.80291-71.377454-29.998545-16.290909-37.911273 41.984-39.563637 55.947636a83.828364 83.828364 0 0 0-0.535273 12.404364c-13.102545 15.988364-28.136727 30.045091-44.101818 43.659636 3.095273-29.323636 4.933818-58.763636 5.678546-88.180364 0.581818-23.505455 5.259636-60.811636-9.355637-82.036363-7.261091-10.542545-25.437091-0.791273-18.129454 9.821091 19.781818 28.695273 6.120727 93.858909 3.956363 125.556363-1.163636 16.872727-2.280727 34.792727-3.979636 52.922182l-1.698909 1.373091c-2.885818 2.350545-10.589091 8.354909-20.666182 16.663273 1.698909-8.145455 3.095273-16.407273 4.258909-24.715637l-1.792 1.536c-21.201455 18.338909-46.033455 37.259636-62.021818 60.299637-7.028364 10.146909-7.307636 18.129455-3.816727 23.505454zM512 1000.727273C242.082909 1000.727273 23.272727 781.917091 23.272727 512S242.082909 23.272727 512 23.272727s488.727273 218.810182 488.727273 488.727273-218.810182 488.727273-488.727273 488.727273z m147.386182-349.090909c-27.764364 71.586909-71.68 139.240727-77.568 186.181818 0 0 59.205818-100.910545 93.090909-184.296727 0 0-10.170182 0.837818-15.522909-1.885091z m-4.957091-317.672728c16.221091 17.314909 35.188364 15.872 57.204364 26.368-19.525818 4.561455-44.194909-5.073455-59.601455-16.430545-1.652364 7.098182-3.304727 14.126545-4.864 20.945454-11.310545 46.894545-4.677818 94.510545 1.861818 141.568 5.888 16.709818 20.759273 24.925091 47.918546 24.203637-17.803636 5.678545-35.933091 3.607273-50.432-7.214546a123.787636 123.787636 0 0 1-1.233455 5.259637c-10.286545 38.353455-34.816 112.500364 5.143273 122.181818a755.362909 755.362909 0 0 0 53.829818-90.414546c65.442909-130.304 24.250182-252.974545 8.145455-324.95709 0 0 43.543273 131.584 37.096727 200.820363-5.399273 57.530182-13.218909 106.379636-44.474182 158.208a1198.429091 1198.429091 0 0 1-37.981091 57.111273c9.495273-1.140364 20.898909-4.352 34.839273-10.333091 54.737455-23.319273 126.999273-138.775273 126.999273-138.775273s-52.689455 12.078545-75.845819 15.988364c33.629091-7.563636 62.882909-20.968727 83.293091-45.358546 0.907636-5.701818 1.442909-11.333818 1.489455-16.779636 0.349091-21.410909-8.401455-46.964364-16.407273-69.399273-12.404364 12.613818-30.277818 17.524364-51.758545 19.502546 18.571636-7.330909 35.095273-19.921455 45.707636-34.839273l0.698182 0.186182-1.652364-4.887273c-17.035636-50.757818-21.620364-80.64-55.412363-121.576727-23.04 14.452364-21.922909 13.451636-28.276364 20.712727 16.64-18.990545 12.567273-21.643636 17.873454-32.046545C736.581818 220.299636 721.896727 204.939636 726.109091 186.181818c-43.101091 38.144-59.298909 95.394909-71.68 147.781818z" fill="#1677FF" p-id="8386"></path></svg>