<svg t="1744314666250" class="icon" viewBox="0 0 1024 1024" version="1.1" xmlns="http://www.w3.org/2000/svg" p-id="5118" width="200" height="200"><path d="M870.4 901.6H153.6c-24.3 0-44-19.7-44-44s19.7-44 44-44h716.8c24.3 0 44 19.7 44 44s-19.7 44-44 44zM870.4 440.8H153.6c-24.3 0-44-19.7-44-44s19.7-44 44-44h716.8c24.3 0 44 19.7 44 44s-19.7 44-44 44zM512 671.2H153.6c-24.3 0-44-19.7-44-44s19.7-44 44-44H512c24.3 0 44 19.7 44 44s-19.7 44-44 44zM512 210.4H153.6c-24.3 0-44-19.7-44-44s19.7-44 44-44H512c24.3 0 44 19.7 44 44s-19.7 44-44 44z" fill="#1677ff" p-id="5119"></path></svg>