<?xml version="1.0" standalone="no"?><!DOCTYPE svg PUBLIC "-//W3C//DTD SVG 1.1//EN" "http://www.w3.org/Graphics/SVG/1.1/DTD/svg11.dtd"><svg t="1756877451125" class="icon" viewBox="0 0 1280 1024" version="1.1" xmlns="http://www.w3.org/2000/svg" p-id="16933" xmlns:xlink="http://www.w3.org/1999/xlink" width="320" height="256"><path d="M858.149 309.753c14.58 0 28.921 1.1 43.343 2.671C862.665 133.155 669.403 0 448.725 0 202.057 0 0 166.62 0 378.334 0 500.491 67.194 600.81 179.554 678.739l-44.85 133.784 156.892-77.93c56.1 10.92 101.108 22.232 157.13 22.232 14.104 0 28.05-0.628 41.837-1.65-8.716-29.773-13.867-60.882-13.867-93.326 0.08-194.352 168.381-352.096 381.453-352.096zM616.948 189.167c33.914 0 56.18 22.075 56.18 55.54 0 33.309-22.266 55.62-56.18 55.62-33.518 0-67.273-22.311-67.273-55.62 0-33.544 33.676-55.54 67.273-55.54z m-314.02 111.16c-33.677 0-67.59-22.311-67.59-55.62 0-33.465 33.913-55.54 67.59-55.54 33.675 0 56.02 21.996 56.02 55.54 0 33.309-22.345 55.62-56.02 55.62z m964.882 356.18c0-177.855-179.554-322.794-381.215-322.794-213.547 0-381.61 145.018-381.61 322.794 0 178.326 168.143 322.794 381.61 322.794 44.69 0 89.777-11.077 134.626-22.232L1144.277 1024l-33.755-111.238c90.094-67.088 157.288-155.937 157.288-256.255zM762.825 600.81c-22.266 0-44.849-21.997-44.849-44.464 0-22.153 22.583-44.464 44.85-44.464 34.072 0 56.179 22.31 56.179 44.464 0 22.467-22.107 44.464-56.18 44.464z m246.827 0c-22.108 0-44.611-21.997-44.611-44.464 0-22.153 22.424-44.464 44.61-44.464 33.756 0 56.18 22.31 56.18 44.464 0 22.467-22.424 44.464-56.18 44.464z" fill="#1677FF" p-id="16934"></path></svg>