<svg xmlns="http://www.w3.org/2000/svg" xmlns:xlink="http://www.w3.org/1999/xlink" fill="none" version="1.1" width="267.00006103515625" height="227" viewBox="0 0 267.00006103515625 227"><path d="M153.64673,20.394531C153.64673,31.658112,144.52759,40.789062,133.27856,40.789062C122.02954,40.789062,112.9104,31.658112,112.9104,20.394531C112.9104,9.1309509,122.02954,0,133.27856,0C144.52759,0,153.64673,9.1309509,153.64673,20.394531ZM75.71637,59.410156C75.71637,72.632629,65.011292,83.351562,51.805969,83.351562C38.600586,83.351562,27.895508,72.632629,27.895508,59.410156C27.895508,46.187683,38.600586,35.46875,51.805969,35.46875C65.011292,35.46875,75.71637,46.187683,75.71637,59.410156ZM191.28363,59.410156C191.28363,72.632629,201.98871,83.351562,215.19415,83.351562C228.39948,83.351562,239.10455,72.632629,239.10455,59.410156C239.10455,46.187683,228.39948,35.46875,215.19415,35.46875C201.98871,35.46875,191.28363,46.187683,191.28363,59.410156ZM64.204041,101.5293C63.475834,105.90407,63.812069,106.48913,65.601868,109.60345C66.260803,110.74997,67.11676,112.23932,68.189087,114.38672L75.716492,101.5293L97.413025,101.5293Q112.02496,78.474609,133.27863,78.474609Q154.53241,78.474609,169.14435,101.5293L190.84088,101.5293L198.36823,114.38672C199.44061,112.23932,200.29645,110.74997,200.95538,109.60345C202.7453,106.48914,203.08148,105.90408,202.35333,101.5293C201.35699,95.543945,200.3609,94.435547,194.38312,90.445312L173.12946,90.445312Q173.12946,86.898438,171.35822,68.277344Q169.5871,49.65625,147.005,45.666016L133.27869,56.75L119.55231,45.666016Q96.970215,49.65625,95.199036,68.277344Q93.427917,86.898438,93.427917,90.445312L72.174194,90.445312C66.196411,94.435547,65.200256,95.543945,64.204041,101.5293ZM26.12439,156.0625L0,156.0625L3.9850464,123.69727Q7.0845947,86.455078,29.223877,86.455078Q51.363159,86.455078,59.333313,112.61328Q63.761169,129.01758,70.845764,132.56445L92.542297,132.56445Q100.06964,136.55469,100.06964,143.20508Q100.06964,149.85547,92.542297,152.07227L54.905457,152.07227Q47.820862,152.07227,42.507446,136.55469Q37.620117,123.83112,32.732727,123.83112Q30.978333,123.83112,29.223877,125.4707L35.422852,140.10156L26.12439,156.0625ZM267.00006,156.0625L240.87567,156.0625L231.57721,140.10156L237.77618,125.4707Q236.02179,123.83112,234.26727,123.83112Q229.37994,123.83112,224.49261,136.55469Q219.17914,152.07227,212.09454,152.07227L174.45782,152.07227Q166.93042,149.85547,166.93042,143.20508Q166.93042,136.55469,174.45782,132.56445L196.15436,132.56445Q203.23883,129.01758,207.66669,112.61328Q215.6369,86.455078,237.77618,86.455078Q259.91547,86.455078,263.01495,123.69727L267.00006,156.0625ZM162.50244,116.16016C162.50244,132.32095,149.41846,145.42188,133.27856,145.42188C117.13867,145.42188,104.05469,132.32095,104.05469,116.16016C104.05469,99.999359,117.13867,86.898438,133.27856,86.898438C149.41846,86.898438,162.50244,99.999359,162.50244,116.16016ZM24.593201,193.30469C19.967346,193.30469,17.081543,188.29095,19.405029,184.29095L39.407959,149.85547L45.606934,159.16602L32.766174,183.55078L68.189026,183.55078L64.203918,193.30469L24.593201,193.30469ZM240.63568,193.30469C245.26154,193.30469,248.1474,188.29095,245.82391,184.29095L225.82098,149.85547L219.62189,159.16602L232.46271,183.55078L197.03986,183.55078L201.02496,193.30469L240.63568,193.30469ZM81.915405,200.39844C81.915405,199.47162,82.057434,198.57803,82.320862,197.73828L184.23639,197.73828C184.49982,198.57803,184.64178,199.47162,184.64178,200.39844L184.64178,227L194.38312,227L194.38312,196.85156C194.38312,190.74673,190.53229,185.54248,185.13007,183.54129C182.56244,166.48099,167.85883,153.40234,150.10449,153.40234L116.45276,153.40234C98.698425,153.40234,83.994812,166.48099,81.427124,183.54129C76.024963,185.54248,72.174133,190.74673,72.174133,196.85156L72.174133,227L81.915405,227L81.915405,200.39844Z" fill-rule="evenodd" fill="#FFFFFF" fill-opacity="1"/></svg>