<svg xmlns="http://www.w3.org/2000/svg" xmlns:xlink="http://www.w3.org/1999/xlink" fill="none" version="1.1" width="280" height="340" viewBox="0 0 280 340"><path d="M23.679214,19.116211C22.325409,18.529175,21.713364,16.928345,22.388824,15.616455Q26.368805,7.8864746,31.717484,4.3902588Q37.874237,0.36584473,45.844467,0L60.5905,0Q68.56073,0.36584473,74.717484,4.3902588Q80.066162,7.8864746,84.046143,15.616455C84.721619,16.928345,84.109558,18.529175,82.755753,19.116211C81.577209,19.627197,80.225006,19.230103,79.459106,18.19873Q75.523743,12.900024,71.217484,11.219482Q66.217484,9.2683105,60.5905,9.7561035L45.844467,9.7561035Q40.217484,9.2683105,35.217484,11.219482Q30.91124,12.900024,26.975861,18.19873C26.209961,19.230103,24.857758,19.627197,23.679214,19.116211ZM199.67923,19.116211C198.32541,18.529175,197.71335,16.928345,198.38882,15.616455Q202.3688,7.8864746,207.71747,4.3902588Q213.87424,0.36584473,221.84448,0L236.59052,0Q244.56073,0.36584473,250.71747,4.3902588Q256.06616,7.8864746,260.04614,15.616455C260.72162,16.928345,260.10956,18.529175,258.75574,19.116211C257.57721,19.627197,256.22501,19.230103,255.45911,18.19873Q251.52374,12.900024,247.21747,11.219482Q242.21747,9.2683105,236.59052,9.7561035L221.84448,9.7561035Q216.21747,9.2683105,211.21747,11.219482Q206.91122,12.900024,202.97586,18.19873C202.20996,19.230103,200.85776,19.627197,199.67923,19.116211ZM33.564697,60C31.224533,60,29.384171,57.999878,29.578506,55.667847L32.453369,21.169556C32.885284,15.986572,37.217941,12,42.418823,12L62.016174,12C67.217056,12,71.549713,15.986572,71.981628,21.169556L74.856476,55.667847C75.050827,57.999878,73.210464,60,70.8703,60L33.564697,60ZM205.57852,55.667847C205.38419,57.999878,207.22455,60,209.5647,60L246.8703,60C249.21045,60,251.05081,57.999878,250.85648,55.667847L247.98163,21.169556C247.54971,15.986572,243.21704,12,238.01617,12L218.41882,12C213.21796,12,208.88528,15.986572,208.45337,21.169556L205.57852,55.667847ZM22.980133,21.840698C24.626007,21.650269,26.680511,27.722534,27.569,35.40332C28.457489,43.084106,27.843506,49.464844,26.197632,49.655273C24.551743,49.845703,22.497238,43.77356,21.608749,36.092773C20.720261,28.411987,21.334259,22.031128,22.980133,21.840698ZM81.454895,21.840698C79.809021,21.650269,77.754517,27.722534,76.866028,35.40332C75.977539,43.084106,76.591522,49.464844,78.237396,49.655273C79.883286,49.845703,81.93779,43.77356,82.826279,36.092773C83.714767,28.411987,83.100769,22.031128,81.454895,21.840698ZM198.98013,21.840698C200.62601,21.650269,202.68051,27.722534,203.569,35.40332C204.45749,43.084106,203.84351,49.464844,202.19763,49.655273C200.55176,49.845703,198.49725,43.77356,197.60876,36.092773C196.72028,28.411987,197.33426,22.031128,198.98013,21.840698ZM252.86603,35.40332C253.75452,27.722534,255.80902,21.650269,257.4549,21.840698C259.10077,22.031128,259.71475,28.411987,258.82626,36.092773C257.93777,43.77356,255.88327,49.845703,254.2374,49.655273C252.59152,49.464844,251.97754,43.084106,252.86603,35.40332ZM0,262L0,78C0,73.581665,3.5817184,70,8,70L272,70C276.41827,70,280,73.581665,280,78L280,262C280,266.41833,276.41827,270,272,270L8,270C3.5817184,270,0,266.41833,0,262ZM29.578506,284.33215C29.384171,282.00012,31.224533,280,33.564697,280L70.8703,280C73.210464,280,75.050827,282.00012,74.856476,284.33215L71.981628,318.83044C71.549713,324.01343,67.217056,328,62.016174,328L42.418823,328C37.217941,328,32.885284,324.01343,32.453369,318.83044L29.578506,284.33215ZM205.57852,284.33215C205.38419,282.00012,207.22455,280,209.5647,280L246.8703,280C249.21045,280,251.05081,282.00012,250.85648,284.33215L247.98163,318.83044C247.54971,324.01343,243.21704,328,238.01617,328L218.41882,328C213.21796,328,208.88528,324.01343,208.45337,318.83044L205.57852,284.33215ZM22.980133,318.1593C24.626007,318.34973,26.680511,312.27747,27.569,304.59668C28.457489,296.91589,27.843506,290.53516,26.197632,290.34473C24.551743,290.1543,22.497238,296.22644,21.608749,303.90723C20.720261,311.58801,21.334259,317.96887,22.980133,318.1593ZM81.454895,318.1593C79.809021,318.34973,77.754517,312.27747,76.866028,304.59668C75.977539,296.91589,76.591522,290.53516,78.237396,290.34473C79.883286,290.1543,81.93779,296.22644,82.826279,303.90723C83.714767,311.58801,83.100769,317.96887,81.454895,318.1593ZM198.98013,318.1593C200.62601,318.34973,202.68051,312.27747,203.569,304.59668C204.45749,296.91589,203.84351,290.53516,202.19763,290.34473C200.55176,290.1543,198.49725,296.22644,197.60876,303.90723C196.72028,311.58801,197.33426,317.96887,198.98013,318.1593ZM252.86603,304.59668C253.75452,312.27747,255.80902,318.34973,257.4549,318.1593C259.10077,317.96887,259.71475,311.58801,258.82626,303.90723C257.93777,296.22644,255.88327,290.1543,254.2374,290.34473C252.59152,290.53516,251.97754,296.91589,252.86603,304.59668ZM23.679214,320.88379C22.325409,321.47083,21.713364,323.07166,22.388824,324.38354Q26.368805,332.11353,31.717484,335.60974Q37.874237,339.63416,45.844467,340L60.5905,340Q68.56073,339.63416,74.717484,335.60974Q80.066162,332.11353,84.046143,324.38354C84.721619,323.07166,84.109558,321.47083,82.755753,320.88379C81.577209,320.3728,80.225006,320.7699,79.459106,321.80127Q75.523743,327.09998,71.217484,328.78052Q66.217484,330.73169,60.5905,330.2439L45.844467,330.2439Q40.217484,330.73169,35.217484,328.78052Q30.91124,327.09998,26.975861,321.80127C26.209961,320.7699,24.857758,320.3728,23.679214,320.88379ZM199.67923,320.88379C198.32541,321.47083,197.71335,323.07166,198.38882,324.38354Q202.3688,332.11353,207.71747,335.60974Q213.87424,339.63416,221.84448,340L236.59052,340Q244.56073,339.63416,250.71747,335.60974Q256.06616,332.11353,260.04614,324.38354C260.72162,323.07166,260.10956,321.47083,258.75574,320.88379C257.57721,320.3728,256.22501,320.7699,255.45911,321.80127Q251.52374,327.09998,247.21747,328.78052Q242.21747,330.73169,236.59052,330.2439L221.84448,330.2439Q216.21747,330.73169,211.21747,328.78052Q206.91122,327.09998,202.97586,321.80127C202.20996,320.7699,200.85776,320.3728,199.67923,320.88379Z" fill-rule="evenodd" fill="currentColor" fill-opacity="1"/></svg>