<svg xmlns="http://www.w3.org/2000/svg" xmlns:xlink="http://www.w3.org/1999/xlink" fill="none" version="1.1" width="233.97012329101562" height="224" viewBox="0 0 233.97012329101562 224"><path d="M73.343781,91.758484L84.437462,130L74,130C71.790863,130,70,131.79083,70,134L70,220C70,222.20917,71.790863,224,74,224L160,224C162.20914,224,164,222.20917,164,220L164,134C164,131.79083,162.20914,130,160,130L101.79159,130L89.375763,87.183899C97.15863,78.280334,107.33252,71.79657,118.69,68.502075C133.45697,64.216675,149.28787,65.55249,163.12796,72.25177C150.72897,30.771912,108.83249,6.0906372,67.077637,14.439941L64.561157,5.7823486C63.180359,1.4909058,58.636993,-0.9241333,54.307434,0.33190918C49.977844,1.5879517,47.432312,6.0595093,48.5625,10.423584L51.137299,19.306213C12.773834,35.329834,-8.3660889,77.768005,3.1246338,118.66455C17.837402,94.950073,46.551331,83.947693,73.343781,91.758484ZM214.85391,205.72076C215.44095,207.07458,217.04175,207.68665,218.35367,207.01117Q226.08368,203.03119,229.5799,197.6825Q233.60428,191.52576,233.97012,183.55554L233.97012,168.80945Q233.60428,160.83923,229.5799,154.6825Q226.08368,149.3338,218.35367,145.35382C217.04175,144.67834,215.44095,145.29041,214.85391,146.64423C214.3429,147.82275,214.74008,149.17499,215.77133,149.94086Q221.07013,153.87622,222.75061,158.1825Q224.70184,163.1825,224.21402,168.80945L224.21402,183.55554Q224.70184,189.1825,222.75061,194.1825Q221.07013,198.48877,215.77133,202.42413C214.74008,203.19,214.3429,204.54224,214.85391,205.72076ZM19.116211,205.7558C18.529175,207.10962,16.928375,207.72168,15.616455,207.0462Q7.8864441,203.06622,4.3902588,197.71753Q0.36584473,191.56079,0,183.59058L0,168.84448Q0.36584473,160.87427,4.3902588,154.71753Q7.8864441,149.36884,15.616455,145.38885C16.928375,144.71338,18.529175,145.32544,19.116211,146.67926C19.627228,147.85779,19.230042,149.21002,18.198792,149.97589Q12.899994,153.91125,11.219513,158.21753Q9.26828,163.21753,9.7561035,168.84448L9.7561035,183.59058Q9.26828,189.21753,11.219513,194.21753Q12.899994,198.5238,18.198792,202.45917C19.230042,203.22504,19.627228,204.57727,19.116211,205.7558ZM198.56683,152.534C206.24762,151.64551,212.31979,149.591,212.12939,147.94513C211.939,146.29926,205.55817,145.68524,197.87738,146.57373C190.19659,147.46222,184.12445,149.51672,184.31485,151.1626C184.50525,152.80847,190.88608,153.42249,198.56683,152.534ZM21.840759,147.98016C21.65036,149.62604,27.722504,151.68054,35.403259,152.56903C43.084045,153.45752,49.464874,152.84351,49.655273,151.19763C49.845673,149.55176,43.773529,147.49725,36.092743,146.60876C28.411957,145.72028,22.031158,146.33429,21.840759,147.98016ZM178.30231,199.82147C175.97021,200.01581,173.97012,198.17548,173.97012,195.83533L173.97012,158.52966C173.97012,156.18951,175.97021,154.34918,178.30231,154.54352L212.80057,157.41833C217.98349,157.85028,221.97012,162.18292,221.97012,167.38385L221.97012,186.98114C221.97012,192.18207,217.98349,196.51471,212.80057,196.94659L178.30231,199.82147ZM55.667816,199.85651C57.999908,200.05084,60,198.21051,60,195.87036L60,158.5647C60,156.22455,57.999908,154.38422,55.667816,154.57855L21.169556,157.45337C15.986633,157.88531,12,162.21796,12,167.41888L12,187.01617C12,192.2171,15.986633,196.54974,21.169556,196.98163L55.667816,199.85651ZM198.56683,201.83099C206.24762,202.71948,212.31979,204.77399,212.12939,206.41986C211.939,208.06573,205.55817,208.67975,197.87738,207.79126C190.19659,206.90277,184.12445,204.84827,184.31485,203.20239C184.50525,201.55652,190.88608,200.9425,198.56683,201.83099ZM21.840759,206.4549C21.65036,204.80902,27.722504,202.75452,35.403259,201.86603C43.084045,200.97754,49.464874,201.59155,49.655273,203.23743C49.845673,204.8833,43.773529,206.93781,36.092743,207.82629C28.411957,208.71478,22.031158,208.10077,21.840759,206.4549Z" fill-rule="evenodd" fill="currentColor" fill-opacity="1" style="mix-blend-mode:passthrough"/></svg>