<svg xmlns="http://www.w3.org/2000/svg" xmlns:xlink="http://www.w3.org/1999/xlink" fill="none" version="1.1" width="380" height="340" viewBox="0 0 380 340"><path d="M12.388916,15.616455C11.713379,16.928345,12.325439,18.529175,13.679199,19.116211C14.857788,19.627197,16.209961,19.230103,16.97583,18.19873Q20.911255,12.900024,25.217529,11.219482Q30.217529,9.2683105,35.844482,9.7561035L50.590576,9.7561035Q56.217529,9.2683105,61.217529,11.219482Q65.523804,12.900024,69.459106,18.19873C70.225098,19.230103,71.577271,19.627197,72.755737,19.116211C74.109619,18.529175,74.72168,16.928345,74.046143,15.616455Q70.066162,7.8864746,64.717529,4.3902588Q58.560791,0.36584473,50.590576,0L35.844482,0Q27.874268,0.36584473,21.717529,4.3902588Q16.368896,7.8864746,12.388916,15.616455ZM86.388916,15.616455C85.713379,16.928345,86.325439,18.529175,87.679199,19.116211C88.857788,19.627197,90.209961,19.230103,90.97583,18.19873Q94.911255,12.900024,99.217529,11.219482Q104.21753,9.2683105,109.84448,9.7561035L124.59058,9.7561035Q130.21753,9.2683105,135.21753,11.219482Q139.5238,12.900024,143.45911,18.19873C144.2251,19.230103,145.57727,19.627197,146.75574,19.116211C148.10962,18.529175,148.72168,16.928345,148.04614,15.616455Q144.06616,7.8864746,138.71753,4.3902588Q132.56079,0.36584473,124.59058,0L109.84448,0Q101.87427,0.36584473,95.717529,4.3902588Q90.368896,7.8864746,86.388916,15.616455ZM160.38892,15.616455C159.71338,16.928345,160.32544,18.529175,161.6792,19.116211C162.85779,19.627197,164.20996,19.230103,164.97583,18.19873Q168.91125,12.900024,173.21753,11.219482Q178.21753,9.2683105,183.84448,9.7561035L198.59058,9.7561035Q204.21753,9.2683105,209.21753,11.219482Q213.5238,12.900024,217.45911,18.19873C218.2251,19.230103,219.57727,19.627197,220.75574,19.116211C222.10962,18.529175,222.72168,16.928345,222.04614,15.616455Q218.06616,7.8864746,212.71753,4.3902588Q206.56079,0.36584473,198.59058,0L183.84448,0Q175.87427,0.36584473,169.71753,4.3902588Q164.3689,7.8864746,160.38892,15.616455ZM234.38892,15.616455C233.71338,16.928345,234.32544,18.529175,235.6792,19.116211C236.85779,19.627197,238.20996,19.230103,238.97583,18.19873Q242.91125,12.900024,247.21753,11.219482Q252.21753,9.2683105,257.84448,9.7561035L272.59058,9.7561035Q278.21753,9.2683105,283.21753,11.219482Q287.5238,12.900024,291.45911,18.19873C292.2251,19.230103,293.57727,19.627197,294.75574,19.116211C296.10962,18.529175,296.72168,16.928345,296.04614,15.616455Q292.06616,7.8864746,286.71753,4.3902588Q280.56079,0.36584473,272.59058,0L257.84448,0Q249.87427,0.36584473,243.71753,4.3902588Q238.3689,7.8864746,234.38892,15.616455ZM308.38892,15.616455C307.71338,16.928345,308.32544,18.529175,309.6792,19.116211C310.85779,19.627197,312.20996,19.230103,312.97583,18.19873Q316.91125,12.900024,321.21753,11.219482Q326.21753,9.2683105,331.84448,9.7561035L346.59058,9.7561035Q352.21753,9.2683105,357.21753,11.219482Q361.5238,12.900024,365.45911,18.19873C366.2251,19.230103,367.57727,19.627197,368.75574,19.116211C370.10962,18.529175,370.72168,16.928345,370.04614,15.616455Q366.06616,7.8864746,360.71753,4.3902588Q354.56079,0.36584473,346.59058,0L331.84448,0Q323.87427,0.36584473,317.71753,4.3902588Q312.3689,7.8864746,308.38892,15.616455ZM19.578491,55.667847C19.384155,57.999878,21.224609,60,23.564697,60L60.870361,60C63.210449,60,65.050903,57.999878,64.856567,55.667847L61.981689,21.169556C61.549805,15.986572,57.217041,12,52.016235,12L32.418823,12C27.218018,12,22.885254,15.986572,22.453369,21.169556L19.578491,55.667847ZM93.578491,55.667847C93.384155,57.999878,95.224609,60,97.564697,60L134.87036,60C137.21045,60,139.0509,57.999878,138.85657,55.667847L135.98169,21.169556C135.5498,15.986572,131.21704,12,126.01624,12L106.41882,12C101.21802,12,96.885254,15.986572,96.453369,21.169556L93.578491,55.667847ZM167.57849,55.667847C167.38416,57.999878,169.22461,60,171.5647,60L208.87036,60C211.21045,60,213.0509,57.999878,212.85657,55.667847L209.98169,21.169556C209.5498,15.986572,205.21704,12,200.01624,12L180.41882,12C175.21802,12,170.88525,15.986572,170.45337,21.169556L167.57849,55.667847ZM241.57849,55.667847C241.38416,57.999878,243.22461,60,245.5647,60L282.87036,60C285.21045,60,287.0509,57.999878,286.85657,55.667847L283.98169,21.169556C283.5498,15.986572,279.21704,12,274.01624,12L254.41882,12C249.21802,12,244.88525,15.986572,244.45337,21.169556L241.57849,55.667847ZM315.57849,55.667847C315.38416,57.999878,317.22461,60,319.5647,60L356.87036,60C359.21045,60,361.0509,57.999878,360.85657,55.667847L357.98169,21.169556C357.5498,15.986572,353.21704,12,348.01624,12L328.41882,12C323.21802,12,318.88525,15.986572,318.45337,21.169556L315.57849,55.667847ZM17.569092,35.40332C16.680542,27.722534,14.626099,21.650269,12.980103,21.840698C11.334229,22.031128,10.720215,28.411987,11.608765,36.092773C12.497314,43.77356,14.551758,49.845703,16.197632,49.655273C17.843506,49.464844,18.45752,43.084106,17.569092,35.40332ZM66.865967,35.40332C67.754517,27.722534,69.80896,21.650269,71.454956,21.840698C73.10083,22.031128,73.714844,28.411987,72.826294,36.092773C71.937744,43.77356,69.883301,49.845703,68.237427,49.655273C66.591553,49.464844,65.977539,43.084106,66.865967,35.40332ZM91.569092,35.40332C90.680542,27.722534,88.626099,21.650269,86.980103,21.840698C85.334229,22.031128,84.720215,28.411987,85.608765,36.092773C86.497314,43.77356,88.551758,49.845703,90.197632,49.655273C91.843506,49.464844,92.45752,43.084106,91.569092,35.40332ZM145.45496,21.840698C143.80896,21.650269,141.75452,27.722534,140.86597,35.40332C139.97754,43.084106,140.59155,49.464844,142.23743,49.655273C143.8833,49.845703,145.93774,43.77356,146.82629,36.092773C147.71484,28.411987,147.10083,22.031128,145.45496,21.840698ZM160.9801,21.840698C162.6261,21.650269,164.68054,27.722534,165.56909,35.40332C166.45752,43.084106,165.84351,49.464844,164.19763,49.655273C162.55176,49.845703,160.49731,43.77356,159.60876,36.092773C158.72021,28.411987,159.33423,22.031128,160.9801,21.840698ZM219.45496,21.840698C217.80896,21.650269,215.75452,27.722534,214.86597,35.40332C213.97754,43.084106,214.59155,49.464844,216.23743,49.655273C217.8833,49.845703,219.93774,43.77356,220.82629,36.092773C221.71484,28.411987,221.10083,22.031128,219.45496,21.840698ZM234.9801,21.840698C236.6261,21.650269,238.68054,27.722534,239.56909,35.40332C240.45752,43.084106,239.84351,49.464844,238.19763,49.655273C236.55176,49.845703,234.49731,43.77356,233.60876,36.092773C232.72021,28.411987,233.33423,22.031128,234.9801,21.840698ZM288.86597,35.40332C289.75452,27.722534,291.80896,21.650269,293.45496,21.840698C295.10083,22.031128,295.71484,28.411987,294.82629,36.092773C293.93774,43.77356,291.8833,49.845703,290.23743,49.655273C288.59155,49.464844,287.97754,43.084106,288.86597,35.40332ZM313.56909,35.40332C312.68054,27.722534,310.6261,21.650269,308.9801,21.840698C307.33423,22.031128,306.72021,28.411987,307.60876,36.092773C308.49731,43.77356,310.55176,49.845703,312.19763,49.655273C313.84351,49.464844,314.45752,43.084106,313.56909,35.40332ZM367.45496,21.840698C365.80896,21.650269,363.75452,27.722534,362.86597,35.40332C361.97754,43.084106,362.59155,49.464844,364.23743,49.655273C365.8833,49.845703,367.93774,43.77356,368.82629,36.092773C369.71484,28.411987,369.10083,22.031128,367.45496,21.840698ZM8,270C3.581665,270,0,266.41821,0,262L0,78C0,73.581665,3.581665,70,8,70L372,70C376.41821,70,380,73.581665,380,78L380,262C380,266.41821,376.41821,270,372,270L8,270ZM19.578491,284.33215C19.384155,282.00012,21.224609,280,23.564697,280L60.870361,280C63.210449,280,65.050903,282.00012,64.856567,284.33215L61.981689,318.83044C61.549805,324.01343,57.217041,328,52.016235,328L32.418823,328C27.218018,328,22.885254,324.01343,22.453369,318.83044L19.578491,284.33215ZM93.578491,284.33215C93.384155,282.00012,95.224609,280,97.564697,280L134.87036,280C137.21045,280,139.0509,282.00012,138.85657,284.33215L135.98169,318.83044C135.5498,324.01343,131.21704,328,126.01624,328L106.41882,328C101.21802,328,96.885254,324.01343,96.453369,318.83044L93.578491,284.33215ZM167.57849,284.33215C167.38416,282.00012,169.22461,280,171.5647,280L208.87036,280C211.21045,280,213.0509,282.00012,212.85657,284.33215L209.98169,318.83044C209.5498,324.01343,205.21704,328,200.01624,328L180.41882,328C175.21802,328,170.88525,324.01343,170.45337,318.83044L167.57849,284.33215ZM241.57849,284.33215C241.38416,282.00012,243.22461,280,245.5647,280L282.87036,280C285.21045,280,287.0509,282.00012,286.85657,284.33215L283.98169,318.83044C283.5498,324.01343,279.21704,328,274.01624,328L254.41882,328C249.21802,328,244.88525,324.01343,244.45337,318.83044L241.57849,284.33215ZM319.5647,280C317.22461,280,315.38416,282.00012,315.57849,284.33215L318.45337,318.83044C318.88525,324.01343,323.21802,328,328.41882,328L348.01624,328C353.21704,328,357.5498,324.01343,357.98169,318.83044L360.85657,284.33215C361.0509,282.00012,359.21045,280,356.87036,280L319.5647,280ZM17.569092,304.59668C16.680542,312.27747,14.626099,318.34973,12.980103,318.1593C11.334229,317.96887,10.720215,311.58801,11.608765,303.90723C12.497314,296.22644,14.551758,290.1543,16.197632,290.34473C17.843506,290.53516,18.45752,296.91589,17.569092,304.59668ZM66.865967,304.59668C67.754517,312.27747,69.80896,318.34973,71.454956,318.1593C73.10083,317.96887,73.714844,311.58801,72.826294,303.90723C71.937744,296.22644,69.883301,290.1543,68.237427,290.34473C66.591553,290.53516,65.977539,296.91589,66.865967,304.59668ZM91.569092,304.59668C90.680542,312.27747,88.626099,318.34973,86.980103,318.1593C85.334229,317.96887,84.720215,311.58801,85.608765,303.90723C86.497314,296.22644,88.551758,290.1543,90.197632,290.34473C91.843506,290.53516,92.45752,296.91589,91.569092,304.59668ZM145.45496,318.1593C143.80896,318.34973,141.75452,312.27747,140.86597,304.59668C139.97754,296.91589,140.59155,290.53516,142.23743,290.34473C143.8833,290.1543,145.93774,296.22644,146.82629,303.90723C147.71484,311.58801,147.10083,317.96887,145.45496,318.1593ZM160.9801,318.1593C162.6261,318.34973,164.68054,312.27747,165.56909,304.59668C166.45752,296.91589,165.84351,290.53516,164.19763,290.34473C162.55176,290.1543,160.49731,296.22644,159.60876,303.90723C158.72021,311.58801,159.33423,317.96887,160.9801,318.1593ZM219.45496,318.1593C217.80896,318.34973,215.75452,312.27747,214.86597,304.59668C213.97754,296.91589,214.59155,290.53516,216.23743,290.34473C217.8833,290.1543,219.93774,296.22644,220.82629,303.90723C221.71484,311.58801,221.10083,317.96887,219.45496,318.1593ZM234.9801,318.1593C236.6261,318.34973,238.68054,312.27747,239.56909,304.59668C240.45752,296.91589,239.84351,290.53516,238.19763,290.34473C236.55176,290.1543,234.49731,296.22644,233.60876,303.90723C232.72021,311.58801,233.33423,317.96887,234.9801,318.1593ZM288.86597,304.59668C289.75452,312.27747,291.80896,318.34973,293.45496,318.1593C295.10083,317.96887,295.71484,311.58801,294.82629,303.90723C293.93774,296.22644,291.8833,290.1543,290.23743,290.34473C288.59155,290.53516,287.97754,296.91589,288.86597,304.59668ZM313.56909,304.59668C312.68054,312.27747,310.6261,318.34973,308.9801,318.1593C307.33423,317.96887,306.72021,311.58801,307.60876,303.90723C308.49731,296.22644,310.55176,290.1543,312.19763,290.34473C313.84351,290.53516,314.45752,296.91589,313.56909,304.59668ZM367.45496,318.1593C365.80896,318.34973,363.75452,312.27747,362.86597,304.59668C361.97754,296.91589,362.59155,290.53516,364.23743,290.34473C365.8833,290.1543,367.93774,296.22644,368.82629,303.90723C369.71484,311.58801,369.10083,317.96887,367.45496,318.1593ZM12.388916,324.38354C11.713379,323.07166,12.325439,321.47083,13.679199,320.88379C14.857788,320.3728,16.209961,320.7699,16.97583,321.80127Q20.911255,327.09998,25.217529,328.78052Q30.217529,330.73169,35.844482,330.2439L50.590576,330.2439Q56.217529,330.73169,61.217529,328.78052Q65.523804,327.09998,69.459106,321.80127C70.225098,320.7699,71.577271,320.3728,72.755737,320.88379C74.109619,321.47083,74.72168,323.07166,74.046143,324.38354Q70.066162,332.11353,64.717529,335.60974Q58.560791,339.63416,50.590576,340L35.844482,340Q27.874268,339.63416,21.717529,335.60974Q16.368896,332.11353,12.388916,324.38354ZM86.388916,324.38354C85.713379,323.07166,86.325439,321.47083,87.679199,320.88379C88.857788,320.3728,90.209961,320.7699,90.97583,321.80127Q94.911255,327.09998,99.217529,328.78052Q104.21753,330.73169,109.84448,330.2439L124.59058,330.2439Q130.21753,330.73169,135.21753,328.78052Q139.5238,327.09998,143.45911,321.80127C144.2251,320.7699,145.57727,320.3728,146.75574,320.88379C148.10962,321.47083,148.72168,323.07166,148.04614,324.38354Q144.06616,332.11353,138.71753,335.60974Q132.56079,339.63416,124.59058,340L109.84448,340Q101.87427,339.63416,95.717529,335.60974Q90.368896,332.11353,86.388916,324.38354ZM160.38892,324.38354C159.71338,323.07166,160.32544,321.47083,161.6792,320.88379C162.85779,320.3728,164.20996,320.7699,164.97583,321.80127Q168.91125,327.09998,173.21753,328.78052Q178.21753,330.73169,183.84448,330.2439L198.59058,330.2439Q204.21753,330.73169,209.21753,328.78052Q213.5238,327.09998,217.45911,321.80127C218.2251,320.7699,219.57727,320.3728,220.75574,320.88379C222.10962,321.47083,222.72168,323.07166,222.04614,324.38354Q218.06616,332.11353,212.71753,335.60974Q206.56079,339.63416,198.59058,340L183.84448,340Q175.87427,339.63416,169.71753,335.60974Q164.3689,332.11353,160.38892,324.38354ZM234.38892,324.38354C233.71338,323.07166,234.32544,321.47083,235.6792,320.88379C236.85779,320.3728,238.20996,320.7699,238.97583,321.80127Q242.91125,327.09998,247.21753,328.78052Q252.21753,330.73169,257.84448,330.2439L272.59058,330.2439Q278.21753,330.73169,283.21753,328.78052Q287.5238,327.09998,291.45911,321.80127C292.2251,320.7699,293.57727,320.3728,294.75574,320.88379C296.10962,321.47083,296.72168,323.07166,296.04614,324.38354Q292.06616,332.11353,286.71753,335.60974Q280.56079,339.63416,272.59058,340L257.84448,340Q249.87427,339.63416,243.71753,335.60974Q238.3689,332.11353,234.38892,324.38354ZM308.38892,324.38354C307.71338,323.07166,308.32544,321.47083,309.6792,320.88379C310.85779,320.3728,312.20996,320.7699,312.97583,321.80127Q316.91125,327.09998,321.21753,328.78052Q326.21753,330.73169,331.84448,330.2439L346.59058,330.2439Q352.21753,330.73169,357.21753,328.78052Q361.5238,327.09998,365.45911,321.80127C366.2251,320.7699,367.57727,320.3728,368.75574,320.88379C370.10962,321.47083,370.72168,323.07166,370.04614,324.38354Q366.06616,332.11353,360.71753,335.60974Q354.56079,339.63416,346.59058,340L331.84448,340Q323.87427,339.63416,317.71753,335.60974Q312.3689,332.11353,308.38892,324.38354Z" fill-rule="evenodd" fill="currentColor" fill-opacity="1"/></svg>