<svg xmlns="http://www.w3.org/2000/svg" xmlns:xlink="http://www.w3.org/1999/xlink" fill="none" version="1.1" width="309.4257507324219" height="340" viewBox="0 0 309.4257507324219 340"><path d="M126.17459,19.116196C124.82077,18.52919,124.20871,16.928375,124.88419,15.616455Q128.86417,7.8864288,134.21286,4.3902435Q140.3696,0.36585236,148.33981,0L163.08591,0Q171.05612,0.36585236,177.21286,4.3902435Q182.56155,7.8864288,186.54153,15.616455C187.21701,16.92836,186.60495,18.529175,185.25113,19.116196C184.0726,19.627213,182.72037,19.230042,181.9545,18.198792Q178.01913,12.899994,173.71286,11.219513Q168.71286,9.2682877,163.08591,9.7560959L155.49533,9.7561035L148.33981,9.7560959Q142.71286,9.2682953,137.71286,11.219513Q133.40659,12.899994,129.47122,18.198792C128.70535,19.230042,127.35312,19.627213,126.17459,19.116196ZM136.06015,60C133.72,60,131.87967,57.999893,132.07401,55.667816L134.94882,21.16954C135.38077,15.986618,139.71341,12,144.91434,12L164.51163,12C169.71255,12,174.0452,15.986618,174.47708,21.16954L177.35196,55.667816C177.5463,57.999893,175.70596,60,173.36581,60L136.06015,60ZM125.47549,21.840744C127.12137,21.65036,129.17587,27.722504,130.06436,35.403275C130.95285,43.084045,130.33884,49.464874,128.69296,49.655273C127.04709,49.845657,124.99258,43.773514,124.1041,36.092743C123.21561,28.411972,123.82962,22.031128,125.47549,21.840744ZM179.36148,35.403275C180.24997,27.722504,182.30447,21.65036,183.95035,21.840744C185.59622,22.031128,186.21024,28.411957,185.32175,36.092743C184.43326,43.773514,182.37875,49.845657,180.73288,49.655273C179.08701,49.464874,178.47299,43.084045,179.36148,35.403275ZM38.312805,69.843109C38.481323,68.377167,37.401031,67.046707,35.927124,66.975723Q27.242737,66.55748,21.540619,69.441467Q14.97702,72.761169,10.675049,79.480667L3.3020325,92.251114Q-0.36624146,99.336472,0.040618896,106.68057Q0.39407349,113.06075,5.0984802,120.37253C5.8968811,121.61345,7.5892639,121.8838,8.7745361,121.00488C9.806366,120.23975,10.138489,118.87012,9.6283569,117.69119Q7.0071411,111.63368,7.7049255,107.06412Q8.5151367,101.75836,11.751068,97.129166L15.546356,90.555557L19.124084,84.358719Q21.515137,79.241714,25.704926,75.887192Q29.313416,72.998108,35.869995,72.23938C37.146027,72.091705,38.166077,71.119263,38.312805,69.843109ZM271.11295,69.843201C270.94443,68.377258,272.02475,67.046799,273.49863,66.975815Q282.18301,66.557571,287.8851,69.441559Q294.4487,72.761261,298.7507,79.480774L306.12369,92.251205Q309.79196,99.336563,309.3851,106.68066Q309.03171,113.06084,304.3273,120.37262C303.52884,121.61354,301.83652,121.8839,300.65121,121.00497C299.61942,120.23984,299.28726,118.87021,299.79739,117.6913Q302.41861,111.63377,301.72079,107.06421Q300.91061,101.75847,297.67465,97.129257L293.87943,90.555649L290.30167,84.35881Q287.91061,79.241806,283.72079,75.887283Q280.11234,72.998199,273.55576,72.239471C272.27969,72.091797,271.25967,71.119354,271.11295,69.843201ZM154.71298,270.21759C209.94144,270.21759,254.71298,225.44608,254.71298,170.21759C254.71298,114.98911,209.94144,70.21759,154.71298,70.21759C99.484467,70.21759,54.712952,114.98911,54.712952,170.21759C54.712952,225.44608,99.484467,270.21759,154.71298,270.21759ZM41.021942,70.59993C40.034119,71.930115,44.265503,76.745438,50.472992,81.355286C56.680481,85.965103,62.513458,88.62381,63.501251,87.293625C64.489105,85.963455,60.257721,81.148117,54.050232,76.538284C47.842712,71.928452,42.009766,69.26976,41.021942,70.59993ZM258.95285,81.355377C265.16037,76.745544,269.39175,71.930206,268.4039,70.600021C267.41605,69.269852,261.5831,71.928528,255.37564,76.538376C249.16812,81.148193,244.93674,85.963547,245.92459,87.293716C246.91238,88.623901,252.74539,85.965195,258.95285,81.355377ZM68.776459,98.846054C69.946503,96.819412,69.134552,94.225555,67.017731,93.227829L35.703949,78.468384C30.999451,76.250961,25.380585,78.009857,22.780151,82.513947L12.981476,99.485748C10.381042,103.98985,11.667206,109.73535,15.939819,112.70087L44.378754,132.4397C46.301239,133.77405,48.953552,133.1803,50.123627,131.15366L68.776459,98.846054ZM240.64926,98.846146C239.47922,96.819504,240.29117,94.225647,242.40799,93.227921L273.72177,78.468475C278.4263,76.251068,284.04514,78.009949,286.64554,82.514038L296.44424,99.48584C299.04465,103.98994,297.75851,109.73544,293.48593,112.70096L265.04697,132.43979C263.12448,133.77414,260.47214,133.18039,259.30209,131.15375L240.64926,98.846146ZM25.824402,124.04774C18.728424,120.97682,12.442535,119.72,11.784485,121.24057C11.126434,122.76112,16.345398,126.48328,23.441376,129.55421C30.537384,132.62515,36.823273,133.88196,37.481323,132.36139C38.139374,130.84082,32.92041,127.11868,25.824402,124.04774ZM283.60135,124.04784C290.6973,120.9769,296.98318,119.72009,297.64127,121.24066C298.29935,122.76123,293.08035,126.48338,285.98434,129.55431C278.8884,132.62524,272.60251,133.88205,271.94443,132.36148C271.28635,130.84091,276.50534,127.11876,283.60135,124.04784ZM259.30209,208.8461C260.47214,206.81949,263.12448,206.22574,265.04697,207.56006L293.48593,227.29892C297.75851,230.2644,299.04465,236.00992,296.44424,240.51404L286.64554,257.48581C284.04514,261.98993,278.42624,263.74881,273.72177,261.53137L242.40793,246.77194C240.29117,245.7742,239.47922,243.18036,240.64926,241.15372L259.30209,208.8461ZM50.123688,208.84613C48.953583,206.81952,46.30127,206.22577,44.378815,207.56009L15.93985,227.29895C11.667267,230.26443,10.381073,236.00995,12.981506,240.51404L22.780182,257.48584C25.380646,261.98993,30.999481,263.74884,35.703979,261.5314L67.017792,246.77197C69.134613,245.77423,69.946564,243.18039,68.776459,241.15375L50.123688,208.84613ZM283.60135,215.95209C290.6973,219.02301,296.98318,220.27982,297.64127,218.75925C298.29935,217.23868,293.08035,213.51654,285.98434,210.44562C278.8884,207.37466,272.60251,206.11786,271.94443,207.63843C271.28635,209.159,276.50534,212.88116,283.60135,215.95209ZM25.824402,215.95209C18.728424,219.02301,12.442535,220.27985,11.784485,218.75928C11.126434,217.23871,16.345398,213.51657,23.441376,210.44565C30.537354,207.37469,36.823273,206.11789,37.481323,207.63846C38.139374,209.15903,32.92041,212.88116,25.824402,215.95209ZM299.65121,220.72696C300.83652,219.84805,302.52884,220.11841,303.3273,221.35931Q308.03171,228.67111,308.3851,235.0513Q308.79196,242.39539,305.12369,249.48074L297.7507,262.25116Q293.4487,268.97067,286.8851,272.29037Q281.18301,275.17438,272.49863,274.75613C271.02475,274.68515,269.94443,273.35468,270.11295,271.88873C270.25967,270.61258,271.27969,269.64014,272.55576,269.49249Q279.11234,268.73373,282.72079,265.84467Q286.91061,262.49014,289.30167,257.37314L293.09689,250.79953L296.67465,244.60269Q299.91061,239.97348,300.72079,234.66776Q301.41861,230.09818,298.79739,224.04065C298.28726,222.86172,298.61942,221.4921,299.65121,220.72696ZM9.7745361,220.72699C8.5892639,219.84808,6.8968811,220.11844,6.0984802,221.35934Q1.3940735,228.67114,1.0406189,235.05133Q0.63375854,242.39542,4.3020325,249.48077L11.675079,262.25122Q15.97702,268.9707,22.540619,272.29041Q28.242737,275.17441,36.927124,274.75616C38.401031,274.68518,39.481323,273.35471,39.312805,271.88879C39.166077,270.61261,38.146027,269.64017,36.869965,269.49249Q30.313416,268.73376,26.704926,265.8447Q22.515137,262.49017,20.124084,257.37317L16.328827,250.79956L12.751068,244.60272Q9.5151367,239.97351,8.7049255,234.66779Q8.0071716,230.09821,10.628357,224.04068C11.138489,222.86176,10.806366,221.49213,9.7745361,220.72699ZM258.95285,258.64453C265.16031,263.25436,269.39175,268.0697,268.4039,269.39987C267.41605,270.73004,261.5831,268.07138,255.37564,263.46155C249.16812,258.85172,244.93674,254.03635,245.92459,252.70618C246.91238,251.37601,252.74533,254.0347,258.95285,258.64453ZM41.02182,269.3999C40.033997,268.06973,44.265381,263.25439,50.47287,258.64456C56.680359,254.03473,62.513336,251.37604,63.501129,252.70621C64.488983,254.03638,60.257599,258.85175,54.05011,263.46158C47.842621,268.07141,42.009644,270.73007,41.02182,269.3999ZM136.06015,280C133.72,280,131.87967,282.00009,132.07401,284.33218L134.94888,318.83044C135.38077,324.01337,139.71341,328,144.91434,328L164.51169,328C169.71255,328,174.0452,324.01337,174.47714,318.83044L177.35196,284.33218C177.5463,282.00009,175.70596,280,173.36581,280L136.06015,280ZM130.06448,304.59674C129.17599,312.2775,127.12149,318.34964,125.47562,318.15924C123.82974,317.96884,123.21573,311.58804,124.10422,303.90726C124.99271,296.22647,127.04721,290.15433,128.69308,290.34473C130.33896,290.53513,130.95297,296.91595,130.06448,304.59674ZM179.36148,304.59674C180.24997,312.2775,182.30447,318.34964,183.95035,318.15924C185.59622,317.96884,186.21024,311.58801,185.32175,303.90726C184.43326,296.22647,182.37875,290.15433,180.73288,290.34473C179.08701,290.53513,178.47299,296.91595,179.36148,304.59674ZM126.17471,320.88379C124.82089,321.47083,124.20883,323.07162,124.88431,324.38354Q128.86429,332.11356,134.21298,335.60974Q140.36972,339.63416,148.34,340L163.08603,340Q171.05624,339.63416,177.21298,335.60974Q182.56168,332.11356,186.54166,324.38354C187.21713,323.07162,186.60507,321.47083,185.25125,320.88379C184.07272,320.37277,182.72049,320.76996,181.95462,321.80121Q178.01926,327.10001,173.71298,328.78049Q168.71298,330.73172,163.08603,330.2439L148.33994,330.2439Q142.71298,330.73172,137.71298,328.78049Q133.40671,327.10001,129.47134,321.80121C128.70547,320.76996,127.35324,320.37277,126.17471,320.88379Z" fill-rule="evenodd" fill="currentColor" fill-opacity="1"/></svg>