<svg xmlns="http://www.w3.org/2000/svg" xmlns:xlink="http://www.w3.org/1999/xlink" fill="none" version="1.1" width="340" height="340" viewBox="0 0 340 340"><path d="M83.67926,19.116211C82.325439,18.529175,81.713379,16.928345,82.388855,15.616455Q86.368835,7.8864136,91.717529,4.3902588Q97.874268,0.36584473,105.84448,0L120.59058,0Q128.56079,0.36584473,134.71753,4.3902588Q140.06622,7.8864136,144.0462,15.616455C144.72168,16.928345,144.10962,18.529175,142.7558,19.116211C141.57727,19.627197,140.22504,19.230042,139.45917,18.198792Q135.5238,12.900024,131.21753,11.219482Q126.21753,9.2683105,120.59058,9.7561035L105.84448,9.7561035Q100.21753,9.2683105,95.217529,11.219482Q90.911255,12.900024,86.975891,18.198792C86.210022,19.230042,84.857788,19.627197,83.67926,19.116211ZM198.67926,19.116211C197.32544,18.529175,196.71338,16.928345,197.38885,15.616455Q201.36884,7.8864136,206.71753,4.3902588Q212.87427,0.36584473,220.84448,0L235.59058,0Q243.56079,0.36584473,249.71753,4.3902588Q255.06622,7.8864136,259.0462,15.616455C259.72168,16.928345,259.10962,18.529175,257.7558,19.116211C256.57727,19.627197,255.22504,19.230042,254.45917,18.198792Q250.5238,12.900024,246.21753,11.219482Q241.21753,9.2683105,235.59058,9.7561035L220.84448,9.7561035Q215.21753,9.2683105,210.21753,11.219482Q205.91125,12.900024,201.97589,18.198792C201.21002,19.230042,199.85779,19.627197,198.67926,19.116211ZM89.578552,55.667847C89.384216,57.999878,91.224548,60,93.564697,60L130.87036,60C133.21051,60,135.05084,57.999878,134.85651,55.667847L131.98169,21.169556C131.54974,15.986633,127.2171,12,122.01617,12L102.41888,12C97.217957,12,92.885315,15.986633,92.45343,21.169556L89.578552,55.667847ZM204.57855,55.667847C204.38422,57.999878,206.22455,60,208.5647,60L245.87036,60C248.21051,60,250.05084,57.999878,249.85651,55.667847L246.98169,21.169556C246.54974,15.986633,242.2171,12,237.01617,12L217.41888,12C212.21796,12,207.88531,15.986633,207.45343,21.169556L204.57855,55.667847ZM87.569031,35.403259C86.680542,27.722534,84.626038,21.650391,82.980164,21.840759C81.33429,22.031128,80.720276,28.411987,81.608765,36.092712C82.497253,43.773499,84.551758,49.845642,86.197632,49.655273C87.843506,49.464905,88.45752,43.084045,87.569031,35.403259ZM136.86603,35.403259C137.75452,27.722534,139.80902,21.650391,141.4549,21.840759C143.10077,22.031128,143.71478,28.411987,142.82629,36.092712C141.93781,43.773499,139.8833,49.845642,138.23743,49.655273C136.59155,49.464905,135.97754,43.084045,136.86603,35.403259ZM197.98016,21.840759C199.62604,21.650391,201.68054,27.722534,202.56903,35.403259C203.45752,43.084045,202.84351,49.464905,201.19763,49.655273C199.55176,49.845642,197.49725,43.773499,196.60876,36.092712C195.72028,28.411987,196.33429,22.031128,197.98016,21.840759ZM256.4549,21.840759C254.80902,21.650391,252.75452,27.722534,251.86603,35.403259C250.97754,43.084045,251.59155,49.464905,253.23743,49.655273C254.8833,49.845642,256.93781,43.773499,257.82629,36.092712C258.71478,28.411987,258.10077,22.031128,256.4549,21.840759ZM70,78L70,262C70,266.41827,73.581726,270,78,270L262,270C266.41827,270,270,266.41827,270,262L270,78C270,73.581726,266.41827,70,262,70L78,70C73.581726,70,70,73.581726,70,78ZM35.403259,145.56903C27.722534,144.68054,21.650391,142.62604,21.840759,140.98016C22.031128,139.33429,28.411987,138.72028,36.092712,139.60876C43.773499,140.49725,49.845642,142.55176,49.655273,144.19763C49.464905,145.84351,43.084045,146.45752,35.403259,145.56903ZM318.15924,140.98016C318.34961,142.62604,312.27747,144.68054,304.59674,145.56903C296.91595,146.45752,290.5351,145.84351,290.34473,144.19763C290.15436,142.55176,296.2265,140.49725,303.90729,139.60876C311.58801,138.72028,317.96887,139.33429,318.15924,140.98016ZM19.116211,141.67926C18.529175,140.32544,16.928345,139.71338,15.616455,140.38885Q7.8864441,144.36884,4.3902588,149.71753Q0.36584473,155.87427,0,163.84448L0,178.59058Q0.36584473,186.56079,4.3902588,192.71753Q7.8864441,198.06622,15.616455,202.0462C16.928345,202.72168,18.529175,202.10962,19.116211,200.7558C19.627197,199.57727,19.230042,198.22504,18.198792,197.45917Q12.900024,193.5238,11.219482,189.21753Q9.26828,184.21753,9.7561035,178.59058L9.7561035,163.84448Q9.26828,158.21753,11.219482,153.21753Q12.900024,148.91125,18.198792,144.97589C19.230042,144.21002,19.627197,142.85779,19.116211,141.67926ZM324.38354,140.38885C323.07166,139.71338,321.47083,140.32544,320.88379,141.67926C320.3728,142.85779,320.76996,144.21002,321.80121,144.97589Q327.09998,148.91125,328.78052,153.21753Q330.73169,158.21753,330.2439,163.84448L330.2439,178.59058Q330.73169,184.21753,328.78052,189.21753Q327.09998,193.5238,321.80121,197.45917C320.76996,198.22504,320.3728,199.57727,320.88379,200.7558C321.47083,202.10962,323.07166,202.72168,324.38354,202.0462Q332.11359,198.06622,335.60974,192.71753Q339.63416,186.56079,340,178.59058L340,163.84448Q339.63416,155.87427,335.60974,149.71753Q332.11359,144.36884,324.38354,140.38885ZM55.667847,147.57855C57.999878,147.38422,60,149.22455,60,151.5647L60,188.87036C60,191.21051,57.999878,193.05084,55.667847,192.85651L21.169556,189.98169C15.986633,189.54974,12,185.2171,12,180.01617L12,160.41888C12,155.21796,15.986633,150.88531,21.169556,150.45343L55.667847,147.57855ZM280,151.5647C280,149.22455,282.00012,147.38422,284.33215,147.57855L318.83044,150.45343C324.01337,150.88531,328,155.21796,328,160.41888L328,180.01617C328,185.2171,324.01337,189.54974,318.83044,189.98169L284.33215,192.85651C282.00012,193.05084,280,191.21051,280,188.87036L280,151.5647ZM35.403259,194.86603C27.722534,195.75452,21.650391,197.80902,21.840759,199.4549C22.031128,201.10077,28.411987,201.71478,36.092712,200.82629C43.773499,199.93781,49.845642,197.8833,49.655273,196.23743C49.464905,194.59155,43.084045,193.97754,35.403259,194.86603ZM318.15924,199.4549C318.34961,197.80902,312.27747,195.75452,304.59674,194.86603C296.91595,193.97754,290.5351,194.59155,290.34473,196.23743C290.15436,197.8833,296.2265,199.93781,303.90729,200.82629C311.58801,201.71478,317.96887,201.10077,318.15924,199.4549ZM89.578552,284.33215C89.384216,282.00012,91.224548,280,93.564697,280L130.87036,280C133.21051,280,135.05084,282.00012,134.85651,284.33215L131.98169,318.83044C131.54974,324.01337,127.2171,328,122.01617,328L102.41888,328C97.217957,328,92.885315,324.01337,92.45343,318.83044L89.578552,284.33215ZM204.57855,284.33215C204.38422,282.00012,206.22455,280,208.5647,280L245.87036,280C248.21051,280,250.05084,282.00012,249.85651,284.33215L246.98169,318.83044C246.54974,324.01337,242.2171,328,237.01617,328L217.41888,328C212.21796,328,207.88531,324.01337,207.45343,318.83044L204.57855,284.33215ZM87.569031,304.59674C86.680542,312.27747,84.626038,318.34961,82.980164,318.15924C81.33429,317.96887,80.720276,311.58801,81.608765,303.90729C82.497253,296.2265,84.551758,290.15436,86.197632,290.34473C87.843506,290.5351,88.45752,296.91595,87.569031,304.59674ZM136.86603,304.59674C137.75452,312.27747,139.80902,318.34961,141.4549,318.15924C143.10077,317.96887,143.71478,311.58801,142.82629,303.90729C141.93781,296.2265,139.8833,290.15436,138.23743,290.34473C136.59155,290.5351,135.97754,296.91595,136.86603,304.59674ZM197.98016,318.15924C199.62604,318.34961,201.68054,312.27747,202.56903,304.59674C203.45752,296.91595,202.84351,290.5351,201.19763,290.34473C199.55176,290.15436,197.49725,296.2265,196.60876,303.90729C195.72028,311.58801,196.33429,317.96887,197.98016,318.15924ZM256.4549,318.15924C254.80902,318.34961,252.75452,312.27747,251.86603,304.59674C250.97754,296.91595,251.59155,290.5351,253.23743,290.34473C254.8833,290.15436,256.93781,296.2265,257.82629,303.90729C258.71478,311.58801,258.10077,317.96887,256.4549,318.15924ZM83.67926,320.88379C82.325439,321.47083,81.713379,323.07166,82.388855,324.38354Q86.368835,332.11359,91.717529,335.60974Q97.874268,339.63416,105.84448,340L120.59058,340Q128.56079,339.63416,134.71753,335.60974Q140.06622,332.11359,144.0462,324.38354C144.72168,323.07166,144.10962,321.47083,142.7558,320.88379C141.57727,320.3728,140.22504,320.76996,139.45917,321.80121Q135.5238,327.09998,131.21753,328.78052Q126.21753,330.73169,120.59058,330.2439L105.84448,330.2439Q100.21753,330.73169,95.217529,328.78052Q90.911255,327.09998,86.975891,321.80121C86.210022,320.76996,84.857788,320.3728,83.67926,320.88379ZM197.38885,324.38354C196.71338,323.07166,197.32544,321.47083,198.67926,320.88379C199.85779,320.3728,201.21002,320.76996,201.97589,321.80121Q205.91125,327.09998,210.21753,328.78052Q215.21753,330.73169,220.84448,330.2439L235.59058,330.2439Q241.21753,330.73169,246.21753,328.78052Q250.5238,327.09998,254.45917,321.80121C255.22504,320.76996,256.57727,320.3728,257.7558,320.88379C259.10962,321.47083,259.72168,323.07166,259.0462,324.38354Q255.06622,332.11359,249.71753,335.60974Q243.56079,339.63416,235.59058,340L220.84448,340Q212.87427,339.63416,206.71753,335.60974Q201.36884,332.11359,197.38885,324.38354Z" fill-rule="evenodd" fill="currentColor" fill-opacity="1"/></svg>