<svg xmlns="http://www.w3.org/2000/svg" xmlns:xlink="http://www.w3.org/1999/xlink" fill="none" version="1.1" width="300" height="340" viewBox="0 0 300 340"><path d="M3.6792603,19.116211C2.3254395,18.529175,1.7133789,16.928345,2.388855,15.616455Q6.3688354,7.8864746,11.717529,4.3902588Q17.874268,0.36584473,25.844482,0L40.590576,0Q48.560791,0.36584473,54.717529,4.3902588Q60.066162,7.8864746,64.046143,15.616455C64.72168,16.928345,64.109619,18.529175,62.755737,19.116211C61.577271,19.627197,60.225098,19.230103,59.459106,18.19873Q55.523804,12.900024,51.217529,11.219482Q46.217529,9.2683105,40.590576,9.7561035L25.844482,9.7561035Q20.217529,9.2683105,15.217529,11.219482Q10.911255,12.900024,6.9758911,18.19873C6.2099609,19.230103,4.8577881,19.627197,3.6792603,19.116211ZM78.679199,19.116211C77.325439,18.529175,76.713379,16.928345,77.388916,15.616455Q81.368896,7.8864746,86.717529,4.3902588Q92.874268,0.36584473,100.84448,0L115.59058,0Q123.56079,0.36584473,129.71753,4.3902588Q135.06616,7.8864746,139.04614,15.616455C139.72168,16.928345,139.10962,18.529175,137.75574,19.116211C136.57727,19.627197,135.2251,19.230103,134.45911,18.19873Q130.5238,12.900024,126.21753,11.219482Q121.21753,9.2683105,115.59058,9.7561035L100.84448,9.7561035Q95.217529,9.2683105,90.217529,11.219482Q85.911255,12.900024,81.97583,18.19873C81.209961,19.230103,79.857788,19.627197,78.679199,19.116211ZM154.6792,19.116211C153.32544,18.529175,152.71338,16.928345,153.38892,15.616455Q157.3689,7.8864746,162.71753,4.3902588Q168.87427,0.36584473,176.84448,0L191.59058,0Q199.56079,0.36584473,205.71753,4.3902588Q211.06616,7.8864746,215.04614,15.616455C215.72168,16.928345,215.10962,18.529175,213.75574,19.116211C212.57727,19.627197,211.2251,19.230103,210.45911,18.19873Q206.5238,12.900024,202.21753,11.219482Q197.21753,9.2683105,191.59058,9.7561035L176.84448,9.7561035Q171.21753,9.2683105,166.21753,11.219482Q161.91125,12.900024,157.97583,18.19873C157.20996,19.230103,155.85779,19.627197,154.6792,19.116211ZM229.6792,19.116211C228.32544,18.529175,227.71338,16.928345,228.38892,15.616455Q232.3689,7.8864746,237.71753,4.3902588Q243.87427,0.36584473,251.84448,0L266.59058,0Q274.56079,0.36584473,280.71753,4.3902588Q286.06616,7.8864746,290.04614,15.616455C290.72168,16.928345,290.10962,18.529175,288.75574,19.116211C287.57727,19.627197,286.2251,19.230103,285.45911,18.19873Q281.5238,12.900024,277.21753,11.219482Q272.21753,9.2683105,266.59058,9.7561035L251.84448,9.7561035Q246.21753,9.2683105,241.21753,11.219482Q236.91125,12.900024,232.97583,18.19873C232.20996,19.230103,230.85779,19.627197,229.6792,19.116211ZM9.5785522,55.667847C9.3842163,57.999878,11.224548,60,13.564697,60L50.870361,60C53.210449,60,55.050903,57.999878,54.856567,55.667847L51.981689,21.169556C51.549805,15.986572,47.217041,12,42.016235,12L22.418823,12C17.218018,12,12.885315,15.986572,12.45343,21.169556L9.5785522,55.667847ZM88.564697,60C86.224609,60,84.384155,57.999878,84.578491,55.667847L87.453369,21.169556C87.885254,15.986572,92.218018,12,97.418823,12L117.01624,12C122.21704,12,126.5498,15.986572,126.98169,21.169556L129.85657,55.667847C130.0509,57.999878,128.21045,60,125.87036,60L88.564697,60ZM164.5647,60C162.22461,60,160.38416,57.999878,160.57849,55.667847L163.45337,21.169556C163.88525,15.986572,168.21802,12,173.41882,12L193.01624,12C198.21704,12,202.5498,15.986572,202.98169,21.169556L205.85657,55.667847C206.0509,57.999878,204.21045,60,201.87036,60L164.5647,60ZM239.5647,60C237.22461,60,235.38416,57.999878,235.57849,55.667847L238.45337,21.169556C238.88525,15.986572,243.21802,12,248.41882,12L268.01624,12C273.21704,12,277.5498,15.986572,277.98169,21.169556L280.85657,55.667847C281.0509,57.999878,279.21045,60,276.87036,60L239.5647,60ZM7.5690308,35.40332C6.680542,27.722534,4.6260376,21.650269,2.9801636,21.840698C1.3342896,22.031128,0.72027588,28.411987,1.6087646,36.092773C2.4972534,43.77356,4.5517578,49.845703,6.1976318,49.655273C7.8435059,49.464844,8.4575195,43.084106,7.5690308,35.40332ZM61.454956,21.840698C59.80896,21.650269,57.754517,27.722534,56.865967,35.40332C55.977539,43.084106,56.591553,49.464844,58.237427,49.655273C59.883301,49.845703,61.937744,43.77356,62.826294,36.092773C63.714844,28.411987,63.10083,22.031128,61.454956,21.840698ZM77.980103,21.840698C79.626099,21.650269,81.680542,27.722534,82.569092,35.40332C83.45752,43.084106,82.843506,49.464844,81.197632,49.655273C79.551758,49.845703,77.497314,43.77356,76.608765,36.092773C75.720215,28.411987,76.334229,22.031128,77.980103,21.840698ZM136.45496,21.840698C134.80896,21.650269,132.75452,27.722534,131.86597,35.40332C130.97754,43.084106,131.59155,49.464844,133.23743,49.655273C134.8833,49.845703,136.93774,43.77356,137.82629,36.092773C138.71484,28.411987,138.10083,22.031128,136.45496,21.840698ZM153.9801,21.840698C155.6261,21.650269,157.68054,27.722534,158.56909,35.40332C159.45752,43.084106,158.84351,49.464844,157.19763,49.655273C155.55176,49.845703,153.49731,43.77356,152.60876,36.092773C151.72021,28.411987,152.33423,22.031128,153.9801,21.840698ZM207.86597,35.40332C208.75452,27.722534,210.80896,21.650269,212.45496,21.840698C214.10083,22.031128,214.71484,28.411987,213.82629,36.092773C212.93774,43.77356,210.8833,49.845703,209.23743,49.655273C207.59155,49.464844,206.97754,43.084106,207.86597,35.40332ZM233.56909,35.40332C232.68054,27.722534,230.6261,21.650269,228.9801,21.840698C227.33423,22.031128,226.72021,28.411987,227.60876,36.092773C228.49731,43.77356,230.55176,49.845703,232.19763,49.655273C233.84351,49.464844,234.45752,43.084106,233.56909,35.40332ZM287.45496,21.840698C285.80896,21.650269,283.75452,27.722534,282.86597,35.40332C281.97754,43.084106,282.59155,49.464844,284.23743,49.655273C285.8833,49.845703,287.93774,43.77356,288.82629,36.092773C289.71484,28.411987,289.10083,22.031128,287.45496,21.840698ZM0,78L0,262C0,266.41833,3.5817261,270,8,270L292,270C296.41833,270,300,266.41833,300,262L300,78C300,73.581665,296.41833,70,292,70L8,70C3.5817261,70,0,73.581665,0,78ZM13.564697,280C11.224548,280,9.3842163,282.00012,9.5785522,284.33215L12.45343,318.83044C12.885315,324.01343,17.218018,328,22.418823,328L42.016235,328C47.217041,328,51.549805,324.01343,51.981689,318.83044L54.856567,284.33215C55.050903,282.00012,53.210449,280,50.870361,280L13.564697,280ZM88.564697,280C86.224609,280,84.384155,282.00012,84.578491,284.33215L87.453369,318.83044C87.885254,324.01343,92.218018,328,97.418823,328L117.01624,328C122.21704,328,126.5498,324.01343,126.98169,318.83044L129.85657,284.33215C130.0509,282.00012,128.21045,280,125.87036,280L88.564697,280ZM164.5647,280C162.22461,280,160.38416,282.00012,160.57849,284.33215L163.45337,318.83044C163.88525,324.01343,168.21802,328,173.41882,328L193.01624,328C198.21704,328,202.5498,324.01343,202.98169,318.83044L205.85657,284.33215C206.0509,282.00012,204.21045,280,201.87036,280L164.5647,280ZM239.5647,280C237.22461,280,235.38416,282.00012,235.57849,284.33215L238.45337,318.83044C238.88525,324.01343,243.21802,328,248.41882,328L268.01624,328C273.21704,328,277.5498,324.01343,277.98169,318.83044L280.85657,284.33215C281.0509,282.00012,279.21045,280,276.87036,280L239.5647,280ZM7.5690308,304.59668C6.680542,312.27747,4.6260376,318.34973,2.9801636,318.1593C1.3342896,317.96887,0.72027588,311.58801,1.6087646,303.90723C2.4972534,296.22644,4.5517578,290.1543,6.1976318,290.34473C7.8435059,290.53516,8.4575195,296.91589,7.5690308,304.59668ZM61.454956,318.1593C59.80896,318.34973,57.754517,312.27747,56.865967,304.59668C55.977539,296.91589,56.591553,290.53516,58.237427,290.34473C59.883301,290.1543,61.937744,296.22644,62.826294,303.90723C63.714844,311.58801,63.10083,317.96887,61.454956,318.1593ZM77.980103,318.1593C79.626099,318.34973,81.680542,312.27747,82.569092,304.59668C83.45752,296.91589,82.843506,290.53516,81.197632,290.34473C79.551758,290.1543,77.497314,296.22644,76.608765,303.90723C75.720215,311.58801,76.334229,317.96887,77.980103,318.1593ZM136.45496,318.1593C134.80896,318.34973,132.75452,312.27747,131.86597,304.59668C130.97754,296.91589,131.59155,290.53516,133.23743,290.34473C134.8833,290.1543,136.93774,296.22644,137.82629,303.90723C138.71484,311.58801,138.10083,317.96887,136.45496,318.1593ZM153.9801,318.1593C155.6261,318.34973,157.68054,312.27747,158.56909,304.59668C159.45752,296.91589,158.84351,290.53516,157.19763,290.34473C155.55176,290.1543,153.49731,296.22644,152.60876,303.90723C151.72021,311.58801,152.33423,317.96887,153.9801,318.1593ZM207.86597,304.59668C208.75452,312.27747,210.80896,318.34973,212.45496,318.1593C214.10083,317.96887,214.71484,311.58801,213.82629,303.90723C212.93774,296.22644,210.8833,290.1543,209.23743,290.34473C207.59155,290.53516,206.97754,296.91589,207.86597,304.59668ZM233.56909,304.59668C232.68054,312.27747,230.6261,318.34973,228.9801,318.1593C227.33423,317.96887,226.72021,311.58801,227.60876,303.90723C228.49731,296.22644,230.55176,290.1543,232.19763,290.34473C233.84351,290.53516,234.45752,296.91589,233.56909,304.59668ZM287.45496,318.1593C285.80896,318.34973,283.75452,312.27747,282.86597,304.59668C281.97754,296.91589,282.59155,290.53516,284.23743,290.34473C285.8833,290.1543,287.93774,296.22644,288.82629,303.90723C289.71484,311.58801,289.10083,317.96887,287.45496,318.1593ZM3.6792603,320.88379C2.3254395,321.47083,1.7133789,323.07166,2.388855,324.38354Q6.3688354,332.11353,11.717529,335.60974Q17.874268,339.63416,25.844482,340L40.590576,340Q48.560791,339.63416,54.717529,335.60974Q60.066162,332.11353,64.046143,324.38354C64.72168,323.07166,64.109619,321.47083,62.755737,320.88379C61.577271,320.3728,60.225098,320.7699,59.459106,321.80127Q55.523804,327.09998,51.217529,328.78052Q46.217529,330.73169,40.590576,330.2439L25.844482,330.2439Q20.217529,330.73169,15.217529,328.78052Q10.911255,327.09998,6.9758911,321.80127C6.2099609,320.7699,4.8577881,320.3728,3.6792603,320.88379ZM78.679199,320.88379C77.325439,321.47083,76.713379,323.07166,77.388916,324.38354Q81.368896,332.11353,86.717529,335.60974Q92.874268,339.63416,100.84448,340L115.59058,340Q123.56079,339.63416,129.71753,335.60974Q135.06616,332.11353,139.04614,324.38354C139.72168,323.07166,139.10962,321.47083,137.75574,320.88379C136.57727,320.3728,135.2251,320.7699,134.45911,321.80127Q130.5238,327.09998,126.21753,328.78052Q121.21753,330.73169,115.59058,330.2439L100.84448,330.2439Q95.217529,330.73169,90.217529,328.78052Q85.911255,327.09998,81.97583,321.80127C81.209961,320.7699,79.857788,320.3728,78.679199,320.88379ZM154.6792,320.88379C153.32544,321.47083,152.71338,323.07166,153.38892,324.38354Q157.3689,332.11353,162.71753,335.60974Q168.87427,339.63416,176.84448,340L191.59058,340Q199.56079,339.63416,205.71753,335.60974Q211.06616,332.11353,215.04614,324.38354C215.72168,323.07166,215.10962,321.47083,213.75574,320.88379C212.57727,320.3728,211.2251,320.7699,210.45911,321.80127Q206.5238,327.09998,202.21753,328.78052Q197.21753,330.73169,191.59058,330.2439L176.84448,330.2439Q171.21753,330.73169,166.21753,328.78052Q161.91125,327.09998,157.97583,321.80127C157.20996,320.7699,155.85779,320.3728,154.6792,320.88379ZM229.6792,320.88379C228.32544,321.47083,227.71338,323.07166,228.38892,324.38354Q232.3689,332.11353,237.71753,335.60974Q243.87427,339.63416,251.84448,340L266.59058,340Q274.56079,339.63416,280.71753,335.60974Q286.06616,332.11353,290.04614,324.38354C290.72168,323.07166,290.10962,321.47083,288.75574,320.88379C287.57727,320.3728,286.2251,320.7699,285.45911,321.80127Q281.5238,327.09998,277.21753,328.78052Q272.21753,330.73169,266.59058,330.2439L251.84448,330.2439Q246.21753,330.73169,241.21753,328.78052Q236.91125,327.09998,232.97583,321.80127C232.20996,320.7699,230.85779,320.3728,229.6792,320.88379Z" fill-rule="evenodd" fill="currentColor" fill-opacity="1"/></svg>