<svg xmlns="http://www.w3.org/2000/svg" xmlns:xlink="http://www.w3.org/1999/xlink" fill="none" version="1.1" width="340" height="340" viewBox="0 0 340 340"><path d="M140.05565,15.616455C139.38019,16.928345,139.99223,18.529175,141.34604,19.116211C142.52458,19.627197,143.87677,19.230042,144.64268,18.198792Q148.57806,12.900024,152.88431,11.219482Q157.88431,9.2683105,163.51129,9.7561035L178.25732,9.7561035Q183.88431,9.2683105,188.88431,11.219482Q193.19055,12.900024,197.12593,18.198792C197.89185,19.230042,199.24403,19.627197,200.42258,19.116211C201.77638,18.529175,202.38843,16.928345,201.71297,15.616455Q197.73297,7.8864136,192.38431,4.3902588Q186.22757,0.36584473,178.25732,0L163.51129,0Q155.54105,0.36584473,149.38431,4.3902588Q144.03563,7.8864136,140.05565,15.616455ZM147.24532,55.667847C147.05098,57.999878,148.89134,60,151.23151,60L188.53711,60C190.87727,60,192.71764,57.999878,192.52328,55.667847L189.64844,21.169556C189.21652,15.986633,184.88387,12,179.68298,12L160.08563,12C154.88475,12,150.55209,15.986633,150.12018,21.169556L147.24532,55.667847ZM140.64694,21.840759C142.29282,21.650391,144.34732,27.722534,145.23581,35.403259C146.1243,43.084045,145.51031,49.464905,143.86444,49.655273C142.21855,49.845642,140.16405,43.773499,139.27556,36.092712C138.38707,28.411987,139.00107,22.031128,140.64694,21.840759ZM199.1217,21.840759C197.47583,21.650391,195.42133,27.722534,194.53284,35.403259C193.64435,43.084045,194.25833,49.464905,195.90421,49.655273C197.55009,49.845642,199.6046,43.773499,200.49309,36.092712C201.38158,28.411987,200.76758,22.031128,199.1217,21.840759ZM69.666809,78L69.666809,262C69.666809,266.41827,73.248528,270,77.666809,270L261.66681,270C266.08508,270,269.66681,266.41827,269.66681,262L269.66681,78C269.66681,73.581726,266.08508,70,261.66681,70L77.666809,70C73.248528,70,69.666809,73.581726,69.666809,78ZM21.840744,140.76263C21.650352,142.40851,27.722504,144.46301,35.403275,145.3515C43.084034,146.23999,49.464882,145.62598,49.655266,143.9801C49.845657,142.33423,43.773506,140.27972,36.092739,139.39124C28.411961,138.50275,22.031136,139.11676,21.840744,140.76263ZM318.15924,140.76263C318.34964,142.40851,312.2775,144.46301,304.59674,145.3515C296.91595,146.23999,290.53513,145.62598,290.34473,143.9801C290.15433,142.33423,296.22647,140.27972,303.90726,139.39124C311.58804,138.50275,317.96884,139.11676,318.15924,140.76263ZM15.616455,140.17133C16.928368,139.49585,18.529182,140.10791,19.116199,141.46173C19.62722,142.64026,19.230042,143.99249,18.198788,144.75836Q12.9,148.69373,11.219513,153Q9.2682915,158,9.7560978,163.62695L9.7561035,170.78247L9.7560978,178.37305Q9.2682915,184,11.219513,189Q12.9,193.30627,18.198788,197.24164C19.230042,198.00751,19.62722,199.35974,19.116199,200.53827C18.529182,201.89209,16.928368,202.50415,15.616455,201.82867Q7.8864326,197.84869,4.3902435,192.5Q0.36585236,186.34326,0,178.37305L0,163.62695Q0.36585236,155.65674,4.3902435,149.5Q7.8864326,144.15131,15.616455,140.17133ZM324.38354,140.17133C323.07162,139.49585,321.47083,140.10791,320.88379,141.46173C320.37277,142.64026,320.76996,143.99249,321.80121,144.75836Q327.10001,148.69373,328.78049,153Q330.73172,158,330.2439,163.62695L330.2439,178.37305Q330.73172,184,328.78049,189Q327.10001,193.30627,321.80121,197.24164C320.76996,198.00751,320.37277,199.35974,320.88379,200.53827C321.47083,201.89209,323.07162,202.50415,324.38354,201.82867Q332.11356,197.84869,335.60974,192.5Q339.63416,186.34326,340,178.37305L340,163.62695Q339.63416,155.65674,335.60974,149.5Q332.11356,144.15131,324.38354,140.17133ZM55.667816,147.36102C57.999893,147.16669,60,149.00702,60,151.34717L60,188.65283C60,190.99298,57.999893,192.83331,55.667816,192.63898L21.169544,189.76416C15.986622,189.33221,12,184.99957,12,179.79865L12,160.20135C12,155.00043,15.986622,150.66779,21.169544,150.2359L55.667816,147.36102ZM284.33218,147.36102C282.00009,147.16669,280,149.00702,280,151.34717L280,188.65283C280,190.99298,282.00009,192.83331,284.33218,192.63898L318.83044,189.76416C324.01337,189.33221,328,184.99957,328,179.79865L328,160.20135C328,155.00043,324.01337,150.66779,318.83044,150.2359L284.33218,147.36102ZM21.840744,199.23737C21.650352,197.59149,27.722504,195.53699,35.403275,194.6485C43.084034,193.76001,49.464882,194.37402,49.655266,196.0199C49.845657,197.66577,43.773506,199.72028,36.092739,200.60876C28.411961,201.49725,22.031136,200.88324,21.840744,199.23737ZM318.15924,199.23737C318.34964,197.59149,312.2775,195.53699,304.59674,194.6485C296.91595,193.76001,290.53513,194.37402,290.34473,196.0199C290.15433,197.66577,296.22647,199.72028,303.90726,200.60876C311.58804,201.49725,317.96884,200.88324,318.15924,199.23737ZM147.24532,284.33215C147.05098,282.00012,148.89134,280,151.23151,280L188.53711,280C190.87727,280,192.71764,282.00012,192.52328,284.33215L189.64844,318.83044C189.21652,324.01337,184.88387,328,179.68298,328L160.08563,328C154.88475,328,150.55209,324.01337,150.12018,318.83044L147.24532,284.33215ZM140.64694,318.15924C142.29282,318.34961,144.34732,312.27747,145.23581,304.59674C146.1243,296.91595,145.51031,290.5351,143.86444,290.34473C142.21855,290.15436,140.16405,296.2265,139.27556,303.90729C138.38707,311.58801,139.00107,317.96887,140.64694,318.15924ZM199.1217,318.15924C197.47583,318.34961,195.42133,312.27747,194.53284,304.59674C193.64435,296.91595,194.25833,290.5351,195.90421,290.34473C197.55009,290.15436,199.6046,296.2265,200.49309,303.90729C201.38158,311.58801,200.76758,317.96887,199.1217,318.15924ZM140.05565,324.38354C139.38019,323.07166,139.99223,321.47083,141.34604,320.88379C142.52458,320.3728,143.87677,320.76996,144.64268,321.80121Q148.57806,327.09998,152.88431,328.78052Q157.88431,330.73169,163.51129,330.2439L178.25732,330.2439Q183.88431,330.73169,188.88431,328.78052Q193.19055,327.09998,197.12593,321.80121C197.89185,320.76996,199.24403,320.3728,200.42258,320.88379C201.77638,321.47083,202.38843,323.07166,201.71297,324.38354Q197.73297,332.11359,192.38431,335.60974Q186.22757,339.63416,178.25732,340L163.51129,340Q155.54105,339.63416,149.38431,335.60974Q144.03563,332.11359,140.05565,324.38354Z" fill-rule="evenodd" fill="currentColor" fill-opacity="1"/></svg>