<svg xmlns="http://www.w3.org/2000/svg" xmlns:xlink="http://www.w3.org/1999/xlink" fill="none" version="1.1" width="280" height="340" viewBox="0 0 280 340"><path d="M23.67926,19.116211C22.325439,18.529175,21.713379,16.928345,22.388855,15.616455Q26.368835,7.8864746,31.717529,4.3902588Q37.874268,0.36584473,45.844482,0L60.590515,0Q68.560791,0.36584473,74.717529,4.3902588Q80.066162,7.8864746,84.046143,15.616455C84.721619,16.928345,84.109558,18.529175,82.755798,19.116211C81.577271,19.627197,80.225037,19.230103,79.459106,18.19873Q75.523743,12.900024,71.217529,11.219482Q66.217529,9.2683105,60.590515,9.7561035L45.844482,9.7561035Q40.217529,9.2683105,35.217529,11.219482Q30.911255,12.900024,26.975891,18.19873C26.209961,19.230103,24.857788,19.627197,23.67926,19.116211ZM112.67926,19.116211C111.32544,18.529175,110.71338,16.928345,111.38885,15.616455Q115.36884,7.8864746,120.71753,4.3902588Q126.87427,0.36584473,134.84448,0L149.59052,0Q157.56079,0.36584473,163.71753,4.3902588Q169.06616,7.8864746,173.04614,15.616455C173.72162,16.928345,173.10956,18.529175,171.7558,19.116211C170.57727,19.627197,169.22504,19.230103,168.45911,18.19873Q164.52374,12.900024,160.21753,11.219482Q155.21753,9.2683105,149.59052,9.7561035L134.84448,9.7561035Q129.21753,9.2683105,124.21753,11.219482Q119.91125,12.900024,115.97589,18.19873C115.20996,19.230103,113.85779,19.627197,112.67926,19.116211ZM200.67926,19.116211C199.32544,18.529175,198.71338,16.928345,199.38885,15.616455Q203.36884,7.8864746,208.71753,4.3902588Q214.87427,0.36584473,222.84448,0L237.59052,0Q245.56079,0.36584473,251.71753,4.3902588Q257.06616,7.8864746,261.04614,15.616455C261.72162,16.928345,261.10956,18.529175,259.7558,19.116211C258.57727,19.627197,257.22504,19.230103,256.45911,18.19873Q252.52374,12.900024,248.21753,11.219482Q243.21753,9.2683105,237.59052,9.7561035L222.84448,9.7561035Q217.21753,9.2683105,212.21753,11.219482Q207.91125,12.900024,203.97589,18.19873C203.20996,19.230103,201.85779,19.627197,200.67926,19.116211ZM33.564697,60C31.224548,60,29.384216,57.999878,29.578552,55.667847L32.45343,21.169556C32.885315,15.986572,37.217957,12,42.418884,12L62.016174,12C67.217102,12,71.549744,15.986572,71.981689,21.169556L74.856506,55.667847C75.050842,57.999878,73.21051,60,70.870361,60L33.564697,60ZM122.5647,60C120.22455,60,118.38422,57.999878,118.57855,55.667847L121.45343,21.169556C121.88531,15.986572,126.21796,12,131.41888,12L151.01617,12C156.2171,12,160.54974,15.986572,160.98169,21.169556L163.85651,55.667847C164.05084,57.999878,162.21051,60,159.87036,60L122.5647,60ZM210.5647,60C208.22455,60,206.38422,57.999878,206.57855,55.667847L209.45343,21.169556C209.88531,15.986572,214.21796,12,219.41888,12L239.01617,12C244.2171,12,248.54974,15.986572,248.98169,21.169556L251.85651,55.667847C252.05084,57.999878,250.21051,60,247.87036,60L210.5647,60ZM27.569031,35.40332C26.680542,27.722534,24.626038,21.650269,22.980164,21.840698C21.33429,22.031128,20.720276,28.411987,21.608765,36.092773C22.497253,43.77356,24.551758,49.845703,26.197632,49.655273C27.843506,49.464844,28.45752,43.084106,27.569031,35.40332ZM76.866028,35.40332C77.754517,27.722534,79.809021,21.650269,81.454895,21.840698C83.100769,22.031128,83.714783,28.411987,82.826294,36.092773C81.937805,43.77356,79.883301,49.845703,78.237427,49.655273C76.591553,49.464844,75.977539,43.084106,76.866028,35.40332ZM116.56903,35.40332C115.68054,27.722534,113.62604,21.650269,111.98016,21.840698C110.33429,22.031128,109.72028,28.411987,110.60876,36.092773C111.49725,43.77356,113.55176,49.845703,115.19763,49.655273C116.84351,49.464844,117.45752,43.084106,116.56903,35.40332ZM170.4549,21.840698C168.80902,21.650269,166.75452,27.722534,165.86603,35.40332C164.97754,43.084106,165.59155,49.464844,167.23743,49.655273C168.8833,49.845703,170.93781,43.77356,171.82629,36.092773C172.71478,28.411987,172.10077,22.031128,170.4549,21.840698ZM199.98016,21.840698C201.62604,21.650269,203.68054,27.722534,204.56903,35.40332C205.45752,43.084106,204.84351,49.464844,203.19763,49.655273C201.55176,49.845703,199.49725,43.77356,198.60876,36.092773C197.72028,28.411987,198.33429,22.031128,199.98016,21.840698ZM253.86603,35.40332C254.75452,27.722534,256.80902,21.650269,258.4549,21.840698C260.10077,22.031128,260.71478,28.411987,259.82629,36.092773C258.93781,43.77356,256.8833,49.845703,255.23743,49.655273C253.59155,49.464844,252.97754,43.084106,253.86603,35.40332ZM0,262L0,78C0,73.581665,3.5817261,70,8,70L272,70C276.41827,70,280,73.581665,280,78L280,262C280,266.41833,276.41827,270,272,270L8,270C3.5817261,270,0,266.41833,0,262ZM33.564697,280C31.224548,280,29.384216,282.00012,29.578552,284.33215L32.45343,318.83044C32.885315,324.01343,37.217957,328,42.418884,328L62.016174,328C67.217102,328,71.549744,324.01343,71.981689,318.83044L74.856506,284.33215C75.050842,282.00012,73.21051,280,70.870361,280L33.564697,280ZM122.5647,280C120.22455,280,118.38422,282.00012,118.57855,284.33215L121.45343,318.83044C121.88531,324.01343,126.21796,328,131.41888,328L151.01617,328C156.2171,328,160.54974,324.01343,160.98169,318.83044L163.85651,284.33215C164.05084,282.00012,162.21051,280,159.87036,280L122.5647,280ZM210.5647,280C208.22455,280,206.38422,282.00012,206.57855,284.33215L209.45343,318.83044C209.88531,324.01343,214.21796,328,219.41888,328L239.01617,328C244.2171,328,248.54974,324.01343,248.98169,318.83044L251.85651,284.33215C252.05084,282.00012,250.21051,280,247.87036,280L210.5647,280ZM27.569031,304.59668C26.680542,312.27747,24.626038,318.34973,22.980164,318.1593C21.33429,317.96887,20.720276,311.58801,21.608765,303.90723C22.497253,296.22644,24.551758,290.1543,26.197632,290.34473C27.843506,290.53516,28.45752,296.91589,27.569031,304.59668ZM76.866028,304.59668C77.754517,312.27747,79.809021,318.34973,81.454895,318.1593C83.100769,317.96887,83.714783,311.58801,82.826294,303.90723C81.937805,296.22644,79.883301,290.1543,78.237427,290.34473C76.591553,290.53516,75.977539,296.91589,76.866028,304.59668ZM116.56903,304.59668C115.68054,312.27747,113.62604,318.34973,111.98016,318.1593C110.33429,317.96887,109.72028,311.58801,110.60876,303.90723C111.49725,296.22644,113.55176,290.1543,115.19763,290.34473C116.84351,290.53516,117.45752,296.91589,116.56903,304.59668ZM170.4549,318.1593C168.80902,318.34973,166.75452,312.27747,165.86603,304.59668C164.97754,296.91589,165.59155,290.53516,167.23743,290.34473C168.8833,290.1543,170.93781,296.22644,171.82629,303.90723C172.71478,311.58801,172.10077,317.96887,170.4549,318.1593ZM199.98016,318.1593C201.62604,318.34973,203.68054,312.27747,204.56903,304.59668C205.45752,296.91589,204.84351,290.53516,203.19763,290.34473C201.55176,290.1543,199.49725,296.22644,198.60876,303.90723C197.72028,311.58801,198.33429,317.96887,199.98016,318.1593ZM253.86603,304.59668C254.75452,312.27747,256.80902,318.34973,258.4549,318.1593C260.10077,317.96887,260.71478,311.58801,259.82629,303.90723C258.93781,296.22644,256.8833,290.1543,255.23743,290.34473C253.59155,290.53516,252.97754,296.91589,253.86603,304.59668ZM23.67926,320.88379C22.325439,321.47083,21.713379,323.07166,22.388855,324.38354Q26.368835,332.11353,31.717529,335.60974Q37.874268,339.63416,45.844482,340L60.590515,340Q68.560791,339.63416,74.717529,335.60974Q80.066162,332.11353,84.046143,324.38354C84.721619,323.07166,84.109558,321.47083,82.755798,320.88379C81.577271,320.3728,80.225037,320.7699,79.459106,321.80127Q75.523743,327.09998,71.217529,328.78052Q66.217529,330.73169,60.590515,330.2439L45.844482,330.2439Q40.217529,330.73169,35.217529,328.78052Q30.911255,327.09998,26.975891,321.80127C26.209961,320.7699,24.857788,320.3728,23.67926,320.88379ZM112.67926,320.88379C111.32544,321.47083,110.71338,323.07166,111.38885,324.38354Q115.36884,332.11353,120.71753,335.60974Q126.87427,339.63416,134.84448,340L149.59052,340Q157.56079,339.63416,163.71753,335.60974Q169.06616,332.11353,173.04614,324.38354C173.72162,323.07166,173.10956,321.47083,171.7558,320.88379C170.57727,320.3728,169.22504,320.7699,168.45911,321.80127Q164.52374,327.09998,160.21753,328.78052Q155.21753,330.73169,149.59052,330.2439L134.84448,330.2439Q129.21753,330.73169,124.21753,328.78052Q119.91125,327.09998,115.97589,321.80127C115.20996,320.7699,113.85779,320.3728,112.67926,320.88379ZM200.67926,320.88379C199.32544,321.47083,198.71338,323.07166,199.38885,324.38354Q203.36884,332.11353,208.71753,335.60974Q214.87427,339.63416,222.84448,340L237.59052,340Q245.56079,339.63416,251.71753,335.60974Q257.06616,332.11353,261.04614,324.38354C261.72162,323.07166,261.10956,321.47083,259.7558,320.88379C258.57727,320.3728,257.22504,320.7699,256.45911,321.80127Q252.52374,327.09998,248.21753,328.78052Q243.21753,330.73169,237.59052,330.2439L222.84448,330.2439Q217.21753,330.73169,212.21753,328.78052Q207.91125,327.09998,203.97589,321.80127C203.20996,320.7699,201.85779,320.3728,200.67926,320.88379Z" fill-rule="evenodd" fill="currentColor" fill-opacity="1"/></svg>