<svg xmlns="http://www.w3.org/2000/svg" xmlns:xlink="http://www.w3.org/1999/xlink" fill="none" version="1.1" width="330.130615234375" height="340" viewBox="0 0 330.130615234375 340"><path d="M134.96069,15.616455C134.28516,16.928375,134.89722,18.52919,136.2511,19.116196C137.42957,19.627213,138.78174,19.230042,139.54773,18.198792Q143.48303,12.899994,147.78931,11.219513Q152.78931,9.2682953,158.41626,9.7560959L165.57178,9.7561035L173.16235,9.7560959Q178.78931,9.2682953,183.78931,11.219513Q188.09558,12.899994,192.03088,18.198792C192.79688,19.230042,194.14905,19.627213,195.32751,19.116196C196.6814,18.52919,197.29346,16.928375,196.61792,15.616455Q192.63794,7.8864288,187.28931,4.3902435Q181.13257,0.36585236,173.16235,0L158.41626,0Q150.44604,0.36585236,144.28931,4.3902435Q138.94067,7.8864288,134.96069,15.616455ZM142.15027,55.667816C141.95593,57.999893,143.79639,60,146.13647,60L183.44214,60C185.78223,60,187.62268,57.999893,187.42834,55.667816L184.55347,21.16954C184.12158,15.986618,179.78882,12,174.58801,12L154.9906,12C149.78979,12,145.45703,15.986618,145.02515,21.16954L142.15027,55.667816ZM275.84741,58.640961C275.67383,60.106293,274.27124,61.091171,272.82068,60.820801C271.55786,60.585419,270.65894,59.500015,270.60059,58.216766Q270.30115,51.623245,267.67078,47.822037Q264.6167,43.408432,259.67896,40.666275L253.74683,36.664978L247.45398,32.420395Q243.06177,28.869415,237.82544,27.691101Q233.31567,26.676254,227.09009,28.868515C225.87842,29.295181,224.53528,28.868317,223.84399,27.785629C223.04993,26.541931,223.43762,24.872528,224.7312,24.162628Q232.35339,19.979736,238.74268,20.072205Q246.09729,20.178635,252.90942,24.33223L265.13452,32.57811Q271.53748,37.338318,274.39124,44.117493Q276.87048,50.006897,275.84741,58.640961ZM135.55188,21.840744C137.19788,21.65036,139.25232,27.722488,140.14087,35.403275C141.0293,43.084061,140.41528,49.464874,138.76941,49.655273C137.12354,49.845657,135.06909,43.773514,134.18054,36.092743C133.29199,28.411972,133.90601,22.031128,135.55188,21.840744ZM194.02673,21.840744C192.38074,21.65036,190.32629,27.722488,189.43774,35.403275C188.54932,43.084061,189.16333,49.464874,190.8092,49.655273C192.45508,49.845657,194.50952,43.773514,195.39807,36.092743C196.28662,28.411972,195.67261,22.031128,194.02673,21.840744ZM98.109985,27.487015C99.427612,28.151352,99.873413,29.806183,99.123169,31.076843C98.470093,32.182999,97.1427,32.656479,95.91687,32.272354Q89.61853,30.298706,85.146973,31.470306Q79.954956,32.830673,75.689453,36.532776L69.900513,40.738663L63.759644,45.200272Q58.920532,48.113083,56.022339,52.630585Q53.526367,56.521271,53.457031,63.121246C53.443604,64.405731,52.58313,65.521851,51.329224,65.801147C49.889038,66.122009,48.452881,65.186676,48.228271,63.728271Q46.904541,55.135178,49.176636,49.162842Q51.792114,42.288193,58.025146,37.307419L69.954956,28.639923Q76.618042,24.251114,83.964355,23.888077Q90.346558,23.572678,98.109985,27.487015ZM223.39893,30.771805C224.86987,31.534332,223.17761,37.717255,219.61914,44.581711C216.06067,51.446167,211.98364,56.392807,210.5127,55.630295C209.04175,54.867767,210.73389,48.684845,214.29236,41.820374C217.85083,34.955887,221.92798,30.009277,223.39893,30.771805ZM247.4906,87.824615C246.34753,89.866669,243.70337,90.495728,241.76331,89.187119L210.83557,68.326096C208.89551,67.017487,208.48816,64.330215,209.95337,62.505508L231.62793,35.512741C234.88428,31.457428,240.70557,30.575165,245.01721,33.483459L261.26416,44.442154C265.57593,47.350464,266.9386,53.078308,264.39832,57.616669L247.4906,87.824615ZM101.29016,32.870117C99.846802,33.683517,101.75378,39.803558,105.54956,46.539703C109.34546,53.275803,113.59277,58.077118,115.03613,57.263733C116.47961,56.450348,114.57263,50.330246,110.77686,43.594147C106.98096,36.858017,102.73364,32.056717,101.29016,32.870117ZM115.83496,64.115234C117.36304,65.88768,117.04968,68.58754,115.15649,69.963058L84.975586,91.890747C83.082397,93.266251,80.417847,92.729874,79.204346,90.728943L61.252563,61.129456C58.555542,56.682526,59.717529,50.910599,63.925049,47.853607L79.779663,36.334564C83.987305,33.277557,89.835693,33.956146,93.231567,37.89534L115.83496,64.115234ZM271.87671,63.47049C270.61865,62.392288,265.5199,66.277466,260.48828,72.14827C255.45667,78.019043,252.39758,83.652374,253.65564,84.730576C254.9137,85.808777,260.01245,81.923599,265.04407,76.052795C270.07568,70.181961,273.13477,64.548706,271.87671,63.47049ZM53.983154,67.240723C55.202759,66.119263,60.434082,69.824127,65.66748,75.515762C70.901001,81.207382,74.154785,86.730484,72.935181,87.851944C71.715576,88.973389,66.484253,85.268539,61.250854,79.576889C56.017334,73.885284,52.76355,68.362167,53.983154,67.240723ZM164.78931,270.21759C220.01782,270.21759,264.78931,225.44608,264.78931,170.21759C264.78931,114.98911,220.01782,70.21759,164.78931,70.21759C109.56079,70.21759,64.789307,114.98911,64.789307,170.21759C64.789307,225.44608,109.56079,270.21759,164.78931,270.21759ZM319.10388,139.77422C318.1405,140.89194,316.427,140.92413,315.37561,139.88881C314.46033,138.98752,314.32202,137.58499,314.99121,136.48854Q318.43005,130.85477,318.375,126.23256Q318.31104,120.86571,315.75085,115.83119L313.07043,109.19675L310.22693,102.15891Q308.57129,96.758926,304.88916,92.853943Q301.7179,89.490784,295.33069,87.826935C294.08765,87.503113,293.21277,86.398163,293.24512,85.114014C293.28223,83.638885,294.53723,82.471725,296.00671,82.606552Q304.66479,83.401016,309.91003,87.050522Q315.94775,91.251389,319.27258,98.504211L324.79663,112.1765Q327.44312,119.70343,326.01807,126.91942Q324.78015,133.18832,319.10388,139.77422ZM291.2063,87.340805C291.99939,88.795517,287.13904,92.975098,280.35034,96.676147C273.56177,100.37721,267.41553,102.19823,266.62244,100.74352C265.82935,99.288803,270.6897,95.109222,277.47839,91.408173C284.26697,87.707108,290.41321,85.886093,291.2063,87.340805ZM8.7111816,150.57791C9.7502441,151.62573,11.461792,151.5383,12.438477,150.43216C13.288696,149.46921,13.328735,148.06049,12.584595,147.01337Q8.7613525,141.63321,8.4937744,137.01842Q8.1831055,131.66017,10.385864,126.45934L12.597046,119.65405L14.942627,112.43503Q16.217529,106.93271,19.618408,102.78038Q22.547363,99.204193,28.802856,97.098846C30.020386,96.689102,30.815918,95.525818,30.694092,94.247055C30.554199,92.778107,29.220825,91.701324,27.764404,91.938339Q19.182861,93.334824,14.204956,97.341324Q8.4749756,101.95312,5.6640625,109.42023L1.1072998,123.44453Q-1.0076904,131.13773,0.91723633,138.23676Q2.5894775,144.40402,8.7111816,150.57791ZM279.27563,148.11157C277.18616,149.16537,274.64233,148.20825,273.76562,146.03851L259.79077,111.44936C258.91406,109.2796,260.07922,106.82399,262.31421,106.13057L295.37744,95.872803C300.34473,94.331711,305.66406,96.855469,307.61243,101.67764L314.95374,119.84799C316.90198,124.67017,314.82874,130.18076,310.18494,132.52277L279.27563,148.11157ZM32.883423,96.326187C32.193726,97.832672,37.33374,101.66302,44.364014,104.88152C51.394287,108.10001,57.652588,109.48785,58.342285,107.98137C59.031982,106.47488,53.891846,102.64453,46.861572,99.426041C39.831299,96.20755,33.57312,94.819702,32.883423,96.326187ZM49.02417,156.1167C51.182007,157.02219,53.652954,155.88995,54.376099,153.66434L65.904175,118.1846C66.627319,115.95898,65.293823,113.59062,63.015747,113.05479L29.317627,105.12839C24.254883,103.93756,19.124512,106.82623,17.517334,111.77255L11.461426,130.41074C9.854248,135.35707,12.306885,140.70963,17.102661,142.72198L49.02417,156.1167ZM313.11133,141.55765C312.67126,139.96028,306.27161,140.33005,298.81726,142.38351C291.36292,144.43701,285.67676,147.39658,286.11682,148.99393C286.55688,150.59128,292.95642,150.22153,300.41077,148.16806C307.86511,146.11459,313.55139,143.155,313.11133,141.55765ZM29.130371,151.76575C21.551025,150.23727,15.141113,150.31482,14.813599,151.93896C14.486084,153.56314,20.364868,156.11887,27.944214,157.64734C35.52356,159.17581,41.933472,159.09827,42.260986,157.47412C42.588623,155.84998,36.709717,153.29422,29.130371,151.76575ZM314.69897,187.89368C314.37146,189.51782,307.96155,189.59537,300.3822,188.06689C292.80286,186.53842,286.92395,183.98267,287.25159,182.35852C287.5791,180.73438,293.98901,180.65683,301.56836,182.1853C309.14771,183.71378,315.02649,186.2695,314.69897,187.89368ZM263.60852,221.6481C262.88538,223.87372,264.21887,226.24207,266.49683,226.77789L300.19507,234.70432C305.25769,235.89514,310.38806,233.00647,311.99524,228.06015L318.05115,209.42197C319.65833,204.47562,317.20569,199.12308,312.40991,197.11072L280.48853,183.716C278.33069,182.81052,275.85974,183.94275,275.1366,186.16837L263.60852,221.6481ZM302.36621,245.99225C300.90979,246.22925,299.57642,245.15247,299.43652,243.68353C299.3147,242.40475,300.11023,241.24149,301.32776,240.83173Q307.58325,238.72638,310.51221,235.15021Q313.91296,230.99786,315.18787,225.49554L317.39905,218.69028L319.74475,211.47125Q321.94751,206.27042,321.63684,200.91217Q321.36926,196.29736,317.5459,190.91721C316.80188,189.87012,316.84192,188.46136,317.69214,187.49841C318.66882,186.39227,320.38037,186.30484,321.41931,187.35266Q327.54114,193.52655,329.21338,199.69382Q331.13831,206.79285,329.02332,214.48605L324.46655,228.51035Q321.65564,235.97745,315.92566,240.58926Q310.94775,244.59576,302.36621,245.99225ZM30.758667,197.51779C23.304321,199.57126,16.904663,199.94101,16.4646,198.34366C16.024536,196.74631,21.710815,193.78671,29.165161,191.73325C36.619507,189.67978,43.019043,189.31003,43.459106,190.90738C43.89917,192.50473,38.213013,195.46429,30.758667,197.51779ZM67.261841,233.77075C69.496948,233.07733,70.661987,230.6217,69.785278,228.45197L55.810425,193.86279C54.933716,191.69305,52.389893,190.73596,50.300415,191.78973L19.391113,207.37854C14.747437,209.72055,12.674072,215.23114,14.622437,220.05331L21.963745,238.22366C23.911987,243.04584,29.231323,245.56958,34.19873,244.0285L67.261841,233.77075ZM32.820068,255.4404C34.289551,255.57526,35.544556,254.40808,35.581665,252.93295C35.614014,251.6488,34.739136,250.54385,33.496094,250.22003Q27.108887,248.55618,23.937622,245.19302Q20.255493,241.28802,18.599854,235.88806L15.919312,229.2536L13.075928,222.21576Q10.515747,217.18124,10.451782,211.81439Q10.396729,207.1922,13.835571,201.55841C14.504761,200.46198,14.366455,199.05945,13.451172,198.15814C12.39978,197.12283,10.686279,197.15503,9.7229004,198.27277Q4.0466309,204.85864,2.8087158,211.12753Q1.383667,218.34354,4.0301514,225.87045L9.5541992,239.54276Q12.879028,246.79556,18.916748,250.99643Q24.161987,254.64594,32.820068,255.4404ZM296.62927,243.50647C297.31897,242,292.17896,238.16965,285.14868,234.95114C278.11841,231.73267,271.86011,230.34482,271.17041,231.85129C270.48071,233.35779,275.62085,237.18814,282.65112,240.40665C289.6814,243.62512,295.93958,245.01297,296.62927,243.50647ZM38.369629,252.56052C37.576538,251.1058,42.43689,246.92621,49.225586,243.22516C56.01416,239.52411,62.1604,237.70309,62.953491,239.15781C63.746582,240.61252,58.88623,244.79208,52.097534,248.49313C45.30896,252.19421,39.16272,254.01523,38.369629,252.56052ZM250.24048,249.10861C249.02698,247.1077,246.36243,246.57132,244.46924,247.94681L214.28833,269.87451C212.39514,271.25,212.08191,273.94986,213.60986,275.72232L236.21326,301.94223C239.60913,305.88141,245.45764,306.56,249.66516,303.50299L265.51978,291.98395C269.72742,288.92694,270.88928,283.15503,268.19226,278.7081L250.24048,249.10861ZM119.62305,277.39603C121.08826,275.57132,120.68091,272.88403,118.74084,271.57544L87.81311,250.71439C85.873047,249.40579,83.228882,250.03485,82.085938,252.0769L65.178101,282.28485C62.637939,286.82321,64.000488,292.55106,68.312256,295.45935L84.559204,306.41806C88.870972,309.32635,94.692139,308.44409,97.948486,304.38876L119.62305,277.39603ZM275.46191,272.59683C274.24231,273.71829,269.01099,270.01343,263.77759,264.32181C258.54407,258.63019,255.29028,253.10706,256.50989,251.98563C257.72949,250.86417,262.96082,254.56903,268.19421,260.26065C273.42773,265.95227,276.68152,271.4754,275.46191,272.59683ZM57.699707,276.43103C58.957764,277.50925,64.056519,273.62405,69.088135,267.75327C74.119751,261.88248,77.178833,256.24915,75.920776,255.17096C74.66272,254.09274,69.563965,257.97794,64.532349,263.84872C59.500732,269.71954,56.44165,275.35281,57.699707,276.43103ZM279.59875,277.28488C279.37402,275.82648,277.93799,274.89114,276.49768,275.21198C275.24377,275.4913,274.3833,276.60742,274.36987,277.89191Q274.30066,284.49188,271.80457,288.38257Q268.90637,292.90005,264.06738,295.81287L258.27844,300.01877L252.13757,304.48038Q247.87195,308.18246,242.67993,309.54285Q238.20837,310.71445,231.91003,308.74078C230.6842,308.35669,229.35681,308.83014,228.70374,309.93631C227.95349,311.20697,228.39929,312.86179,229.71692,313.52612Q237.48035,317.44046,243.86255,317.12506Q251.20898,316.76202,257.87207,312.37323L269.80188,303.70572Q276.03479,298.72495,278.65027,291.85031Q280.92249,285.87796,279.59875,277.28488ZM103.18701,314.62051C104.48059,313.91058,104.86841,312.24121,104.07422,310.9975C103.38293,309.91483,102.03979,309.48795,100.82825,309.91461Q94.602539,312.10687,90.092773,311.09204Q84.856567,309.9137,80.464355,306.36273L74.532104,302.36142L68.239258,298.11685Q63.301514,295.37469,60.247437,290.96109Q57.617188,287.15988,57.317627,280.56635C57.259277,279.28311,56.360352,278.19772,55.097534,277.96234C53.646973,277.69196,52.244385,278.67682,52.070801,280.14218Q51.047729,288.77625,53.526978,294.66565Q56.380737,301.44482,62.783813,306.20502L75.008789,314.4509Q81.821045,318.60449,89.175537,318.71094Q95.564819,318.80341,103.18701,314.62051ZM142.15027,284.33218C141.95593,282.00009,143.79639,280,146.13647,280L183.44214,280C185.78223,280,187.62268,282.00009,187.42834,284.33218L184.55347,318.83044C184.12158,324.01337,179.78882,328,174.58801,328L154.9906,328C149.78979,328,145.45703,324.01337,145.02515,318.83044L142.15027,284.33218ZM228.15466,306.96747C229.59814,306.15408,227.69116,300.034,223.89539,293.29788C220.09949,286.5618,215.85217,281.76047,214.40881,282.57385C212.96533,283.38724,214.87231,289.50732,218.66809,296.24344C222.46399,302.97952,226.7113,307.78085,228.15466,306.96747ZM106.17737,309.1297C104.70642,308.36716,106.39868,302.1843,109.95715,295.31979C113.51562,288.45532,117.59265,283.5087,119.0636,284.27121C120.53455,285.03372,118.84241,291.21664,115.28394,298.08112C111.72546,304.94562,107.64832,309.89221,106.17737,309.1297ZM135.55188,318.15924C137.19775,318.34964,139.25232,312.2775,140.14087,304.59674C141.0293,296.91595,140.41528,290.53513,138.76941,290.34473C137.12354,290.15433,135.06909,296.22647,134.18054,303.90726C133.29199,311.58801,133.90601,317.96884,135.55188,318.15924ZM194.02673,318.15924C192.38086,318.34964,190.32629,312.2775,189.43774,304.59674C188.54932,296.91595,189.16333,290.53513,190.8092,290.34473C192.45508,290.15433,194.50952,296.22647,195.39807,303.90726C196.28662,311.58801,195.67261,317.96884,194.02673,318.15924ZM134.96069,324.38354C134.28516,323.07162,134.89722,321.47083,136.2511,320.88379C137.42957,320.37277,138.78174,320.76996,139.54773,321.80121Q143.48303,327.10001,147.78931,328.78049Q152.78931,330.73172,158.41626,330.2439L173.16235,330.2439Q178.78931,330.73172,183.78931,328.78049Q188.09558,327.10001,192.03088,321.80121C192.79688,320.76996,194.14905,320.37277,195.32751,320.88379C196.6814,321.47083,197.29346,323.07162,196.61792,324.38354Q192.63794,332.11356,187.28931,335.60974Q181.13257,339.63416,173.16235,340L158.41626,340Q150.44604,339.63416,144.28931,335.60974Q138.94067,332.11356,134.96069,324.38354Z" fill-rule="evenodd" fill="currentColor" fill-opacity="1"/></svg>