<svg xmlns="http://www.w3.org/2000/svg" xmlns:xlink="http://www.w3.org/1999/xlink" fill="none" version="1.1" width="340" height="340" viewBox="0 0 340 340"><path d="M66.388916,15.616455C65.713379,16.928345,66.325439,18.529175,67.679321,19.116211C68.857788,19.627197,70.209961,19.230042,70.975952,18.198792Q74.911255,12.900024,79.217529,11.219482Q84.217529,9.2683105,89.844482,9.7561035L104.59058,9.7561035Q110.21753,9.2683105,115.21753,11.219482Q119.5238,12.900024,123.45911,18.198792C124.2251,19.230042,125.57727,19.627197,126.75574,19.116211C128.10962,18.529175,128.72168,16.928345,128.04614,15.616455Q124.06616,7.8864136,118.71753,4.3902588Q112.56079,0.36584473,104.59058,0L89.844482,0Q81.874268,0.36584473,75.717529,4.3902588Q70.368896,7.8864136,66.388916,15.616455ZM140.38892,15.616455C139.71338,16.928345,140.32544,18.529175,141.67932,19.116211C142.85779,19.627197,144.20996,19.230042,144.97595,18.198792Q148.91125,12.900024,153.21753,11.219482Q158.21753,9.2683105,163.84448,9.7561035L178.59058,9.7561035Q184.21753,9.2683105,189.21753,11.219482Q193.5238,12.900024,197.45911,18.198792C198.2251,19.230042,199.57727,19.627197,200.75574,19.116211C202.10962,18.529175,202.72168,16.928345,202.04614,15.616455Q198.06616,7.8864136,192.71753,4.3902588Q186.56079,0.36584473,178.59058,0L163.84448,0Q155.87427,0.36584473,149.71753,4.3902588Q144.3689,7.8864136,140.38892,15.616455ZM214.38892,15.616455C213.71338,16.928345,214.32544,18.529175,215.67932,19.116211C216.85779,19.627197,218.20996,19.230042,218.97595,18.198792Q222.91125,12.900024,227.21753,11.219482Q232.21753,9.2683105,237.84448,9.7561035L252.59058,9.7561035Q258.21753,9.2683105,263.21753,11.219482Q267.5238,12.900024,271.45911,18.198792C272.2251,19.230042,273.57727,19.627197,274.75574,19.116211C276.10962,18.529175,276.72168,16.928345,276.04614,15.616455Q272.06616,7.8864136,266.71753,4.3902588Q260.56079,0.36584473,252.59058,0L237.84448,0Q229.87427,0.36584473,223.71753,4.3902588Q218.3689,7.8864136,214.38892,15.616455ZM73.578491,55.667847C73.384155,57.999878,75.224609,60,77.564697,60L114.87036,60C117.21045,60,119.0509,57.999878,118.85657,55.667847L115.98169,21.169556C115.5498,15.986633,111.21704,12,106.01624,12L86.418823,12C81.218018,12,76.885254,15.986633,76.453369,21.169556L73.578491,55.667847ZM147.57849,55.667847C147.38416,57.999878,149.22461,60,151.5647,60L188.87036,60C191.21045,60,193.0509,57.999878,192.85657,55.667847L189.98169,21.169556C189.5498,15.986633,185.21704,12,180.01624,12L160.41882,12C155.21802,12,150.88525,15.986633,150.45337,21.169556L147.57849,55.667847ZM221.57849,55.667847C221.38416,57.999878,223.22461,60,225.5647,60L262.87036,60C265.21045,60,267.0509,57.999878,266.85657,55.667847L263.98169,21.169556C263.5498,15.986633,259.21704,12,254.01624,12L234.41882,12C229.21802,12,224.88525,15.986633,224.45337,21.169556L221.57849,55.667847ZM71.569092,35.403259C70.680542,27.722473,68.626099,21.650391,66.980103,21.840759C65.334229,22.031128,64.720215,28.411987,65.608765,36.092712C66.497314,43.773499,68.551758,49.845642,70.197632,49.655273C71.843506,49.464905,72.45752,43.084045,71.569092,35.403259ZM125.45496,21.840759C123.80896,21.650391,121.75452,27.722473,120.86597,35.403259C119.97754,43.084045,120.59155,49.464905,122.23743,49.655273C123.8833,49.845642,125.93774,43.773499,126.82629,36.092712C127.71484,28.411987,127.10083,22.031128,125.45496,21.840759ZM140.9801,21.840759C142.6261,21.650391,144.68054,27.722473,145.56909,35.403259C146.45752,43.084045,145.84351,49.464905,144.19763,49.655273C142.55176,49.845642,140.49731,43.773499,139.60876,36.092712C138.72021,28.411987,139.33423,22.031128,140.9801,21.840759ZM199.45496,21.840759C197.80896,21.650391,195.75452,27.722473,194.86597,35.403259C193.97754,43.084045,194.59155,49.464905,196.23743,49.655273C197.8833,49.845642,199.93774,43.773499,200.82629,36.092712C201.71484,28.411987,201.10083,22.031128,199.45496,21.840759ZM214.9801,21.840759C216.6261,21.650391,218.68054,27.722473,219.56909,35.403259C220.45752,43.084045,219.84351,49.464905,218.19763,49.655273C216.55176,49.845642,214.49731,43.773499,213.60876,36.092712C212.72021,28.411987,213.33423,22.031128,214.9801,21.840759ZM268.86597,35.403259C269.75452,27.722473,271.80896,21.650391,273.45496,21.840759C275.10083,22.031128,275.71484,28.411987,274.82629,36.092712C273.93774,43.773499,271.8833,49.845642,270.23743,49.655273C268.59155,49.464905,267.97754,43.084045,268.86597,35.403259ZM78,270C73.581665,270,70,266.41827,70,262L70,78C70,73.581726,73.581665,70,78,70L262,70C266.41821,70,270,73.581726,270,78L270,262C270,266.41827,266.41821,270,262,270L78,270ZM35.40332,99.569031C27.722534,98.680542,21.650269,96.626038,21.840698,94.980164C22.031128,93.33429,28.411987,92.720276,36.092773,93.608765C43.77356,94.497253,49.845703,96.551758,49.655273,98.197632C49.464844,99.843506,43.084106,100.45752,35.40332,99.569031ZM304.59668,99.569031C312.27747,98.680542,318.34973,96.626038,318.1593,94.980164C317.96887,93.33429,311.58801,92.720276,303.90723,93.608765C296.22644,94.497253,290.1543,96.551758,290.34473,98.197632C290.53516,99.843506,296.91589,100.45752,304.59668,99.569031ZM15.616455,94.388855C16.928345,93.713379,18.529175,94.325439,19.116211,95.67926C19.627197,96.857788,19.230103,98.210022,18.19873,98.975891Q12.900024,102.91125,11.219482,107.21753Q9.2683105,112.21753,9.7561035,117.84448L9.7561035,132.59058Q9.2683105,138.21753,11.219482,143.21753Q12.900024,147.5238,18.19873,151.45917C19.230103,152.22504,19.627197,153.57727,19.116211,154.7558C18.529175,156.10962,16.928345,156.72168,15.616455,156.0462Q7.8864746,152.06622,4.3902588,146.71753Q0.36584473,140.56079,0,132.59058L0,117.84448Q0.36584473,109.87427,4.3902588,103.71753Q7.8864746,98.368835,15.616455,94.388855ZM324.38354,94.388855C323.07166,93.713379,321.47083,94.325439,320.88379,95.67926C320.3728,96.857788,320.7699,98.210022,321.80127,98.975891Q327.09998,102.91125,328.78052,107.21753Q330.73169,112.21753,330.2439,117.84448L330.2439,132.59058Q330.73169,138.21753,328.78052,143.21753Q327.09998,147.5238,321.80127,151.45917C320.7699,152.22504,320.3728,153.57727,320.88379,154.7558C321.47083,156.10962,323.07166,156.72168,324.38354,156.0462Q332.11353,152.06622,335.60974,146.71753Q339.63416,140.56079,340,132.59058L340,117.84448Q339.63416,109.87427,335.60974,103.71753Q332.11353,98.368835,324.38354,94.388855ZM60,105.5647C60,103.22455,57.999878,101.38422,55.667847,101.57855L21.169556,104.45343C15.986572,104.88531,12,109.21796,12,114.41888L12,134.01617C12,139.2171,15.986572,143.54974,21.169556,143.98169L55.667847,146.85651C57.999878,147.05084,60,145.21051,60,142.87036L60,105.5647ZM284.33215,101.57855C282.00012,101.38422,280,103.22455,280,105.5647L280,142.87036C280,145.21051,282.00012,147.05084,284.33215,146.85651L318.83044,143.98169C324.01343,143.54974,328,139.2171,328,134.01617L328,114.41888C328,109.21796,324.01343,104.88531,318.83044,104.45343L284.33215,101.57855ZM35.40332,148.86603C27.722534,149.75452,21.650269,151.80902,21.840698,153.4549C22.031128,155.10077,28.411987,155.71478,36.092773,154.82629C43.77356,153.93781,49.845703,151.8833,49.655273,150.23743C49.464844,148.59155,43.084106,147.97754,35.40332,148.86603ZM304.59668,148.86603C312.27747,149.75452,318.34973,151.80902,318.1593,153.4549C317.96887,155.10077,311.58801,155.71478,303.90723,154.82629C296.22644,153.93781,290.1543,151.8833,290.34473,150.23743C290.53516,148.59155,296.91589,147.97754,304.59668,148.86603ZM35.40332,173.56879C27.722534,172.6803,21.650269,170.62579,21.840698,168.97992C22.031128,167.33405,28.411987,166.72003,36.092773,167.60852C43.77356,168.49701,49.845703,170.55151,49.655273,172.19739C49.464844,173.84326,43.084106,174.45728,35.40332,173.56879ZM304.59668,173.56879C312.27747,172.6803,318.34973,170.62579,318.1593,168.97992C317.96887,167.33405,311.58801,166.72003,303.90723,167.60852C296.22644,168.49701,290.1543,170.55151,290.34473,172.19739C290.53516,173.84326,296.91589,174.45728,304.59668,173.56879ZM15.616455,168.38861C16.928345,167.71313,18.529175,168.3252,19.116211,169.67902C19.627197,170.85754,19.230103,172.20978,18.19873,172.97565Q12.900024,176.91101,11.219482,181.21729Q9.2683105,186.21729,9.7561035,191.84424L9.7561035,206.59033Q9.2683105,212.21729,11.219482,217.21729Q12.900024,221.52356,18.19873,225.45892C19.230103,226.22479,19.627197,227.57703,19.116211,228.75555C18.529175,230.10938,16.928345,230.72144,15.616455,230.04596Q7.8864746,226.06598,4.3902588,220.71729Q0.36584473,214.56055,0,206.59033L0,191.84424Q0.36584473,183.87402,4.3902588,177.71729Q7.8864746,172.36859,15.616455,168.38861ZM324.38354,168.38861C323.07166,167.71313,321.47083,168.3252,320.88379,169.67902C320.3728,170.85754,320.7699,172.20978,321.80127,172.97565Q327.09998,176.91101,328.78052,181.21729Q330.73169,186.21729,330.2439,191.84424L330.2439,206.59033Q330.73169,212.21729,328.78052,217.21729Q327.09998,221.52356,321.80127,225.45892C320.7699,226.22479,320.3728,227.57703,320.88379,228.75555C321.47083,230.10938,323.07166,230.72144,324.38354,230.04596Q332.11353,226.06598,335.60974,220.71729Q339.63416,214.56055,340,206.59033L340,191.84424Q339.63416,183.87402,335.60974,177.71729Q332.11353,172.36859,324.38354,168.38861ZM60,179.56445C60,177.2243,57.999878,175.38397,55.667847,175.57831L21.169556,178.45319C15.986572,178.88507,12,183.21771,12,188.41864L12,208.01593C12,213.21686,15.986572,217.5495,21.169556,217.98145L55.667847,220.85626C57.999878,221.0506,60,219.21027,60,216.87012L60,179.56445ZM280,179.56445C280,177.2243,282.00012,175.38397,284.33215,175.57831L318.83044,178.45319C324.01343,178.88507,328,183.21771,328,188.41864L328,208.01593C328,213.21686,324.01343,217.5495,318.83044,217.98145L284.33215,220.85626C282.00012,221.0506,280,219.21027,280,216.87012L280,179.56445ZM35.40332,222.86578C27.722534,223.75427,21.650269,225.80878,21.840698,227.45465C22.031128,229.10052,28.411987,229.71454,36.092773,228.82605C43.77356,227.93756,49.845703,225.88306,49.655273,224.23718C49.464844,222.59131,43.084106,221.97729,35.40332,222.86578ZM304.59668,222.86578C312.27747,223.75427,318.34973,225.80878,318.1593,227.45465C317.96887,229.10052,311.58801,229.71454,303.90723,228.82605C296.22644,227.93756,290.1543,225.88306,290.34473,224.23718C290.53516,222.59131,296.91589,221.97729,304.59668,222.86578ZM73.578491,284.33215C73.384155,282.00012,75.224609,280,77.564697,280L114.87036,280C117.21045,280,119.0509,282.00012,118.85657,284.33215L115.98169,318.83044C115.5498,324.01337,111.21704,328,106.01624,328L86.418823,328C81.218018,328,76.885254,324.01337,76.453369,318.83044L73.578491,284.33215ZM147.57849,284.33215C147.38416,282.00012,149.22461,280,151.5647,280L188.87036,280C191.21045,280,193.0509,282.00012,192.85657,284.33215L189.98169,318.83044C189.5498,324.01337,185.21704,328,180.01624,328L160.41882,328C155.21802,328,150.88525,324.01337,150.45337,318.83044L147.57849,284.33215ZM221.57849,284.33215C221.38416,282.00012,223.22461,280,225.5647,280L262.87036,280C265.21045,280,267.0509,282.00012,266.85657,284.33215L263.98169,318.83044C263.5498,324.01337,259.21704,328,254.01624,328L234.41882,328C229.21802,328,224.88525,324.01337,224.45337,318.83044L221.57849,284.33215ZM71.569092,304.59674C70.680542,312.27753,68.626099,318.34961,66.980103,318.15924C65.334229,317.96887,64.720215,311.58801,65.608765,303.90729C66.497314,296.2265,68.551758,290.15436,70.197632,290.34473C71.843506,290.5351,72.45752,296.91595,71.569092,304.59674ZM125.45496,318.15924C123.80896,318.34961,121.75452,312.27753,120.86597,304.59674C119.97754,296.91595,120.59155,290.5351,122.23743,290.34473C123.8833,290.15436,125.93774,296.2265,126.82629,303.90729C127.71484,311.58801,127.10083,317.96887,125.45496,318.15924ZM140.9801,318.15924C142.6261,318.34961,144.68054,312.27753,145.56909,304.59674C146.45752,296.91595,145.84351,290.5351,144.19763,290.34473C142.55176,290.15436,140.49731,296.2265,139.60876,303.90729C138.72021,311.58801,139.33423,317.96887,140.9801,318.15924ZM199.45496,318.15924C197.80896,318.34961,195.75452,312.27753,194.86597,304.59674C193.97754,296.91595,194.59155,290.5351,196.23743,290.34473C197.8833,290.15436,199.93774,296.2265,200.82629,303.90729C201.71484,311.58801,201.10083,317.96887,199.45496,318.15924ZM214.9801,318.15924C216.6261,318.34961,218.68054,312.27753,219.56909,304.59674C220.45752,296.91595,219.84351,290.5351,218.19763,290.34473C216.55176,290.15436,214.49731,296.2265,213.60876,303.90729C212.72021,311.58801,213.33423,317.96887,214.9801,318.15924ZM268.86597,304.59674C269.75452,312.27753,271.80896,318.34961,273.45496,318.15924C275.10083,317.96887,275.71484,311.58801,274.82629,303.90729C273.93774,296.2265,271.8833,290.15436,270.23743,290.34473C268.59155,290.5351,267.97754,296.91595,268.86597,304.59674ZM66.388916,324.38354C65.713379,323.07166,66.325439,321.47083,67.679321,320.88379C68.857788,320.3728,70.209961,320.76996,70.975952,321.80121Q74.911255,327.09998,79.217529,328.78052Q84.217529,330.73169,89.844482,330.2439L104.59058,330.2439Q110.21753,330.73169,115.21753,328.78052Q119.5238,327.09998,123.45911,321.80121C124.2251,320.76996,125.57727,320.3728,126.75574,320.88379C128.10962,321.47083,128.72168,323.07166,128.04614,324.38354Q124.06616,332.11359,118.71753,335.60974Q112.56079,339.63416,104.59058,340L89.844482,340Q81.874268,339.63416,75.717529,335.60974Q70.368896,332.11359,66.388916,324.38354ZM140.38892,324.38354C139.71338,323.07166,140.32544,321.47083,141.67932,320.88379C142.85779,320.3728,144.20996,320.76996,144.97595,321.80121Q148.91125,327.09998,153.21753,328.78052Q158.21753,330.73169,163.84448,330.2439L178.59058,330.2439Q184.21753,330.73169,189.21753,328.78052Q193.5238,327.09998,197.45911,321.80121C198.2251,320.76996,199.57727,320.3728,200.75574,320.88379C202.10962,321.47083,202.72168,323.07166,202.04614,324.38354Q198.06616,332.11359,192.71753,335.60974Q186.56079,339.63416,178.59058,340L163.84448,340Q155.87427,339.63416,149.71753,335.60974Q144.3689,332.11359,140.38892,324.38354ZM214.38892,324.38354C213.71338,323.07166,214.32544,321.47083,215.67932,320.88379C216.85779,320.3728,218.20996,320.76996,218.97595,321.80121Q222.91125,327.09998,227.21753,328.78052Q232.21753,330.73169,237.84448,330.2439L252.59058,330.2439Q258.21753,330.73169,263.21753,328.78052Q267.5238,327.09998,271.45911,321.80121C272.2251,320.76996,273.57727,320.3728,274.75574,320.88379C276.10962,321.47083,276.72168,323.07166,276.04614,324.38354Q272.06616,332.11359,266.71753,335.60974Q260.56079,339.63416,252.59058,340L237.84448,340Q229.87427,339.63416,223.71753,335.60974Q218.3689,332.11359,214.38892,324.38354Z" fill-rule="evenodd" fill="currentColor" fill-opacity="1"/></svg>