<svg xmlns="http://www.w3.org/2000/svg" xmlns:xlink="http://www.w3.org/1999/xlink" fill="none" version="1.1" width="340.0001220703125" height="340" viewBox="0 0 340.0001220703125 340"><path d="M140.17175,15.616455C139.49622,16.928368,140.10828,18.529182,141.46204,19.116196C142.64075,19.62722,143.9928,19.230042,144.75867,18.198792Q148.69421,12.900002,153.00037,11.219513Q158.00037,9.2682953,163.62732,9.7560959L170.78284,9.7561035L178.37341,9.7560959Q184.00037,9.2682953,189.00037,11.219513Q193.30652,12.900002,197.24207,18.198792C198.00793,19.230042,199.35999,19.62722,200.5387,19.116196C201.89246,18.529182,202.50452,16.928368,201.82898,15.616455Q197.849,7.8864365,192.50037,4.3902435Q186.34363,0.36585236,178.37341,0L163.62732,0Q155.6571,0.36585236,149.50037,4.3902435Q144.15173,7.8864365,140.17175,15.616455ZM147.36145,55.667824C147.16711,57.999901,149.00745,60.000008,151.34753,60.000008L188.6532,60.000008C190.99329,60.000008,192.83362,57.999901,192.63928,55.667824L189.76453,21.169548C189.33264,15.986626,184.99988,12.000008,179.79895,12.000008L160.20178,12.000008C155.00085,12.000008,150.66809,15.986626,150.23621,21.169548L147.36145,55.667824ZM118.6405,21.38559C119.88147,22.184006,120.15198,23.876381,119.27307,25.061653C118.50793,26.093483,117.13831,26.425621,115.95935,25.915474Q109.90173,23.294273,105.33215,23.992058Q100.02649,24.802254,95.397339,28.0382L89.200439,31.615944L82.626831,35.411201Q77.509766,37.802254,74.155273,41.992058Q71.266235,45.600517,70.507446,52.157097C70.359741,53.433144,69.387329,54.453209,68.111206,54.599922C66.645264,54.76844,65.314819,53.688133,65.243774,52.214241Q64.825562,43.529854,67.709595,37.827736Q71.029297,31.264137,77.748779,26.962181L90.519165,19.589165Q97.604614,15.920883,104.94861,16.327736Q111.32874,16.68119,118.6405,21.38559ZM220.72717,25.061653C219.84827,23.876381,220.11877,22.184006,221.35974,21.38559Q228.67151,16.68119,235.05164,16.327736Q242.39563,15.920883,249.48108,19.589165L262.25159,26.962181Q268.97107,31.264137,272.29065,37.827736Q275.17468,43.529854,274.75647,52.214241C274.68542,53.688133,273.3551,54.768456,271.88904,54.599922C270.61292,54.453209,269.6405,53.433144,269.4928,52.157097Q268.73401,45.600533,265.84485,41.992058Q262.49036,37.802254,257.37341,35.411217L250.79993,31.615944L244.60291,28.0382Q239.97375,24.802254,234.66809,23.992058Q230.09851,23.294273,224.04089,25.915474C222.86194,26.425621,221.49231,26.093483,220.72717,25.061653ZM140.76306,21.840752C142.40881,21.65036,144.46326,27.722511,145.35193,35.403282C146.24036,43.084084,145.62634,49.464882,143.98059,49.655281C142.33459,49.845665,140.28015,43.773506,139.39172,36.092751C138.50305,28.41201,139.11707,22.031143,140.76306,21.840752ZM199.23767,21.840752C197.59192,21.65036,195.53748,27.722511,194.6488,35.403282C193.76038,43.084084,194.37439,49.464882,196.02014,49.655281C197.66614,49.845665,199.72058,43.773506,200.60901,36.092751C201.49768,28.41201,200.88367,22.031143,199.23767,21.840752ZM131.15369,65.410789C133.18054,64.240715,133.77429,61.588387,132.43982,59.665916L112.70105,31.226967C109.73547,26.954384,103.99011,25.66819,99.485962,28.268639L82.51416,38.067314C78.01001,40.667747,76.251099,46.286598,78.468506,50.991096L93.227905,82.304909C94.225708,84.421715,96.819458,85.233665,98.846313,84.063591L131.15369,65.410789ZM207.56042,59.665916C206.22595,61.588387,206.8197,64.240715,208.84656,65.410789L241.15393,84.063591C243.18079,85.233665,245.77454,84.421715,246.77234,82.304909L261.53162,50.991096C263.74915,46.286598,261.99036,40.667747,257.48621,38.067314L240.51428,28.268639C236.01013,25.66819,230.26477,26.954384,227.29919,31.226967L207.56042,59.665916ZM124.04797,41.111565C120.97717,34.015556,119.72034,27.729683,121.24084,27.071632C122.76135,26.413567,126.48352,31.632545,129.55457,38.728523C132.62537,45.824532,133.8822,52.110405,132.36169,52.768456C130.84119,53.426506,127.11902,48.207542,124.04797,41.111565ZM218.7594,27.071632C220.27991,27.729683,219.02307,34.015556,215.95227,41.111565C212.88123,48.207542,209.15906,53.426521,207.63855,52.768456C206.11804,52.110405,207.37488,45.824532,210.44568,38.728523C213.51672,31.632545,217.23889,26.413567,218.7594,27.071632ZM269.40002,56.309029C268.06995,55.321205,263.25452,59.552589,258.64465,65.760078C254.03479,71.967613,251.37634,77.800529,252.70642,78.788368C254.0365,79.776192,258.85193,75.544792,263.46179,69.337303C268.07166,63.129768,270.7301,57.296852,269.40002,56.309029ZM81.355347,65.760078C76.745605,59.552605,71.930298,55.321205,70.600098,56.309029C69.269897,57.296837,71.928589,63.129845,76.538452,69.337303C81.148193,75.544777,85.963501,79.776192,87.293701,78.788368C88.623901,77.800545,85.96521,71.967552,81.355347,65.760078ZM51.214355,66.975731C52.688232,67.046715,53.768555,68.377174,53.599976,69.843117C53.453369,71.11927,52.433228,72.091713,51.157227,72.239388Q44.600586,72.998116,40.992188,75.887199Q36.802368,79.241722,34.411377,84.358727L30.833618,90.555565L27.03833,97.129173Q23.802368,101.75837,22.992188,107.06411Q22.294434,111.63367,24.915649,117.6912C25.425781,118.87012,25.093628,120.23975,24.061768,121.00489C22.876465,121.8838,21.184082,121.61346,20.385742,120.37252Q15.681274,113.06074,15.327881,106.68056Q14.921021,99.336464,18.589233,92.251122L25.96228,79.480675Q30.264282,72.761177,36.827881,69.441475Q42.530029,66.557487,51.214355,66.975731ZM286.40002,69.843239C286.23157,68.377296,287.31189,67.046837,288.78577,66.975853Q297.47009,66.55761,303.17224,69.441597Q309.73596,72.761299,314.03772,79.480797L321.41077,92.251244Q325.07922,99.336601,324.67224,106.68069Q324.31873,113.06087,319.61438,120.37264C318.81604,121.61358,317.12366,121.88393,315.93835,121.00501C314.90662,120.23988,314.57434,118.87025,315.08459,117.69132Q317.70569,111.6338,317.00793,107.06423Q316.19763,101.75849,312.96179,97.129295L309.16663,90.555687L305.58875,84.358849Q303.19788,79.241844,299.00793,75.887321Q295.39954,72.998238,288.8429,72.23951C287.56677,72.091835,286.54675,71.119392,286.40002,69.843239ZM270.00037,170.21759C270.00037,225.44608,225.22888,270.21759,170.00037,270.21759C114.77185,270.21759,70.000244,225.44608,70.000244,170.21759C70.000244,114.98911,114.77185,70.217598,170.00037,70.217598C225.22888,70.217598,270.00037,114.98911,270.00037,170.21759ZM56.30896,70.599937C55.321167,71.930122,59.55249,76.745445,65.76001,81.355293C71.967529,85.965157,77.800415,88.623817,78.78833,87.293633C79.776123,85.963448,75.5448,81.14814,69.33728,76.538292C63.129761,71.928459,57.296753,69.269768,56.30896,70.599937ZM283.69128,70.60006C284.67908,71.930244,280.44763,76.745567,274.24011,81.355415C268.03259,85.965248,262.19958,88.62394,261.21179,87.293755C260.224,85.963585,264.45544,81.148262,270.66296,76.538414C276.87048,71.928505,282.70325,69.269859,283.69128,70.60006ZM84.063721,98.846062C85.233765,96.81942,84.421875,94.225563,82.305054,93.227837L50.991211,78.468391C46.286743,76.250984,40.667847,78.009865,38.067383,82.513969L28.268799,99.485756C25.668335,103.98986,26.954468,109.73536,31.227051,112.70087L59.666016,132.4397C61.588501,133.77405,64.240845,133.1803,65.410889,131.15366L84.063721,98.846062ZM257.69519,93.227959C255.57825,94.225685,254.76624,96.819542,255.9364,98.846184L274.58923,131.15378C275.7594,133.18042,278.4115,133.77417,280.33411,132.43982L308.77307,112.701C313.04553,109.73548,314.33191,103.98998,311.73132,99.485878L301.93274,82.514091C299.33215,78.009987,293.7135,76.251106,289.00891,78.468513L257.69519,93.227959ZM27.071533,121.24058C27.729614,119.72001,34.015503,120.97681,41.111572,124.04775C48.20752,127.11868,53.426514,130.84082,52.768433,132.36139C52.110352,133.88196,45.824463,132.62515,38.728516,129.55423C31.632446,126.48325,26.413574,122.76116,27.071533,121.24058ZM312.92859,121.2407C312.27039,119.72012,305.9845,120.97691,298.88855,124.04787C291.7926,127.11877,286.57361,130.84097,287.23181,132.36151C287.88977,133.88208,294.17566,132.62524,301.27161,129.55435C308.36755,126.48338,313.58655,122.76128,312.92859,121.2407ZM21.840698,140.76254C21.650269,142.40842,27.722534,144.46292,35.40332,145.35141C43.084106,146.2399,49.464844,145.62592,49.655273,143.98004C49.845703,142.33417,43.77356,140.27966,36.092773,139.39117C28.411987,138.50269,22.031128,139.11667,21.840698,140.76254ZM318.1593,140.76254C318.34973,142.40842,312.27747,144.46292,304.5968,145.35141C296.91614,146.2399,290.53528,145.62592,290.34485,143.98004C290.15442,142.33417,296.22668,140.27966,303.90735,139.39117C311.58801,138.50269,317.96887,139.11667,318.1593,140.76254ZM15.616455,140.17126C16.928345,139.49579,18.529175,140.10785,19.116211,141.46164C19.627197,142.6402,19.230103,143.99237,18.19873,144.7583Q12.900024,148.69366,11.219482,152.99991Q9.2683105,157.99991,9.7561035,163.62689L9.7561035,178.37292Q9.2683105,183.99991,11.219482,188.99991Q12.900024,193.30615,18.19873,197.24152C19.230103,198.00745,19.627197,199.35962,19.116211,200.53818C18.529175,201.89197,16.928345,202.50403,15.616455,201.82855Q7.8864746,197.84857,4.3902588,192.49991Q0.36584473,186.34317,0,178.37292L0,163.62689Q0.36584473,155.65665,4.3902588,149.49991Q7.8864746,144.15125,15.616455,140.17126ZM320.88391,141.46164C321.47083,140.10785,323.07166,139.49579,324.38367,140.17126Q332.11365,144.15125,335.60999,149.49991Q339.63416,155.65665,340.00012,163.62689L340.00012,178.37292Q339.63416,186.34317,335.60999,192.49991Q332.11365,197.84857,324.38367,201.82855C323.07166,202.50403,321.47083,201.89197,320.88391,200.53818C320.37292,199.35962,320.77014,198.00745,321.80139,197.24152Q327.10022,193.30615,328.78064,188.99991Q330.73181,183.99991,330.24402,178.37292L330.24402,163.62689Q330.73181,157.99991,328.78064,152.99991Q327.10022,148.69366,321.80139,144.7583C320.77014,143.99237,320.37292,142.6402,320.88391,141.46164ZM55.667847,147.36093C57.999878,147.1666,60,149.00696,60,151.34711L60,188.65271C60,190.99286,57.999878,192.83322,55.667847,192.63889L21.169556,189.76404C15.986572,189.33212,12,184.99945,12,179.79858L12,160.20123C12,155.00034,15.986572,150.66769,21.169556,150.23578L55.667847,147.36093ZM284.3324,147.36093C282.00012,147.1666,280.00012,149.00696,280.00012,151.34711L280.00012,188.65271C280.00012,190.99286,282.00012,192.83322,284.3324,192.63889L318.83069,189.76404C324.01355,189.33212,328.00012,184.99945,328.00012,179.79858L328.00012,160.20123C328.00012,155.00034,324.01355,150.66769,318.83069,150.23578L284.3324,147.36093ZM21.840698,199.2373C21.650269,197.59143,27.722534,195.53693,35.40332,194.64844C43.084106,193.75995,49.464844,194.37393,49.655273,196.01981C49.845703,197.66568,43.77356,199.72018,36.092773,200.60867C28.411987,201.49716,22.031128,200.88318,21.840698,199.2373ZM318.1593,199.2373C318.34973,197.59143,312.27747,195.53693,304.5968,194.64844C296.91614,193.75995,290.53528,194.37393,290.34485,196.01981C290.15442,197.66568,296.22668,199.72018,303.90735,200.60867C311.58801,201.49716,317.96887,200.88318,318.1593,199.2373ZM280.33435,207.56C278.41199,206.22568,275.75964,206.81943,274.58948,208.84604L255.93665,241.15366C254.76648,243.1803,255.57849,245.77414,257.69543,246.77188L289.00916,261.53131C293.71375,263.74872,299.3324,261.98984,301.93298,257.48575L311.73157,240.51395C314.33215,236.00986,313.04578,230.26434,308.77332,227.29883L280.33435,207.56ZM65.410645,208.84616C64.240601,206.81955,61.588257,206.2258,59.665771,207.56012L31.226807,227.29895C26.954224,230.26447,25.668091,236.00998,28.268555,240.51407L38.067139,257.48587C40.667603,261.98996,46.286499,263.74884,50.990967,261.53143L82.30481,246.772C84.421631,245.77426,85.233521,243.18042,84.063477,241.15378L65.410645,208.84616ZM312.92859,218.75919C312.27039,220.27979,305.9845,219.02298,298.88855,215.952C291.7926,212.8811,286.57361,209.15891,287.23181,207.63837C287.88977,206.1178,294.17566,207.37466,301.27161,210.44556C308.36755,213.51651,313.58655,217.23859,312.92859,218.75919ZM27.071533,218.75931C27.729614,220.27988,34.015503,219.02307,41.111572,215.95212C48.20752,212.8812,53.426514,209.15906,52.768433,207.63849C52.110352,206.11792,45.824463,207.37473,38.728516,210.44568C31.632446,213.51663,26.413574,217.23871,27.071533,218.75931ZM314.9386,220.7269C316.1239,219.84799,317.81628,220.11835,318.61462,221.35925Q323.31897,228.67105,323.67249,235.05121Q324.07947,242.39532,320.41101,249.48068L313.03796,262.2511Q308.73621,268.97061,302.17249,272.29031Q296.47034,275.17432,287.78601,274.75604C286.31213,274.68509,285.23181,273.35461,285.40027,271.88867C285.547,270.61252,286.56702,269.64008,287.84314,269.4924Q294.39978,268.73367,298.00818,265.8446Q302.19812,262.49008,304.58899,257.37305L308.3844,250.79944L311.96204,244.60263Q315.19812,239.97342,316.00818,234.66766Q316.70593,230.09811,314.08484,224.04059C313.57458,222.86166,313.90686,221.49203,314.9386,220.7269ZM21.385498,221.35938C22.183838,220.11847,23.876221,219.84811,25.061523,220.72702C26.093384,221.49216,26.425537,222.86179,25.915405,224.04071Q23.294189,230.09824,23.991943,234.66779Q24.802124,239.97354,28.038086,244.60275L31.615845,250.79959L35.411133,257.3732Q37.802124,262.4902,41.991943,265.84473Q45.600342,268.7338,52.156982,269.49252C53.432983,269.6402,54.453125,270.61264,54.599731,271.88879C54.768311,273.35474,53.687988,274.68521,52.214111,274.7562Q43.529785,275.17444,37.827637,272.29044Q31.264038,268.97073,26.962036,262.25122L19.588989,249.4808Q15.920776,242.39545,16.327637,235.05133Q16.68103,228.67117,21.385498,221.35938ZM283.69104,269.39981C284.67908,268.06967,280.44763,263.25424,274.24011,258.64447C268.03259,254.03464,262.19958,251.37595,261.21179,252.70612C260.224,254.03632,264.45544,258.85162,270.66296,263.46149C276.87024,268.07129,282.70325,270.72998,283.69104,269.39981ZM56.30896,269.39993C55.321167,268.06976,59.55249,263.25446,65.76001,258.64459C71.967529,254.03473,77.800415,251.37607,78.78833,252.70624C79.776123,254.03644,75.5448,258.85175,69.33728,263.46161C63.129761,268.07144,57.296753,270.7301,56.30896,269.39993ZM246.77209,257.69504C245.77429,255.57825,243.18054,254.76627,241.15369,255.93634L208.84631,274.58914C206.81946,275.75925,206.22571,278.41156,207.56018,280.33401L227.29895,308.77298C230.26453,313.04556,236.00989,314.33176,240.51404,311.73129L257.48596,301.93262C261.99011,299.33218,263.7489,293.71335,261.53137,289.00885L246.77209,257.69504ZM98.846558,255.9364C96.819702,254.76633,94.225952,255.57831,93.228149,257.6951L78.46875,289.00891C76.251343,293.71341,78.010254,299.33224,82.514404,301.93271L99.486206,311.73138C103.99036,314.33182,109.73572,313.04562,112.70129,308.77304L132.44006,280.33408C133.77454,278.41162,133.18079,275.75931,131.15393,274.58923L98.846558,255.9364ZM269.40002,283.69098C268.06995,284.6788,263.25452,280.44742,258.64465,274.23993C254.03479,268.03238,251.37634,262.19946,252.70642,261.21164C254.0365,260.22382,258.85193,264.4552,263.46179,270.66269C268.07166,276.87024,270.7301,282.70316,269.40002,283.69098ZM81.355347,274.23996C76.745605,280.44742,71.930298,284.67883,70.600098,283.69101C69.269897,282.70319,71.928589,276.87018,76.538452,270.66272C81.148193,264.45526,85.963501,260.22385,87.293701,261.21167C88.623901,262.19949,85.96521,268.0325,81.355347,274.23996ZM147.36145,284.33218C147.16711,282.00009,149.00745,280,151.34753,280L188.6532,280C190.99329,280,192.83362,282.00009,192.63928,284.33218L189.76453,318.83044C189.33264,324.01337,184.99988,328,179.79895,328L160.20178,328C155.00085,328,150.66809,324.01337,150.23621,318.83044L147.36145,284.33218ZM273.02405,288.78574C272.95325,287.31183,271.62268,286.23154,270.15686,286.40005C268.88074,286.54678,267.90808,287.56683,267.76062,288.84286Q267.00183,295.39944,264.11267,299.00793Q260.75818,303.19772,255.64124,305.58878L249.44421,309.1665L242.87073,312.96179Q238.24158,316.19772,232.93567,317.0079Q228.36609,317.70569,222.30872,315.0845C221.12976,314.57437,219.76013,314.90649,218.995,315.93832C218.11609,317.1236,218.38635,318.81598,219.62732,319.61438Q226.93909,324.31879,233.31921,324.67224Q240.66345,325.0791,247.74866,321.4108L260.51917,314.03778Q267.23865,309.73584,270.55847,303.17224Q273.4425,297.47012,273.02405,288.78574ZM66.975952,288.78577C67.046997,287.31186,68.377441,286.23157,69.843384,286.40009C71.119507,286.54681,72.091919,287.56686,72.239624,288.8429Q72.998413,295.39948,75.887451,299.00797Q79.241943,303.19775,84.359009,305.58881L90.555786,309.16653L97.129517,312.96182Q101.75867,316.19775,107.06433,317.00797Q111.63391,317.70575,117.69153,315.08453C118.87048,314.5744,120.24011,314.90652,121.005,315.93835C121.88416,317.12363,121.61365,318.81601,120.37268,319.61441Q113.06091,324.31882,106.68079,324.67227Q99.336792,325.07913,92.251343,321.41083L79.480957,314.03781Q72.761475,309.73587,69.441772,303.17227Q66.557739,297.47015,66.975952,288.78577ZM218.7594,312.92834C220.27991,312.27026,219.02307,305.98444,215.95227,298.88843C212.88123,291.79242,209.15906,286.57346,207.63855,287.23151C206.11804,287.88959,207.37488,294.17542,210.44568,301.27145C213.51672,308.36743,217.23889,313.5864,218.7594,312.92834ZM121.24084,312.92838C119.72034,312.27032,120.97717,305.98447,124.04797,298.88846C127.11902,291.79245,130.84119,286.57349,132.36169,287.23154C133.8822,287.88962,132.62537,294.17545,129.55457,301.27148C126.48352,308.36746,122.76135,313.58643,121.24084,312.92838ZM140.76306,318.15924C142.40881,318.34964,144.46326,312.2775,145.35193,304.59674C146.24036,296.91592,145.62634,290.53513,143.98059,290.34473C142.33459,290.15433,140.28015,296.2265,139.39172,303.90726C138.50305,311.58798,139.11707,317.96884,140.76306,318.15924ZM199.23767,318.15924C197.59192,318.34964,195.53748,312.2775,194.6488,304.59674C193.76038,296.91592,194.37439,290.53513,196.02014,290.34473C197.66614,290.15433,199.72058,296.2265,200.60901,303.90726C201.49768,311.58798,200.88367,317.96884,199.23767,318.15924ZM140.17175,324.38354C139.49622,323.07162,140.10828,321.47083,141.46204,320.88379C142.64075,320.37277,143.9928,320.76996,144.75867,321.80121Q148.69421,327.10001,153.00037,328.78049Q158.00037,330.73172,163.62732,330.2439L178.37341,330.2439Q184.00037,330.73172,189.00037,328.78049Q193.30652,327.10001,197.24207,321.80121C198.00793,320.76996,199.35999,320.37277,200.5387,320.88379C201.89246,321.47083,202.50452,323.07162,201.82898,324.38354Q197.849,332.11356,192.50037,335.60974Q186.34363,339.63416,178.37341,340L163.62732,340Q155.6571,339.63416,149.50037,335.60974Q144.15173,332.11356,140.17175,324.38354Z" fill-rule="evenodd" fill="currentColor" fill-opacity="1"/></svg>