<svg xmlns="http://www.w3.org/2000/svg" xmlns:xlink="http://www.w3.org/1999/xlink" fill="none" version="1.1" width="340" height="340" viewBox="0 0 340 340"><path d="M140.1714,15.616457C139.49593,16.92837,140.10799,18.529184,141.46179,19.116201C142.64032,19.62722,143.99252,19.230045,144.75842,18.19879Q148.6938,12.900002,153.00006,11.219513Q158.00006,9.2682934,163.62704,9.7560978L170.78253,9.7561035L178.37308,9.7560978Q184.00005,9.2682934,189.00005,11.219511Q193.3063,12.9,197.24168,18.198786C198.00758,19.230042,199.35979,19.627218,200.53831,19.116198C201.89212,18.529181,202.50418,16.928368,201.8287,15.616453Q197.84872,7.8864317,192.50005,4.3902426Q186.34331,0.36585236,178.37308,0L163.62704,0Q155.6568,0.36585426,149.50006,4.3902445Q144.15138,7.8864346,140.1714,15.616457ZM147.36108,55.667824C147.16675,57.999901,149.00711,60.000008,151.34726,60.000008L188.65288,60.000008C190.99303,60.000008,192.83339,57.999901,192.63905,55.667824L189.76419,21.169546C189.33229,15.986624,184.99962,12.000002,179.79874,12.000006L160.20139,12.000006C155.00052,12.000006,150.66785,15.986628,150.23593,21.16955L147.36108,55.667824ZM145.35158,35.403282C144.46309,27.722509,142.40857,21.65036,140.7627,21.84075C139.11682,22.031139,138.50284,28.411974,139.39133,36.092743C140.27982,43.773514,142.33432,49.845665,143.98019,49.655273C145.62607,49.464882,146.24007,43.084053,145.35158,35.403282ZM194.64861,35.403282C195.53709,27.722509,197.5916,21.65036,199.23747,21.84075C200.88336,22.031139,201.49734,28.411974,200.60886,36.092743C199.72037,43.773514,197.66586,49.845665,196.01997,49.655273C194.3741,49.464882,193.76012,43.084053,194.64861,35.403282ZM270.00006,170.21759C270.00006,225.44608,225.22855,270.21759,170.00006,270.21759C114.77159,270.21759,70.000069,225.44608,70.000069,170.21759C70.000069,114.98912,114.77159,70.217598,170.00006,70.217598C225.22855,70.217598,270.00006,114.98912,270.00006,170.21759ZM21.840748,140.76248C21.65036,142.40836,27.722509,144.46286,35.403282,145.35135C43.084053,146.23984,49.464886,145.62585,49.655273,143.97998C49.845665,142.33409,43.773514,140.27959,36.092743,139.3911C28.411974,138.50261,22.031136,139.11659,21.840748,140.76248ZM304.59674,145.35141C312.27753,144.46292,318.34967,142.40842,318.1593,140.76254C317.96887,139.11665,311.58807,138.50267,303.90729,139.39116C296.2265,140.27965,290.15436,142.33415,290.34473,143.98004C290.53516,145.62592,296.91595,146.2399,304.59674,145.35141ZM15.616455,140.17117C16.928368,139.49571,18.529182,140.10776,19.116199,141.46156C19.62722,142.64011,19.230042,143.99231,18.198788,144.75821Q12.899998,148.69359,11.219513,152.99983Q9.2682915,157.99983,9.7560959,163.62682L9.7561035,170.78233L9.7560959,178.37286Q9.2682915,183.99985,11.219513,188.99985Q12.899998,193.30611,18.198788,197.24149C19.230042,198.00739,19.62722,199.35959,19.116199,200.53812C18.529182,201.89192,16.928368,202.50398,15.616455,201.82851Q7.8864326,197.84853,4.3902435,192.49985Q0.36585236,186.34311,0,178.37286L0,163.62682Q0.36585236,155.65659,4.3902435,149.49983Q7.8864326,144.15115,15.616455,140.17117ZM324.38354,140.17123C323.07166,139.49577,321.47083,140.10782,320.88385,141.46162C320.3728,142.64017,320.76996,143.99237,321.80121,144.75827Q327.10004,148.69365,328.78052,152.99989Q330.73175,157.99989,330.2439,163.62688L330.2439,178.37292Q330.73175,183.99991,328.78052,188.99991Q327.10004,193.30617,321.80121,197.24155C320.76996,198.00745,320.3728,199.35965,320.88385,200.53818C321.47083,201.89198,323.07166,202.50404,324.38354,201.82857Q332.11359,197.84859,335.6098,192.49991Q339.63416,186.34317,340,178.37292L340,163.62688Q339.63416,155.65665,335.6098,149.49989Q332.11359,144.15121,324.38354,140.17123ZM60.000008,151.34705C60.000008,149.00688,57.999901,147.16652,55.667824,147.36086L21.169548,150.23572C15.986626,150.66763,12,155.00029,12,160.20117L12,179.79852C12,184.9994,15.986626,189.33206,21.169548,189.76398L55.667824,192.63884C57.999901,192.83318,60.000008,190.99281,60.000008,188.65265L60.000008,151.34705ZM284.33221,147.36092C282.00012,147.16658,280,149.00694,280,151.34711L280,188.65271C280,190.99287,282.00012,192.83324,284.33221,192.6389L318.83044,189.76404C324.01337,189.33212,328,184.99947,328,179.79858L328,160.20123C328,155.00035,324.01337,150.66769,318.83044,150.23578L284.33221,147.36092ZM21.840748,199.23724C21.65036,197.59137,27.722509,195.53687,35.403282,194.64838C43.084053,193.75989,49.464886,194.37387,49.655273,196.01974C49.845665,197.66563,43.773514,199.72014,36.092743,200.60863C28.411974,201.49712,22.031136,200.88313,21.840748,199.23724ZM304.59674,194.64844C312.27753,195.53693,318.34967,197.59143,318.1593,199.2373C317.96887,200.88319,311.58807,201.49718,303.90729,200.60869C296.2265,199.7202,290.15436,197.6657,290.34473,196.01981C290.53516,194.37393,296.91595,193.75995,304.59674,194.64844ZM147.36108,284.33218C147.16675,282.00009,149.00711,280,151.34726,280L188.65288,280C190.99303,280,192.83339,282.00009,192.63905,284.33218L189.76421,318.83044C189.33229,324.01337,184.99963,328,179.79874,328L160.2014,328C155.00052,328,150.66785,324.01337,150.23593,318.83044L147.36108,284.33218ZM145.35158,304.59674C144.46309,312.2775,142.40857,318.34964,140.7627,318.15924C139.11682,317.96884,138.50284,311.58801,139.39133,303.90726C140.27982,296.22647,142.33432,290.15433,143.98019,290.34473C145.62607,290.53513,146.24007,296.91595,145.35158,304.59674ZM194.64861,304.59674C195.53709,312.2775,197.5916,318.34964,199.23747,318.15924C200.88335,317.96884,201.49734,311.58801,200.60886,303.90726C199.72037,296.22647,197.66586,290.15433,196.01997,290.34473C194.3741,290.53513,193.76012,296.91595,194.64861,304.59674ZM140.1714,324.38354C139.49593,323.07162,140.10799,321.47083,141.46179,320.88382C142.64032,320.37277,143.99252,320.76996,144.75842,321.80121Q148.6938,327.10001,153.00006,328.78049Q158.00006,330.73172,163.62704,330.2439L178.37308,330.2439Q184.00005,330.73172,189.00005,328.78049Q193.3063,327.10001,197.24168,321.80121C198.00758,320.76996,199.35979,320.37277,200.53831,320.88379C201.89212,321.47083,202.50418,323.07162,201.8287,324.38354Q197.84872,332.11356,192.50005,335.60977Q186.34331,339.63416,178.37308,340L163.62704,340Q155.6568,339.63416,149.50006,335.60977Q144.15138,332.11359,140.1714,324.38354Z" fill-rule="evenodd" fill="currentColor" fill-opacity="1"/></svg>