<svg xmlns="http://www.w3.org/2000/svg" xmlns:xlink="http://www.w3.org/1999/xlink" fill="none" version="1.1" width="520.0849609375" height="340" viewBox="0 0 520.0849609375 340"><path d="M83.919678,19.116211C82.565918,18.529175,81.953857,16.928345,82.629395,15.616455Q86.609375,7.8864746,91.958008,4.3902588Q98.114746,0.36584473,106.08496,0L120.83105,0Q128.80127,0.36584473,134.95801,4.3902588Q140.30664,7.8864746,144.28662,15.616455C144.96216,16.928345,144.3501,18.529175,142.99634,19.116211C141.81763,19.627197,140.46558,19.230103,139.69971,18.19873Q135.76416,12.900024,131.45801,11.219482Q126.45801,9.2683105,120.83105,9.7561035L106.08496,9.7561035Q100.45801,9.2683105,95.458008,11.219482Q91.151733,12.900024,87.216309,18.19873C86.450439,19.230103,85.098267,19.627197,83.919678,19.116211ZM182.53662,19.116211C181.18286,18.529175,180.5708,16.928345,181.24634,15.616455Q185.22632,7.8864746,190.57495,4.3902588Q196.73169,0.36584473,204.7019,0L219.448,0Q227.41821,0.36584473,233.57495,4.3902588Q238.92358,7.8864746,242.90356,15.616455C243.5791,16.928345,242.96704,18.529175,241.61328,19.116211C240.43457,19.627197,239.08252,19.230103,238.31665,18.19873Q234.3811,12.900024,230.07495,11.219482Q225.07495,9.2683105,219.448,9.7561035L204.7019,9.7561035Q199.07495,9.2683105,194.07495,11.219482Q189.7688,12.900024,185.83325,18.19873C185.06738,19.230103,183.71509,19.627197,182.53662,19.116211ZM280.53662,19.116211C279.18286,18.529175,278.5708,16.928345,279.24634,15.616455Q283.22632,7.8864746,288.57495,4.3902588Q294.73169,0.36584473,302.7019,0L317.448,0Q325.41821,0.36584473,331.57495,4.3902588Q336.92358,7.8864746,340.90356,15.616455C341.5791,16.928345,340.96704,18.529175,339.61328,19.116211C338.43457,19.627197,337.08252,19.230103,336.31665,18.19873Q332.3811,12.900024,328.07495,11.219482Q323.07495,9.2683105,317.448,9.7561035L302.7019,9.7561035Q297.07495,9.2683105,292.07495,11.219482Q287.7688,12.900024,283.83325,18.19873C283.06738,19.230103,281.71509,19.627197,280.53662,19.116211ZM379.53662,19.116211C378.18286,18.529175,377.5708,16.928345,378.24634,15.616455Q382.22632,7.8864746,387.57495,4.3902588Q393.73169,0.36584473,401.7019,0L416.448,0Q424.41821,0.36584473,430.57495,4.3902588Q435.92358,7.8864746,439.90356,15.616455C440.5791,16.928345,439.96704,18.529175,438.61328,19.116211C437.43457,19.627197,436.08252,19.230103,435.31665,18.19873Q431.3811,12.900024,427.07495,11.219482Q422.07495,9.2683105,416.448,9.7561035L401.7019,9.7561035Q396.07495,9.2683105,391.07495,11.219482Q386.7688,12.900024,382.83325,18.19873C382.06738,19.230103,380.71509,19.627197,379.53662,19.116211ZM89.81897,55.667847C89.624634,57.999878,91.465088,60,93.805176,60L131.11084,60C133.45093,60,135.29126,57.999878,135.09692,55.667847L132.22217,21.169556C131.79028,15.986572,127.45752,12,122.25659,12L102.65942,12C97.458496,12,93.125732,15.986572,92.693848,21.169556L89.81897,55.667847ZM188.43604,55.667847C188.2417,57.999878,190.08203,60,192.42212,60L229.72778,60C232.06787,60,233.9082,57.999878,233.71387,55.667847L230.83911,21.169556C230.40723,15.986572,226.07446,12,220.87354,12L201.27637,12C196.07544,12,191.74268,15.986572,191.31079,21.169556L188.43604,55.667847ZM286.43604,55.667847C286.2417,57.999878,288.08203,60,290.42212,60L327.72778,60C330.06787,60,331.9082,57.999878,331.71387,55.667847L328.83911,21.169556C328.40723,15.986572,324.07446,12,318.87354,12L299.27637,12C294.07544,12,289.74268,15.986572,289.31079,21.169556L286.43604,55.667847ZM385.43604,55.667847C385.2417,57.999878,387.08203,60,389.42212,60L426.72778,60C429.06787,60,430.9082,57.999878,430.71387,55.667847L427.83911,21.169556C427.40723,15.986572,423.07446,12,417.87354,12L398.27637,12C393.07544,12,388.74268,15.986572,388.31079,21.169556L385.43604,55.667847ZM87.80957,35.40332C86.921021,27.722534,84.866577,21.650269,83.220581,21.840698C81.574707,22.031128,80.960693,28.411987,81.849243,36.092773C82.737793,43.77356,84.792236,49.845703,86.43811,49.655273C88.083984,49.464844,88.697998,43.084106,87.80957,35.40332ZM137.10645,35.40332C137.99512,27.722534,140.04956,21.650269,141.69531,21.840698C143.34131,22.031128,143.95532,28.411987,143.06665,36.092773C142.17822,43.77356,140.12378,49.845703,138.47778,49.655273C136.83203,49.464844,136.21802,43.084106,137.10645,35.40332ZM186.42651,35.40332C185.53784,27.722534,183.4834,21.650269,181.83765,21.840698C180.19165,22.031128,179.57764,28.411987,180.46631,36.092773C181.35474,43.77356,183.40918,49.845703,185.05518,49.655273C186.70093,49.464844,187.31494,43.084106,186.42651,35.40332ZM240.31226,21.840698C238.6665,21.650269,236.61206,27.722534,235.72339,35.40332C234.83496,43.084106,235.44897,49.464844,237.09473,49.655273C238.74072,49.845703,240.79517,43.77356,241.68359,36.092773C242.57227,28.411987,241.95825,22.031128,240.31226,21.840698ZM279.83765,21.840698C281.4834,21.650269,283.53784,27.722534,284.42651,35.40332C285.31494,43.084106,284.70093,49.464844,283.05518,49.655273C281.40918,49.845703,279.35474,43.77356,278.46631,36.092773C277.57764,28.411987,278.19165,22.031128,279.83765,21.840698ZM338.31226,21.840698C336.6665,21.650269,334.61206,27.722534,333.72339,35.40332C332.83496,43.084106,333.44897,49.464844,335.09473,49.655273C336.74072,49.845703,338.79517,43.77356,339.68359,36.092773C340.57227,28.411987,339.95825,22.031128,338.31226,21.840698ZM378.83765,21.840698C380.4834,21.650269,382.53784,27.722534,383.42651,35.40332C384.31494,43.084106,383.70093,49.464844,382.05518,49.655273C380.40918,49.845703,378.35474,43.77356,377.46631,36.092773C376.57764,28.411987,377.19165,22.031128,378.83765,21.840698ZM432.72339,35.40332C433.61206,27.722534,435.6665,21.650269,437.31226,21.840698C438.95825,22.031128,439.57227,28.411987,438.68359,36.092773C437.79517,43.77356,435.74072,49.845703,434.09473,49.655273C432.44897,49.464844,431.83496,43.084106,432.72339,35.40332ZM78.240967,270C73.822632,270,70.240967,266.41821,70.240967,262L70.240967,78C70.240967,73.581665,73.822632,70,78.240967,70L442.24097,70C446.65918,70,450.24097,73.581665,450.24097,78L450.24097,262C450.24097,266.41821,446.65918,270,442.24097,270L78.240967,270ZM22.064819,83.110474C21.864624,84.755249,27.924316,86.845947,35.599609,87.780396C43.274902,88.714722,49.65918,88.138916,49.859375,86.494263C50.05957,84.849487,43.999878,82.758789,36.324707,81.824341C28.649414,80.889893,22.265015,81.465698,22.064819,83.110474ZM484.79175,87.71582C492.47754,86.873291,498.56201,84.855103,498.38135,83.20813C498.20068,81.561157,491.82373,80.909058,484.13794,81.751587C476.45215,82.594116,470.36768,84.612183,470.54834,86.259155C470.729,87.906128,477.10596,88.55835,484.79175,87.71582ZM19.336304,83.793213C18.757446,82.435913,17.160278,81.814331,15.84436,82.481934Q8.0908203,86.415649,4.5627441,91.743164Q0.50158691,97.875732,0.088134766,105.84351L0,120.58923Q0.31811523,128.5614,4.305542,134.74207Q7.7696533,140.11145,15.475708,144.13757C16.783569,144.8208,18.387939,144.21838,18.983032,142.86816C19.501099,141.69263,19.112061,140.33813,18.085449,139.56604Q12.810303,135.59912,11.15564,131.28296Q9.234375,126.27148,9.7557373,120.64746L9.8011475,113.05713L9.8439941,105.90186Q9.3897705,100.27209,11.37085,95.283936Q13.077026,90.987915,18.39917,87.084351C19.435059,86.324585,19.840332,84.974854,19.336304,83.793213ZM501.10181,83.923462C501.69678,82.573242,503.30127,81.970703,504.60913,82.654053Q512.31519,86.680176,515.7793,92.049561Q519.7666,98.230225,520.08496,106.20239L519.99658,120.948Q519.58325,128.91589,515.52197,135.04834Q511.9939,140.37598,504.24048,144.30957C502.92456,144.97729,501.32739,144.35559,500.74854,142.99829C500.24438,141.81677,500.64966,140.46704,501.68555,139.70728Q507.00781,135.80371,508.71387,131.50757Q510.69507,126.51941,510.24072,120.88965L510.28613,113.29932L510.3291,106.14404Q510.85034,100.52014,508.9292,95.508667Q507.27441,91.192383,501.99951,87.225464C500.97266,86.453491,500.58374,85.098877,501.10181,83.923462ZM464.51562,89.604126C462.18481,89.395752,460.17383,91.224121,460.15991,93.564209L459.93677,130.86877C459.92261,133.20886,461.91187,135.06116,464.24487,134.88074L498.75952,132.21228C503.94482,131.8114,507.95728,127.50269,507.98828,122.302L508.10547,102.7052C508.13672,97.504395,504.17603,93.148071,498.99585,92.685181L464.51562,89.604126ZM60.15979,93.922974C60.173828,91.582886,58.184692,89.730591,55.851562,89.911011L21.337036,92.579468C16.151733,92.980469,12.139282,97.289062,12.108154,102.48987L11.990967,122.08667C11.959839,127.28735,15.920532,131.6438,21.100708,132.10669L55.580811,135.18774C57.911621,135.396,59.922729,133.56763,59.936768,131.22754L60.15979,93.922974ZM484.49683,137.01135C492.17212,137.9458,498.23169,140.0365,498.03149,141.68127C497.8313,143.32605,491.44702,143.90186,483.77173,142.96741C476.09644,142.03296,470.03687,139.94226,470.23706,138.29749C470.43726,136.65283,476.82153,136.07703,484.49683,137.01135ZM21.715332,141.58362C21.53479,139.93665,27.619019,137.91846,35.304932,137.07593C42.990845,136.2334,49.367798,136.88562,49.54834,138.53259C49.728882,140.17957,43.644653,142.19763,35.95874,143.04016C28.272827,143.88269,21.895874,143.23059,21.715332,141.58362ZM35.599609,202.7804C27.924316,201.84595,21.864624,199.75525,22.064819,198.11047C22.265015,196.4657,28.649414,195.88989,36.324707,196.82434C43.999878,197.75879,50.05957,199.84949,49.859375,201.49426C49.65918,203.13892,43.274902,203.71472,35.599609,202.7804ZM484.79175,202.71582C492.47754,201.87329,498.56201,199.8551,498.38135,198.20813C498.20068,196.56116,491.82373,195.90906,484.13794,196.75159C476.45215,197.59412,470.36768,199.61218,470.54834,201.25916C470.729,202.90613,477.10596,203.55835,484.79175,202.71582ZM19.336304,198.79321C18.757446,197.43591,17.160278,196.81433,15.84436,197.48193Q8.0908203,201.41565,4.5627441,206.74316Q0.50158691,212.87573,0.088134766,220.84351L0,235.58923Q0.31811523,243.5614,4.305542,249.74207Q7.7696533,255.11145,15.475708,259.13757C16.783569,259.8208,18.387939,259.21838,18.983032,257.86816C19.501099,256.69263,19.112061,255.33813,18.085449,254.56604Q12.810303,250.59912,11.15564,246.28296Q9.234375,241.27148,9.7557373,235.64746L9.8011475,228.05713L9.8439941,220.90186Q9.3897705,215.27209,11.37085,210.28394Q13.077026,205.98792,18.39917,202.08435C19.435059,201.32458,19.840332,199.97485,19.336304,198.79321ZM501.10181,198.92346C501.69678,197.57324,503.30127,196.9707,504.60913,197.65405Q512.31519,201.68018,515.7793,207.04956Q519.7666,213.23022,520.08496,221.20239L519.99658,235.948Q519.58325,243.91589,515.52197,250.04834Q511.9939,255.37598,504.24048,259.30957C502.92456,259.97729,501.32739,259.35559,500.74854,257.99829C500.24438,256.81677,500.64966,255.46704,501.68555,254.70728Q507.00781,250.80371,508.71387,246.50757Q510.69507,241.51941,510.24072,235.88965L510.28613,228.29932L510.3291,221.14404Q510.85034,215.52014,508.9292,210.50867Q507.27441,206.19238,501.99951,202.22546C500.97266,201.45349,500.58374,200.09888,501.10181,198.92346ZM464.51562,204.60413C462.18481,204.39575,460.17383,206.22412,460.15991,208.56421L459.93677,245.86877C459.92261,248.20886,461.91187,250.06116,464.24487,249.88074L498.75952,247.21228C503.94482,246.8114,507.95728,242.50269,507.98828,237.302L508.10547,217.7052C508.13672,212.50439,504.17603,208.14807,498.99585,207.68518L464.51562,204.60413ZM60.15979,208.92297C60.173828,206.58289,58.184692,204.73059,55.851562,204.91101L21.337036,207.57947C16.151733,207.98047,12.139282,212.28906,12.108154,217.48987L11.990967,237.08667C11.959839,242.28735,15.920532,246.6438,21.100708,247.10669L55.580811,250.18774C57.911621,250.396,59.922729,248.56763,59.936768,246.22754L60.15979,208.92297ZM484.49683,252.01135C492.17212,252.9458,498.23169,255.0365,498.03149,256.68127C497.8313,258.32605,491.44702,258.90186,483.77173,257.96741C476.09644,257.03296,470.03687,254.94226,470.23706,253.29749C470.43726,251.65283,476.82153,251.07703,484.49683,252.01135ZM35.304932,252.07593C27.619019,252.91846,21.53479,254.93665,21.715332,256.58362C21.895874,258.23059,28.272827,258.88269,35.95874,258.04016C43.644653,257.19763,49.728882,255.17957,49.54834,253.53259C49.367798,251.88562,42.990845,251.2334,35.304932,252.07593ZM89.81897,284.33215C89.624634,282.00012,91.465088,280,93.805176,280L131.11084,280C133.45093,280,135.29126,282.00012,135.09692,284.33215L132.22217,318.83044C131.79028,324.01343,127.45752,328,122.25659,328L102.65942,328C97.458496,328,93.125732,324.01343,92.693848,318.83044L89.81897,284.33215ZM188.43604,284.33215C188.2417,282.00012,190.08203,280,192.42212,280L229.72778,280C232.06787,280,233.9082,282.00012,233.71387,284.33215L230.83911,318.83044C230.40723,324.01343,226.07446,328,220.87354,328L201.27637,328C196.07544,328,191.74268,324.01343,191.31079,318.83044L188.43604,284.33215ZM286.43604,284.33215C286.2417,282.00012,288.08203,280,290.42212,280L327.72778,280C330.06787,280,331.9082,282.00012,331.71387,284.33215L328.83911,318.83044C328.40723,324.01343,324.07446,328,318.87354,328L299.27637,328C294.07544,328,289.74268,324.01343,289.31079,318.83044L286.43604,284.33215ZM385.43604,284.33215C385.2417,282.00012,387.08203,280,389.42212,280L426.72778,280C429.06787,280,430.9082,282.00012,430.71387,284.33215L427.83911,318.83044C427.40723,324.01343,423.07446,328,417.87354,328L398.27637,328C393.07544,328,388.74268,324.01343,388.31079,318.83044L385.43604,284.33215ZM87.80957,304.59668C86.921021,312.27747,84.866577,318.34973,83.220581,318.1593C81.574707,317.96887,80.960693,311.58801,81.849243,303.90723C82.737793,296.22644,84.792236,290.1543,86.43811,290.34473C88.083984,290.53516,88.697998,296.91589,87.80957,304.59668ZM137.10645,304.59668C137.99512,312.27747,140.04956,318.34973,141.69531,318.1593C143.34131,317.96887,143.95532,311.58801,143.06665,303.90723C142.17822,296.22644,140.12378,290.1543,138.47778,290.34473C136.83203,290.53516,136.21802,296.91589,137.10645,304.59668ZM186.42651,304.59668C185.53784,312.27747,183.4834,318.34973,181.83765,318.1593C180.19165,317.96887,179.57764,311.58801,180.46631,303.90723C181.35474,296.22644,183.40918,290.1543,185.05518,290.34473C186.70093,290.53516,187.31494,296.91589,186.42651,304.59668ZM240.31226,318.1593C238.6665,318.34973,236.61206,312.27747,235.72339,304.59668C234.83496,296.91589,235.44897,290.53516,237.09473,290.34473C238.74072,290.1543,240.79517,296.22644,241.68359,303.90723C242.57227,311.58801,241.95825,317.96887,240.31226,318.1593ZM279.83765,318.1593C281.4834,318.34973,283.53784,312.27747,284.42651,304.59668C285.31494,296.91589,284.70093,290.53516,283.05518,290.34473C281.40918,290.1543,279.35474,296.22644,278.46631,303.90723C277.57764,311.58801,278.19165,317.96887,279.83765,318.1593ZM338.31226,318.1593C336.6665,318.34973,334.61206,312.27747,333.72339,304.59668C332.83496,296.91589,333.44897,290.53516,335.09473,290.34473C336.74072,290.1543,338.79517,296.22644,339.68359,303.90723C340.57227,311.58801,339.95825,317.96887,338.31226,318.1593ZM378.83765,318.1593C380.4834,318.34973,382.53784,312.27747,383.42651,304.59668C384.31494,296.91589,383.70093,290.53516,382.05518,290.34473C380.40918,290.1543,378.35474,296.22644,377.46631,303.90723C376.57764,311.58801,377.19165,317.96887,378.83765,318.1593ZM432.72339,304.59668C433.61206,312.27747,435.6665,318.34973,437.31226,318.1593C438.95825,317.96887,439.57227,311.58801,438.68359,303.90723C437.79517,296.22644,435.74072,290.1543,434.09473,290.34473C432.44897,290.53516,431.83496,296.91589,432.72339,304.59668ZM83.919678,320.88379C82.565918,321.47083,81.953857,323.07166,82.629395,324.38354Q86.609375,332.11353,91.958008,335.60974Q98.114746,339.63416,106.08496,340L120.83105,340Q128.80127,339.63416,134.95801,335.60974Q140.30664,332.11353,144.28662,324.38354C144.96216,323.07166,144.3501,321.47083,142.99634,320.88379C141.81763,320.3728,140.46558,320.7699,139.69971,321.80127Q135.76416,327.09998,131.45801,328.78052Q126.45801,330.73169,120.83105,330.2439L106.08496,330.2439Q100.45801,330.73169,95.458008,328.78052Q91.151733,327.09998,87.216309,321.80127C86.450439,320.7699,85.098267,320.3728,83.919678,320.88379ZM182.53662,320.88379C181.18286,321.47083,180.5708,323.07166,181.24634,324.38354Q185.22632,332.11353,190.57495,335.60974Q196.73169,339.63416,204.7019,340L219.448,340Q227.41821,339.63416,233.57495,335.60974Q238.92358,332.11353,242.90356,324.38354C243.5791,323.07166,242.96704,321.47083,241.61328,320.88379C240.43457,320.3728,239.08252,320.7699,238.31665,321.80127Q234.3811,327.09998,230.07495,328.78052Q225.07495,330.73169,219.448,330.2439L204.7019,330.2439Q199.07495,330.73169,194.07495,328.78052Q189.7688,327.09998,185.83325,321.80127C185.06738,320.7699,183.71509,320.3728,182.53662,320.88379ZM280.53662,320.88379C279.18286,321.47083,278.5708,323.07166,279.24634,324.38354Q283.22632,332.11353,288.57495,335.60974Q294.73169,339.63416,302.7019,340L317.448,340Q325.41821,339.63416,331.57495,335.60974Q336.92358,332.11353,340.90356,324.38354C341.5791,323.07166,340.96704,321.47083,339.61328,320.88379C338.43457,320.3728,337.08252,320.7699,336.31665,321.80127Q332.3811,327.09998,328.07495,328.78052Q323.07495,330.73169,317.448,330.2439L302.7019,330.2439Q297.07495,330.73169,292.07495,328.78052Q287.7688,327.09998,283.83325,321.80127C283.06738,320.7699,281.71509,320.3728,280.53662,320.88379ZM379.53662,320.88379C378.18286,321.47083,377.5708,323.07166,378.24634,324.38354Q382.22632,332.11353,387.57495,335.60974Q393.73169,339.63416,401.7019,340L416.448,340Q424.41821,339.63416,430.57495,335.60974Q435.92358,332.11353,439.90356,324.38354C440.5791,323.07166,439.96704,321.47083,438.61328,320.88379C437.43457,320.3728,436.08252,320.7699,435.31665,321.80127Q431.3811,327.09998,427.07495,328.78052Q422.07495,330.73169,416.448,330.2439L401.7019,330.2439Q396.07495,330.73169,391.07495,328.78052Q386.7688,327.09998,382.83325,321.80127C382.06738,320.7699,380.71509,320.3728,379.53662,320.88379Z" fill-rule="evenodd" fill="currentColor" fill-opacity="1"/></svg>