<svg xmlns="http://www.w3.org/2000/svg" xmlns:xlink="http://www.w3.org/1999/xlink" fill="none" version="1.1" width="233.97012329101562" height="94" viewBox="0 0 233.97012329101562 94"><path d="M160,94L74,94C71.790863,94,70,92.209137,70,90L70,4C70,1.790863,71.790863,0,74,0L160,0C162.20914,0,164,1.790863,164,4L164,90C164,92.209137,162.20914,94,160,94ZM214.85393,75.720795C215.44095,77.074585,217.04175,77.686646,218.35367,77.011169Q226.08369,73.031189,229.57988,67.682526Q233.60428,61.525787,233.97012,53.555542L233.97012,38.809509Q233.60428,30.839264,229.57988,24.682526Q226.08369,19.333862,218.35367,15.353882C217.04175,14.678406,215.44095,15.290466,214.85393,16.644257C214.3429,17.822815,214.74008,19.174988,215.77133,19.940918Q221.07013,23.876282,222.75061,28.182526Q224.70183,33.182526,224.21402,38.809509L224.21402,53.555542Q224.70183,59.182526,222.75061,64.182526Q221.07013,68.48877,215.77133,72.424164C214.74008,73.190063,214.3429,74.542236,214.85393,75.720795ZM19.116211,75.755829C18.529175,77.109619,16.928375,77.72168,15.616455,77.046204Q7.8864441,73.066223,4.3902588,67.71756Q0.36584473,61.560822,0,53.590576L0,38.844543Q0.36584473,30.874298,4.3902588,24.71756Q7.8864441,19.368896,15.616455,15.388916C16.928375,14.71344,18.529175,15.3255,19.116211,16.679291C19.627228,17.857849,19.230042,19.210022,18.198792,19.975952Q12.899994,23.911316,11.219513,28.21756Q9.26828,33.21756,9.7561035,38.844543L9.7561035,53.590576Q9.26828,59.21756,11.219513,64.21756Q12.899994,68.523804,18.198792,72.459198C19.230042,73.225098,19.627228,74.577271,19.116211,75.755829ZM198.56685,22.533997C206.24762,21.645508,212.31976,19.591003,212.12938,17.945129C211.939,16.299255,205.55815,15.685272,197.87738,16.573761C190.19661,17.46225,184.12447,19.516754,184.31485,21.162628C184.50525,22.808502,190.88608,23.422485,198.56685,22.533997ZM35.403259,22.569031C27.722504,21.680542,21.65036,19.626038,21.840759,17.980164C22.031158,16.33429,28.411987,15.720306,36.092743,16.608795C43.773499,17.497284,49.845673,19.551788,49.655273,21.197662C49.464874,22.843536,43.084045,23.45752,35.403259,22.569031ZM173.97012,65.835327C173.97012,68.175476,175.97023,70.015839,178.30231,69.821503L212.80058,66.946655C217.98351,66.51474,221.97012,62.182068,221.97012,56.981201L221.97012,37.38385C221.97012,32.182983,217.98351,27.850311,212.80058,27.418396L178.30231,24.543549C175.97023,24.349213,173.97012,26.189575,173.97012,28.529724L173.97012,65.835327ZM60,65.870361C60,68.21051,57.999908,70.050873,55.667816,69.856537L21.169556,66.981689C15.986633,66.549774,12,62.217102,12,57.016235L12,37.418884C12,32.218018,15.986633,27.885345,21.169556,27.45343L55.667816,24.578583C57.999908,24.384247,60,26.224609,60,28.564758L60,65.870361ZM198.56685,71.831024C206.24762,72.719513,212.31976,74.774017,212.12938,76.419891C211.939,78.065765,205.55815,78.679749,197.87738,77.79126C190.19661,76.902771,184.12447,74.848267,184.31485,73.202393C184.50525,71.556519,190.88608,70.942535,198.56685,71.831024ZM35.403259,71.866058C27.722504,72.754547,21.65036,74.809052,21.840759,76.454926C22.031158,78.1008,28.411987,78.714783,36.092743,77.826294C43.773499,76.937805,49.845673,74.883301,49.655273,73.237427C49.464874,71.591553,43.084045,70.97757,35.403259,71.866058Z" fill-rule="evenodd" fill="currentColor" fill-opacity="1"/></svg>