<svg xmlns="http://www.w3.org/2000/svg" xmlns:xlink="http://www.w3.org/1999/xlink" fill="none" version="1.1" width="340.00006103515625" height="340" viewBox="0 0 340.00006103515625 340"><path d="M83.679382,19.116211C82.3255,18.529175,81.71344,16.928345,82.388977,15.616455Q86.368958,7.8864136,91.71759,4.3902588Q97.874329,0.36584473,105.84454,0L120.59064,0Q128.56085,0.36584473,134.71759,4.3902588Q140.06622,7.8864136,144.0462,15.616455C144.72174,16.928345,144.10968,18.529175,142.7558,19.116211C141.57733,19.627197,140.22516,19.230042,139.45917,18.198792Q135.52386,12.900024,131.21759,11.219482Q126.21759,9.2683105,120.59064,9.7561035L105.84454,9.7561035Q100.21759,9.2683105,95.21759,11.219482Q90.911316,12.900024,86.976013,18.198792C86.210022,19.230042,84.857849,19.627197,83.679382,19.116211ZM198.67938,19.116211C197.3255,18.529175,196.71344,16.928345,197.38898,15.616455Q201.36896,7.8864136,206.71759,4.3902588Q212.87433,0.36584473,220.84454,0L235.59064,0Q243.56085,0.36584473,249.71759,4.3902588Q255.06622,7.8864136,259.0462,15.616455C259.72174,16.928345,259.10968,18.529175,257.7558,19.116211C256.57733,19.627197,255.22516,19.230042,254.45917,18.198792Q250.52386,12.900024,246.21759,11.219482Q241.21759,9.2683105,235.59064,9.7561035L220.84454,9.7561035Q215.21759,9.2683105,210.21759,11.219482Q205.91132,12.900024,201.97601,18.198792C201.21002,19.230042,199.85785,19.627197,198.67938,19.116211ZM93.564758,60C91.22467,60,89.384216,57.999878,89.578552,55.667847L92.45343,21.169556C92.885315,15.986633,97.218079,12,102.41888,12L122.0163,12C127.2171,12,131.54987,15.986633,131.98175,21.169556L134.85663,55.667847C135.05096,57.999878,133.21051,60,130.87042,60L93.564758,60ZM208.56476,60C206.22467,60,204.38422,57.999878,204.57855,55.667847L207.45343,21.169556C207.88531,15.986633,212.21808,12,217.41888,12L237.0163,12C242.2171,12,246.54987,15.986633,246.98175,21.169556L249.85663,55.667847C250.05096,57.999878,248.21051,60,245.87042,60L208.56476,60ZM82.980164,21.840759C84.62616,21.650391,86.680603,27.722473,87.569153,35.403259C88.457581,43.084045,87.843567,49.464905,86.197693,49.655273C84.551819,49.845642,82.497375,43.773499,81.608826,36.092712C80.720276,28.411987,81.33429,22.031128,82.980164,21.840759ZM141.45502,21.840759C139.80902,21.650391,137.75458,27.722473,136.86603,35.403259C135.9776,43.084045,136.59161,49.464905,138.23749,49.655273C139.88336,49.845642,141.93781,43.773499,142.82635,36.092712C143.7149,28.411987,143.10089,22.031128,141.45502,21.840759ZM197.98016,21.840759C199.62616,21.650391,201.6806,27.722473,202.56915,35.403259C203.45758,43.084045,202.84357,49.464905,201.19769,49.655273C199.55182,49.845642,197.49738,43.773499,196.60883,36.092712C195.72028,28.411987,196.33429,22.031128,197.98016,21.840759ZM251.86603,35.403259C252.75458,27.722473,254.80902,21.650391,256.45502,21.840759C258.10089,22.031128,258.7149,28.411987,257.82635,36.092712C256.93781,43.773499,254.88336,49.845642,253.23749,49.655273C251.59161,49.464905,250.9776,43.084045,251.86603,35.403259ZM69.666809,262L69.666809,78C69.666809,73.581726,73.248474,70,77.666809,70L261.66681,70C266.08514,70,269.66681,73.581726,269.66681,78L269.66681,262C269.66681,266.41827,266.08514,270,261.66681,270L77.666809,270C73.248474,270,69.666809,266.41827,69.666809,262ZM35.40332,87.569031C27.722595,86.680542,21.650452,84.626038,21.84082,82.980164C22.031189,81.33429,28.412048,80.720276,36.092834,81.608765C43.773621,82.497253,49.845764,84.551758,49.655334,86.197632C49.464905,87.843506,43.084045,88.45752,35.40332,87.569031ZM304.59674,87.569031C312.27753,86.680542,318.34979,84.626038,318.15936,82.980164C317.96893,81.33429,311.58807,80.720276,303.90729,81.608765C296.2265,82.497253,290.15436,84.551758,290.34479,86.197632C290.53522,87.843506,296.91595,88.45752,304.59674,87.569031ZM19.116211,83.67926C18.529175,82.325439,16.928345,81.713379,15.616455,82.388855Q7.8864136,86.368835,4.3902588,91.717529Q0.36584473,97.874268,0,105.84448L0,120.59058Q0.36584473,128.56079,4.3902588,134.71753Q7.8864136,140.06622,15.616455,144.0462C16.928345,144.72168,18.529175,144.10962,19.116211,142.7558C19.627197,141.57727,19.230042,140.22504,18.198792,139.45917Q12.900024,135.5238,11.219482,131.21753Q9.2683105,126.21753,9.7561035,120.59058L9.7561035,105.84448Q9.2683105,100.21753,11.219482,95.217529Q12.900024,90.911255,18.198792,86.975891C19.230042,86.210022,19.627197,84.857788,19.116211,83.67926ZM320.88385,83.67926C321.47089,82.325439,323.07172,81.713379,324.38361,82.388855Q332.11359,86.368835,335.6098,91.717529Q339.63422,97.874268,340.00006,105.84448L340.00006,120.59058Q339.63422,128.56079,335.6098,134.71753Q332.11359,140.06622,324.38361,144.0462C323.07172,144.72168,321.47089,144.10962,320.88385,142.7558C320.37286,141.57727,320.76996,140.22504,321.80133,139.45917Q327.10004,135.5238,328.78058,131.21753Q330.73175,126.21753,330.24396,120.59058L330.24396,105.84448Q330.73175,100.21753,328.78058,95.217529Q327.10004,90.911255,321.80133,86.975891C320.76996,86.210022,320.37286,84.857788,320.88385,83.67926ZM60.000061,93.564697C60.000061,91.224548,57.999939,89.384216,55.667908,89.578552L21.169617,92.45343C15.986694,92.885315,12.000061,97.217957,12.000061,102.41888L12.000061,122.01617C12.000061,127.2171,15.986694,131.54974,21.169617,131.98169L55.667908,134.85651C57.999939,135.05084,60.000061,133.21051,60.000061,130.87036L60.000061,93.564697ZM280.00006,93.564697C280.00006,91.224548,282.00018,89.384216,284.33221,89.578552L318.83051,92.45343C324.01349,92.885315,328.00006,97.217957,328.00006,102.41888L328.00006,122.01617C328.00006,127.2171,324.01349,131.54974,318.83051,131.98169L284.33221,134.85651C282.00018,135.05084,280.00006,133.21051,280.00006,130.87036L280.00006,93.564697ZM35.40332,136.86603C27.722595,137.75452,21.650452,139.80902,21.84082,141.4549C22.031189,143.10077,28.412048,143.71478,36.092834,142.82629C43.773621,141.93781,49.845764,139.8833,49.655334,138.23743C49.464905,136.59155,43.084045,135.97754,35.40332,136.86603ZM304.59674,136.86603C312.27753,137.75452,318.34979,139.80902,318.15936,141.4549C317.96893,143.10077,311.58807,143.71478,303.90729,142.82629C296.2265,141.93781,290.15436,139.8833,290.34479,138.23743C290.53522,136.59155,296.91595,135.97754,304.59674,136.86603ZM21.84082,198.98016C21.650452,200.62604,27.722595,202.68054,35.40332,203.56903C43.084045,204.45752,49.464905,203.84351,49.655334,202.19763C49.845764,200.55176,43.773621,198.49725,36.092834,197.60876C28.412048,196.72028,22.031189,197.33429,21.84082,198.98016ZM304.59674,203.56903C312.27753,202.68054,318.34979,200.62604,318.15936,198.98016C317.96893,197.33429,311.58807,196.72028,303.90729,197.60876C296.2265,198.49725,290.15436,200.55176,290.34479,202.19763C290.53522,203.84351,296.91595,204.45752,304.59674,203.56903ZM19.116211,199.67926C18.529175,198.32544,16.928345,197.71338,15.616455,198.38885Q7.8864136,202.36884,4.3902588,207.71753Q0.36584473,213.87427,0,221.84448L0,236.59058Q0.36584473,244.56079,4.3902588,250.71753Q7.8864136,256.06622,15.616455,260.0462C16.928345,260.72168,18.529175,260.10962,19.116211,258.7558C19.627197,257.57727,19.230042,256.22504,18.198792,255.45917Q12.900024,251.5238,11.219482,247.21753Q9.2683105,242.21753,9.7561035,236.59058L9.7561035,221.84448Q9.2683105,216.21753,11.219482,211.21753Q12.900024,206.91125,18.198792,202.97589C19.230042,202.21002,19.627197,200.85779,19.116211,199.67926ZM320.88385,199.67926C321.47089,198.32544,323.07172,197.71338,324.38361,198.38885Q332.11359,202.36884,335.6098,207.71753Q339.63422,213.87427,340.00006,221.84448L340.00006,236.59058Q339.63422,244.56079,335.6098,250.71753Q332.11359,256.06622,324.38361,260.0462C323.07172,260.72168,321.47089,260.10962,320.88385,258.7558C320.37286,257.57727,320.76996,256.22504,321.80133,255.45917Q327.10004,251.5238,328.78058,247.21753Q330.73175,242.21753,330.24396,236.59058L330.24396,221.84448Q330.73175,216.21753,328.78058,211.21753Q327.10004,206.91125,321.80133,202.97589C320.76996,202.21002,320.37286,200.85779,320.88385,199.67926ZM60.000061,209.5647C60.000061,207.22455,57.999939,205.38422,55.667908,205.57855L21.169617,208.45343C15.986694,208.88531,12.000061,213.21796,12.000061,218.41888L12.000061,238.01617C12.000061,243.2171,15.986694,247.54974,21.169617,247.98169L55.667908,250.85651C57.999939,251.05084,60.000061,249.21051,60.000061,246.87036L60.000061,209.5647ZM280.00006,209.5647C280.00006,207.22455,282.00018,205.38422,284.33221,205.57855L318.83051,208.45343C324.01349,208.88531,328.00006,213.21796,328.00006,218.41888L328.00006,238.01617C328.00006,243.2171,324.01349,247.54974,318.83051,247.98169L284.33221,250.85651C282.00018,251.05084,280.00006,249.21051,280.00006,246.87036L280.00006,209.5647ZM21.84082,257.4549C21.650452,255.80902,27.722595,253.75452,35.40332,252.86603C43.084045,251.97754,49.464905,252.59155,49.655334,254.23743C49.845764,255.8833,43.773621,257.93781,36.092834,258.82629C28.412048,259.71478,22.031189,259.10077,21.84082,257.4549ZM304.59674,252.86603C312.27753,253.75452,318.34979,255.80902,318.15936,257.4549C317.96893,259.10077,311.58807,259.71478,303.90729,258.82629C296.2265,257.93781,290.15436,255.8833,290.34479,254.23743C290.53522,252.59155,296.91595,251.97754,304.59674,252.86603ZM93.564758,280C91.22467,280,89.384216,282.00012,89.578552,284.33215L92.45343,318.83044C92.885315,324.01337,97.218079,328,102.41888,328L122.0163,328C127.2171,328,131.54987,324.01337,131.98175,318.83044L134.85663,284.33215C135.05096,282.00012,133.21051,280,130.87042,280L93.564758,280ZM208.56476,280C206.22467,280,204.38422,282.00012,204.57855,284.33215L207.45343,318.83044C207.88531,324.01337,212.21808,328,217.41888,328L237.0163,328C242.2171,328,246.54987,324.01337,246.98175,318.83044L249.85663,284.33215C250.05096,282.00012,248.21051,280,245.87042,280L208.56476,280ZM82.980164,318.15924C84.62616,318.34961,86.680603,312.27753,87.569153,304.59674C88.457581,296.91595,87.843567,290.5351,86.197693,290.34473C84.551819,290.15436,82.497375,296.2265,81.608826,303.90729C80.720276,311.58801,81.33429,317.96887,82.980164,318.15924ZM141.45502,318.15924C139.80902,318.34961,137.75458,312.27753,136.86603,304.59674C135.9776,296.91595,136.59161,290.5351,138.23749,290.34473C139.88336,290.15436,141.93781,296.2265,142.82635,303.90729C143.7149,311.58801,143.10089,317.96887,141.45502,318.15924ZM197.98016,318.15924C199.62616,318.34961,201.6806,312.27753,202.56915,304.59674C203.45758,296.91595,202.84357,290.5351,201.19769,290.34473C199.55182,290.15436,197.49738,296.2265,196.60883,303.90729C195.72028,311.58801,196.33429,317.96887,197.98016,318.15924ZM251.86603,304.59674C252.75458,312.27753,254.80902,318.34961,256.45502,318.15924C258.10089,317.96887,258.7149,311.58801,257.82635,303.90729C256.93781,296.2265,254.88336,290.15436,253.23749,290.34473C251.59161,290.5351,250.9776,296.91595,251.86603,304.59674ZM83.679382,320.88379C82.3255,321.47083,81.71344,323.07166,82.388977,324.38354Q86.368958,332.11359,91.71759,335.60974Q97.874329,339.63416,105.84454,340L120.59064,340Q128.56085,339.63416,134.71759,335.60974Q140.06622,332.11359,144.0462,324.38354C144.72174,323.07166,144.10968,321.47083,142.7558,320.88379C141.57733,320.3728,140.22516,320.76996,139.45917,321.80121Q135.52386,327.09998,131.21759,328.78052Q126.21759,330.73169,120.59064,330.2439L105.84454,330.2439Q100.21759,330.73169,95.21759,328.78052Q90.911316,327.09998,86.976013,321.80121C86.210022,320.76996,84.857849,320.3728,83.679382,320.88379ZM198.67938,320.88379C197.3255,321.47083,196.71344,323.07166,197.38898,324.38354Q201.36896,332.11359,206.71759,335.60974Q212.87433,339.63416,220.84454,340L235.59064,340Q243.56085,339.63416,249.71759,335.60974Q255.06622,332.11359,259.0462,324.38354C259.72174,323.07166,259.10968,321.47083,257.7558,320.88379C256.57733,320.3728,255.22516,320.76996,254.45917,321.80121Q250.52386,327.09998,246.21759,328.78052Q241.21759,330.73169,235.59064,330.2439L220.84454,330.2439Q215.21759,330.73169,210.21759,328.78052Q205.91132,327.09998,201.97601,321.80121C201.21002,320.76996,199.85785,320.3728,198.67938,320.88379Z" fill-rule="evenodd" fill="currentColor" fill-opacity="1"/></svg>