<svg xmlns="http://www.w3.org/2000/svg" xmlns:xlink="http://www.w3.org/1999/xlink" fill="none" version="1.1" width="340" height="340" viewBox="0 0 340 340"><path d="M72.388916,15.616455C71.713379,16.928345,72.325439,18.529175,73.679321,19.116211C74.857788,19.627197,76.209961,19.230042,76.975952,18.198792Q80.911255,12.900024,85.217529,11.219482Q90.217529,9.2683105,95.844482,9.7561035L110.59058,9.7561035Q116.21753,9.2683105,121.21753,11.219482Q125.52368,12.900024,129.45923,18.198792C130.2251,19.230042,131.57715,19.627197,132.75586,19.116211C134.10962,18.529175,134.72168,16.928345,134.04614,15.616455Q130.06616,7.8864136,124.71753,4.3902588Q118.56079,0.36584473,110.59058,0L95.844482,0Q87.874268,0.36584473,81.717529,4.3902588Q76.368896,7.8864136,72.388916,15.616455ZM140.38892,15.616455C139.71338,16.928345,140.32544,18.529175,141.6792,19.116211C142.85791,19.627197,144.20996,19.230042,144.97583,18.198792Q148.91138,12.900024,153.21753,11.219482Q158.21753,9.2683105,163.84448,9.7561035L178.59058,9.7561035Q184.21753,9.2683105,189.21753,11.219482Q193.52368,12.900024,197.45923,18.198792C198.2251,19.230042,199.57715,19.627197,200.75586,19.116211C202.10962,18.529175,202.72168,16.928345,202.04614,15.616455Q198.06616,7.8864136,192.71753,4.3902588Q186.56079,0.36584473,178.59058,0L163.84448,0Q155.87427,0.36584473,149.71753,4.3902588Q144.3689,7.8864136,140.38892,15.616455ZM208.38892,15.616455C207.71338,16.928345,208.32544,18.529175,209.6792,19.116211C210.85791,19.627197,212.20996,19.230042,212.97583,18.198792Q216.91138,12.900024,221.21753,11.219482Q226.21753,9.2683105,231.84448,9.7561035L246.59058,9.7561035Q252.21753,9.2683105,257.21753,11.219482Q261.52368,12.900024,265.45923,18.198792C266.2251,19.230042,267.57715,19.627197,268.75586,19.116211C270.10962,18.529175,270.72168,16.928345,270.04614,15.616455Q266.06616,7.8864136,260.71753,4.3902588Q254.56079,0.36584473,246.59058,0L231.84448,0Q223.87427,0.36584473,217.71753,4.3902588Q212.3689,7.8864136,208.38892,15.616455ZM79.578491,55.667847C79.384155,57.999878,81.224609,60,83.564697,60L120.87036,60C123.21045,60,125.05078,57.999878,124.85645,55.667847L121.98169,21.169556C121.5498,15.986633,117.21704,12,112.01611,12L92.418945,12C87.218018,12,82.885254,15.986633,82.453369,21.169556L79.578491,55.667847ZM147.57861,55.667847C147.38428,57.999878,149.22461,60,151.5647,60L188.87036,60C191.21045,60,193.05078,57.999878,192.85645,55.667847L189.98169,21.169556C189.5498,15.986633,185.21704,12,180.01611,12L160.41895,12C155.21802,12,150.88525,15.986633,150.45337,21.169556L147.57861,55.667847ZM215.57861,55.667847C215.38428,57.999878,217.22461,60,219.5647,60L256.87036,60C259.21045,60,261.05078,57.999878,260.85645,55.667847L257.98169,21.169556C257.5498,15.986633,253.21704,12,248.01611,12L228.41895,12C223.21802,12,218.88525,15.986633,218.45337,21.169556L215.57861,55.667847ZM77.569092,35.403259C76.680542,27.722473,74.626099,21.650391,72.980103,21.840759C71.334229,22.031128,70.720215,28.411987,71.608765,36.092712C72.497314,43.773499,74.551758,49.845642,76.197632,49.655273C77.843506,49.464905,78.45752,43.084045,77.569092,35.403259ZM126.86597,35.403259C127.75464,27.722473,129.80908,21.650391,131.45483,21.840759C133.10083,22.031128,133.71484,28.411987,132.82617,36.092712C131.93774,43.773499,129.8833,49.845642,128.2373,49.655273C126.59155,49.464905,125.97754,43.084045,126.86597,35.403259ZM140.98022,21.840759C142.62598,21.650391,144.68042,27.722473,145.56909,35.403259C146.45752,43.084045,145.84351,49.464905,144.19775,49.655273C142.55176,49.845642,140.49731,43.773499,139.60889,36.092712C138.72021,28.411987,139.33423,22.031128,140.98022,21.840759ZM199.45483,21.840759C197.80908,21.650391,195.75464,27.722473,194.86597,35.403259C193.97754,43.084045,194.59155,49.464905,196.2373,49.655273C197.8833,49.845642,199.93774,43.773499,200.82617,36.092712C201.71484,28.411987,201.10083,22.031128,199.45483,21.840759ZM208.98022,21.840759C210.62598,21.650391,212.68042,27.722473,213.56909,35.403259C214.45752,43.084045,213.84351,49.464905,212.19775,49.655273C210.55176,49.845642,208.49731,43.773499,207.60889,36.092712C206.72021,28.411987,207.33423,22.031128,208.98022,21.840759ZM267.45483,21.840759C265.80908,21.650391,263.75464,27.722473,262.86597,35.403259C261.97754,43.084045,262.59155,49.464905,264.2373,49.655273C265.8833,49.845642,267.93774,43.773499,268.82617,36.092712C269.71484,28.411987,269.10083,22.031128,267.45483,21.840759ZM70,262C70,266.41827,73.581665,270,78,270L262,270C266.41821,270,270,266.41827,270,262L270,78C270,73.581726,266.41821,70,262,70L78,70C73.581665,70,70,73.581726,70,78L70,262ZM21.840698,72.980164C21.650269,74.626038,27.722534,76.680542,35.40332,77.569031C43.084106,78.45752,49.464844,77.843506,49.655273,76.197632C49.845703,74.551758,43.77356,72.497253,36.092773,71.608765C28.411987,70.720276,22.031128,71.33429,21.840698,72.980164ZM304.59668,77.569031C312.27734,76.680542,318.34961,74.626038,318.15918,72.980164C317.96875,71.33429,311.58789,70.720276,303.90723,71.608765C296.22656,72.497253,290.1543,74.551758,290.34473,76.197632C290.53516,77.843506,296.91602,78.45752,304.59668,77.569031ZM15.616455,72.388855C16.928345,71.713379,18.529175,72.325439,19.116211,73.67926C19.627197,74.857788,19.230103,76.210022,18.19873,76.975891Q12.900024,80.911255,11.219482,85.217529Q9.2683105,90.217529,9.7561035,95.844482L9.7561035,110.59058Q9.2683105,116.21753,11.219482,121.21753Q12.900024,125.5238,18.19873,129.45917C19.230103,130.22504,19.627197,131.57727,19.116211,132.7558C18.529175,134.10962,16.928345,134.72168,15.616455,134.0462Q7.8864746,130.06622,4.3902588,124.71753Q0.36584473,118.56079,0,110.59058L0,95.844482Q0.36584473,87.874268,4.3902588,81.717529Q7.8864746,76.368835,15.616455,72.388855ZM320.88379,73.67926C321.4707,72.325439,323.07153,71.713379,324.38354,72.388855Q332.11353,76.368835,335.60986,81.717529Q339.63403,87.874268,340,95.844482L340,110.59058Q339.63403,118.56079,335.60986,124.71753Q332.11353,130.06622,324.38354,134.0462C323.07153,134.72168,321.4707,134.10962,320.88379,132.7558C320.3728,131.57727,320.77002,130.22504,321.80127,129.45917Q327.1001,125.5238,328.78052,121.21753Q330.73169,116.21753,330.2439,110.59058L330.2439,95.844482Q330.73169,90.217529,328.78052,85.217529Q327.1001,80.911255,321.80127,76.975891C320.77002,76.210022,320.3728,74.857788,320.88379,73.67926ZM55.667847,79.578552C57.999878,79.384216,60,81.224548,60,83.564697L60,120.87036C60,123.21051,57.999878,125.05084,55.667847,124.85651L21.169556,121.98169C15.986572,121.54974,12,117.2171,12,112.01617L12,92.418884C12,87.217957,15.986572,82.885315,21.169556,82.45343L55.667847,79.578552ZM284.33228,79.578552C282,79.384216,280,81.224548,280,83.564697L280,120.87036C280,123.21051,282,125.05084,284.33228,124.85651L318.83057,121.98169C324.01343,121.54974,328,117.2171,328,112.01617L328,92.418884C328,87.217957,324.01343,82.885315,318.83057,82.45343L284.33228,79.578552ZM21.840698,131.4549C21.650269,129.80902,27.722534,127.75452,35.40332,126.86603C43.084106,125.97754,49.464844,126.59155,49.655273,128.23743C49.845703,129.8833,43.77356,131.93781,36.092773,132.82629C28.411987,133.71478,22.031128,133.10077,21.840698,131.4549ZM304.59668,126.86603C312.27734,127.75452,318.34961,129.80902,318.15918,131.4549C317.96875,133.10077,311.58789,133.71478,303.90723,132.82629C296.22656,131.93781,290.1543,129.8833,290.34473,128.23743C290.53516,126.59155,296.91602,125.97754,304.59668,126.86603ZM35.40332,145.56903C27.722534,144.68054,21.650269,142.62604,21.840698,140.98016C22.031128,139.33429,28.411987,138.72028,36.092773,139.60876C43.77356,140.49725,49.845703,142.55176,49.655273,144.19763C49.464844,145.84351,43.084106,146.45752,35.40332,145.56903ZM304.59668,145.56903C312.27734,144.68054,318.34961,142.62604,318.15918,140.98016C317.96875,139.33429,311.58789,138.72028,303.90723,139.60876C296.22656,140.49725,290.1543,142.55176,290.34473,144.19763C290.53516,145.84351,296.91602,146.45752,304.59668,145.56903ZM15.616455,140.38885C16.928345,139.71338,18.529175,140.32544,19.116211,141.67926C19.627197,142.85779,19.230103,144.21002,18.19873,144.97589Q12.900024,148.91125,11.219482,153.21753Q9.2683105,158.21753,9.7561035,163.84448L9.7561035,178.59058Q9.2683105,184.21753,11.219482,189.21753Q12.900024,193.5238,18.19873,197.45917C19.230103,198.22504,19.627197,199.57727,19.116211,200.7558C18.529175,202.10962,16.928345,202.72168,15.616455,202.0462Q7.8864746,198.06622,4.3902588,192.71753Q0.36584473,186.56079,0,178.59058L0,163.84448Q0.36584473,155.87427,4.3902588,149.71753Q7.8864746,144.36884,15.616455,140.38885ZM320.88379,141.67926C321.4707,140.32544,323.07153,139.71338,324.38354,140.38885Q332.11353,144.36884,335.60986,149.71753Q339.63403,155.87427,340,163.84448L340,178.59058Q339.63403,186.56079,335.60986,192.71753Q332.11353,198.06622,324.38354,202.0462C323.07153,202.72168,321.4707,202.10962,320.88379,200.7558C320.3728,199.57727,320.77002,198.22504,321.80127,197.45917Q327.1001,193.5238,328.78052,189.21753Q330.73169,184.21753,330.2439,178.59058L330.2439,163.84448Q330.73169,158.21753,328.78052,153.21753Q327.1001,148.91125,321.80127,144.97589C320.77002,144.21002,320.3728,142.85779,320.88379,141.67926ZM55.667847,147.57855C57.999878,147.38422,60,149.22455,60,151.5647L60,188.87036C60,191.21051,57.999878,193.05084,55.667847,192.85651L21.169556,189.98169C15.986572,189.54974,12,185.2171,12,180.01617L12,160.41888C12,155.21796,15.986572,150.88531,21.169556,150.45343L55.667847,147.57855ZM284.33228,147.57855C282,147.38422,280,149.22455,280,151.5647L280,188.87036C280,191.21051,282,193.05084,284.33228,192.85651L318.83057,189.98169C324.01343,189.54974,328,185.2171,328,180.01617L328,160.41888C328,155.21796,324.01343,150.88531,318.83057,150.45343L284.33228,147.57855ZM35.40332,194.86603C27.722534,195.75452,21.650269,197.80902,21.840698,199.4549C22.031128,201.10077,28.411987,201.71478,36.092773,200.82629C43.77356,199.93781,49.845703,197.8833,49.655273,196.23743C49.464844,194.59155,43.084106,193.97754,35.40332,194.86603ZM304.59668,194.86603C312.27734,195.75452,318.34961,197.80902,318.15918,199.4549C317.96875,201.10077,311.58789,201.71478,303.90723,200.82629C296.22656,199.93781,290.1543,197.8833,290.34473,196.23743C290.53516,194.59155,296.91602,193.97754,304.59668,194.86603ZM35.40332,213.56903C27.722534,212.68054,21.650269,210.62604,21.840698,208.98016C22.031128,207.33429,28.411987,206.72028,36.092773,207.60876C43.77356,208.49725,49.845703,210.55176,49.655273,212.19763C49.464844,213.84351,43.084106,214.45752,35.40332,213.56903ZM304.59668,213.56903C312.27734,212.68054,318.34961,210.62604,318.15918,208.98016C317.96875,207.33429,311.58789,206.72028,303.90723,207.60876C296.22656,208.49725,290.1543,210.55176,290.34473,212.19763C290.53516,213.84351,296.91602,214.45752,304.59668,213.56903ZM15.616455,208.38885C16.928345,207.71338,18.529175,208.32544,19.116211,209.67926C19.627197,210.85779,19.230103,212.21002,18.19873,212.97589Q12.900024,216.91125,11.219482,221.21753Q9.2683105,226.21753,9.7561035,231.84448L9.7561035,246.59058Q9.2683105,252.21753,11.219482,257.21753Q12.900024,261.5238,18.19873,265.45917C19.230103,266.22504,19.627197,267.57727,19.116211,268.7558C18.529175,270.10962,16.928345,270.72168,15.616455,270.0462Q7.8864746,266.06622,4.3902588,260.71753Q0.36584473,254.56079,0,246.59058L0,231.84448Q0.36584473,223.87427,4.3902588,217.71753Q7.8864746,212.36884,15.616455,208.38885ZM320.88379,209.67926C321.4707,208.32544,323.07153,207.71338,324.38354,208.38885Q332.11353,212.36884,335.60986,217.71753Q339.63403,223.87427,340,231.84448L340,246.59058Q339.63403,254.56079,335.60986,260.71753Q332.11353,266.06622,324.38354,270.0462C323.07153,270.72168,321.4707,270.10962,320.88379,268.7558C320.3728,267.57727,320.77002,266.22504,321.80127,265.45917Q327.1001,261.5238,328.78052,257.21753Q330.73169,252.21753,330.2439,246.59058L330.2439,231.84448Q330.73169,226.21753,328.78052,221.21753Q327.1001,216.91125,321.80127,212.97589C320.77002,212.21002,320.3728,210.85779,320.88379,209.67926ZM60,219.5647C60,217.22455,57.999878,215.38422,55.667847,215.57855L21.169556,218.45343C15.986572,218.88531,12,223.21796,12,228.41888L12,248.01617C12,253.2171,15.986572,257.54974,21.169556,257.98169L55.667847,260.85651C57.999878,261.05084,60,259.21051,60,256.87036L60,219.5647ZM284.33228,215.57855C282,215.38422,280,217.22455,280,219.5647L280,256.87036C280,259.21051,282,261.05084,284.33228,260.85651L318.83057,257.98169C324.01343,257.54974,328,253.2171,328,248.01617L328,228.41888C328,223.21796,324.01343,218.88531,318.83057,218.45343L284.33228,215.57855ZM35.40332,262.86603C27.722534,263.75452,21.650269,265.80902,21.840698,267.4549C22.031128,269.10077,28.411987,269.71478,36.092773,268.82629C43.77356,267.93781,49.845703,265.8833,49.655273,264.23743C49.464844,262.59155,43.084106,261.97754,35.40332,262.86603ZM304.59668,262.86603C312.27734,263.75452,318.34961,265.80902,318.15918,267.4549C317.96875,269.10077,311.58789,269.71478,303.90723,268.82629C296.22656,267.93781,290.1543,265.8833,290.34473,264.23743C290.53516,262.59155,296.91602,261.97754,304.59668,262.86603ZM79.578491,284.33215C79.384155,282.00012,81.224609,280,83.564697,280L120.87036,280C123.21045,280,125.05078,282.00012,124.85645,284.33215L121.98169,318.83044C121.5498,324.01337,117.21704,328,112.01611,328L92.418945,328C87.218018,328,82.885254,324.01337,82.453369,318.83044L79.578491,284.33215ZM147.57861,284.33215C147.38428,282.00012,149.22461,280,151.5647,280L188.87036,280C191.21045,280,193.05078,282.00012,192.85645,284.33215L189.98169,318.83044C189.5498,324.01337,185.21704,328,180.01611,328L160.41895,328C155.21802,328,150.88525,324.01337,150.45337,318.83044L147.57861,284.33215ZM215.57861,284.33215C215.38428,282.00012,217.22461,280,219.5647,280L256.87036,280C259.21045,280,261.05078,282.00012,260.85645,284.33215L257.98169,318.83044C257.5498,324.01337,253.21704,328,248.01611,328L228.41895,328C223.21802,328,218.88525,324.01337,218.45337,318.83044L215.57861,284.33215ZM77.569092,304.59674C76.680542,312.27753,74.626099,318.34961,72.980103,318.15924C71.334229,317.96887,70.720215,311.58801,71.608765,303.90729C72.497314,296.2265,74.551758,290.15436,76.197632,290.34473C77.843506,290.5351,78.45752,296.91595,77.569092,304.59674ZM126.86597,304.59674C127.75464,312.27753,129.80908,318.34961,131.45483,318.15924C133.10083,317.96887,133.71484,311.58801,132.82617,303.90729C131.93774,296.2265,129.8833,290.15436,128.2373,290.34473C126.59155,290.5351,125.97754,296.91595,126.86597,304.59674ZM140.98022,318.15924C142.62598,318.34961,144.68042,312.27753,145.56909,304.59674C146.45752,296.91595,145.84351,290.5351,144.19775,290.34473C142.55176,290.15436,140.49731,296.2265,139.60889,303.90729C138.72021,311.58801,139.33423,317.96887,140.98022,318.15924ZM199.45483,318.15924C197.80908,318.34961,195.75464,312.27753,194.86597,304.59674C193.97754,296.91595,194.59155,290.5351,196.2373,290.34473C197.8833,290.15436,199.93774,296.2265,200.82617,303.90729C201.71484,311.58801,201.10083,317.96887,199.45483,318.15924ZM208.98022,318.15924C210.62598,318.34961,212.68042,312.27753,213.56909,304.59674C214.45752,296.91595,213.84351,290.5351,212.19775,290.34473C210.55176,290.15436,208.49731,296.2265,207.60889,303.90729C206.72021,311.58801,207.33423,317.96887,208.98022,318.15924ZM267.45483,318.15924C265.80908,318.34961,263.75464,312.27753,262.86597,304.59674C261.97754,296.91595,262.59155,290.5351,264.2373,290.34473C265.8833,290.15436,267.93774,296.2265,268.82617,303.90729C269.71484,311.58801,269.10083,317.96887,267.45483,318.15924ZM72.388916,324.38354C71.713379,323.07166,72.325439,321.47083,73.679321,320.88379C74.857788,320.3728,76.209961,320.76996,76.975952,321.80121Q80.911255,327.09998,85.217529,328.78052Q90.217529,330.73169,95.844482,330.2439L110.59058,330.2439Q116.21753,330.73169,121.21753,328.78052Q125.52368,327.09998,129.45923,321.80121C130.2251,320.76996,131.57715,320.3728,132.75586,320.88379C134.10962,321.47083,134.72168,323.07166,134.04614,324.38354Q130.06616,332.11359,124.71753,335.60974Q118.56079,339.63416,110.59058,340L95.844482,340Q87.874268,339.63416,81.717529,335.60974Q76.368896,332.11359,72.388916,324.38354ZM140.38892,324.38354C139.71338,323.07166,140.32544,321.47083,141.6792,320.88379C142.85791,320.3728,144.20996,320.76996,144.97583,321.80121Q148.91138,327.09998,153.21753,328.78052Q158.21753,330.73169,163.84448,330.2439L178.59058,330.2439Q184.21753,330.73169,189.21753,328.78052Q193.52368,327.09998,197.45923,321.80121C198.2251,320.76996,199.57715,320.3728,200.75586,320.88379C202.10962,321.47083,202.72168,323.07166,202.04614,324.38354Q198.06616,332.11359,192.71753,335.60974Q186.56079,339.63416,178.59058,340L163.84448,340Q155.87427,339.63416,149.71753,335.60974Q144.3689,332.11359,140.38892,324.38354ZM209.6792,320.88379C208.32544,321.47083,207.71338,323.07166,208.38892,324.38354Q212.3689,332.11359,217.71753,335.60974Q223.87427,339.63416,231.84448,340L246.59058,340Q254.56079,339.63416,260.71753,335.60974Q266.06616,332.11359,270.04614,324.38354C270.72168,323.07166,270.10962,321.47083,268.75586,320.88379C267.57715,320.3728,266.2251,320.76996,265.45923,321.80121Q261.52368,327.09998,257.21753,328.78052Q252.21753,330.73169,246.59058,330.2439L231.84448,330.2439Q226.21753,330.73169,221.21753,328.78052Q216.91138,327.09998,212.97583,321.80121C212.20996,320.76996,210.85791,320.3728,209.6792,320.88379Z" fill-rule="evenodd" fill="currentColor" fill-opacity="1"/></svg>