<svg xmlns="http://www.w3.org/2000/svg" xmlns:xlink="http://www.w3.org/1999/xlink" fill="none" version="1.1" width="340" height="340" viewBox="0 0 340 340"><path d="M140.17133,15.616455C139.49585,16.928375,140.10791,18.52919,141.46173,19.116196C142.64026,19.627213,143.99249,19.230042,144.75836,18.198792Q148.69373,12.899994,153,11.219513Q158,9.2682953,163.62695,9.7560959L170.78247,9.7561035L178.37305,9.7560959Q184,9.2682953,189,11.219513Q193.30627,12.899994,197.24158,18.198792C198.00757,19.230042,199.35974,19.627213,200.53821,19.116196C201.89209,18.52919,202.50415,16.928375,201.82861,15.616455Q197.84863,7.8864288,192.5,4.3902435Q186.34326,0.36585236,178.37305,0L163.62695,0Q155.65674,0.36585236,149.5,4.3902435Q144.15131,7.8864288,140.17133,15.616455ZM147.36102,55.667816C147.16669,57.999893,149.00702,60,151.34717,60L188.65283,60C190.99292,60,192.83337,57.999893,192.63904,55.667816L189.76416,21.16954C189.33228,15.986618,184.99951,12,179.79871,12L160.20129,12C155.00049,12,150.66779,15.986618,150.2359,21.16954L147.36102,55.667816ZM140.76263,21.840744C142.40851,21.65036,144.46301,27.722504,145.3515,35.403275C146.23999,43.084045,145.62598,49.464874,143.9801,49.655273C142.33423,49.845657,140.27972,43.773514,139.39124,36.092743C138.50275,28.411957,139.11676,22.031128,140.76263,21.840744ZM199.23743,21.840744C197.59143,21.65036,195.53699,27.722488,194.64844,35.403275C193.76001,43.084061,194.37402,49.464874,196.0199,49.655273C197.66577,49.845657,199.72021,43.773514,200.60876,36.092743C201.49731,28.411972,200.8833,22.031128,199.23743,21.840744ZM296.87061,83.488739C298.24304,84.03093,299.80774,83.331772,300.25781,81.926483Q302.90942,73.646255,301.59949,67.391998Q300.0918,60.192841,294.7146,54.29834L284.2876,43.871323Q278.39307,38.494202,271.19397,36.986404Q264.9397,35.676514,256.65942,38.328186C255.25415,38.778214,254.55505,40.342957,255.09717,41.715317C255.56921,42.910019,256.80627,43.585312,258.07703,43.39769Q264.60657,42.433609,268.83984,44.290298Q273.755,46.446106,277.38904,50.769928L282.75635,56.137253L287.81604,61.196945Q292.13989,64.830887,294.29565,69.74614Q296.15234,73.979416,295.18823,80.508942C295.00061,81.779739,295.6759,83.016724,296.87061,83.488739ZM39.74231,81.926514C40.192322,83.331802,41.75708,84.03096,43.129456,83.48877C44.324158,83.016754,44.999451,81.77977,44.811829,80.508972Q43.847717,73.979446,45.704407,69.74617Q47.860229,64.830917,52.184021,61.196976L57.243713,56.137283L62.611084,50.769958Q66.244995,46.446136,71.160278,44.290329Q75.393555,42.43364,81.923035,43.39772C83.193848,43.585342,84.430847,42.910049,84.902832,41.715347C85.445068,40.342987,84.745911,38.778244,83.340576,38.328217Q75.060364,35.676544,68.806091,36.986435Q61.606934,38.494232,55.712463,43.871353L45.285461,54.29837Q39.908325,60.192871,38.400513,67.392029Q37.090637,73.646286,39.74231,81.926514ZM254.09045,44.561707C255.38892,45.590897,252.54797,51.337265,247.74512,57.396683C242.94226,63.456039,237.99609,67.533829,236.69775,66.504654C235.39929,65.475464,238.24023,59.729019,243.04309,53.669662C247.84595,47.610275,252.79199,43.532516,254.09045,44.561707ZM92.254883,57.396713C87.452026,51.337326,84.611145,45.590912,85.909546,44.561737C87.208008,43.532547,92.154114,47.610306,96.95697,53.669693C101.75983,59.72908,104.60071,65.475494,103.30231,66.504684C102.00385,67.533875,97.057739,63.456116,92.254883,57.396713ZM260.97131,105.40785C262.6261,107.06259,265.34167,106.94963,266.85327,105.16319L289.21448,78.736389C292.57397,74.766113,292.32922,68.883484,288.65161,65.205902L274.79419,51.348495C271.1167,47.670914,265.23401,47.426224,261.26379,50.785706L234.83691,73.146835C233.05054,74.658447,232.93762,77.374054,234.59229,79.028809L260.97131,105.40785ZM73.146729,105.16322C74.658325,106.94966,77.373962,107.06262,79.028687,105.40788L105.40778,79.028839C107.0625,77.374084,106.94952,74.658478,105.16309,73.146866L78.736328,50.785736C74.765991,47.426254,68.883423,47.670944,65.205811,51.348526L51.348389,65.205933C47.670837,68.883514,47.426147,74.766144,50.785583,78.73642L73.146729,105.16322ZM270,170.21759C270,225.44608,225.22852,270.21759,170,270.21759C114.77155,270.21759,70,225.44608,70,170.21759C70,114.98911,114.77155,70.21759,170,70.21759C225.22852,70.21759,270,114.98911,270,170.21759ZM295.43835,85.909592C294.40918,84.61116,288.66272,87.452057,282.60339,92.254929C276.54395,97.057785,272.46619,102.00389,273.49536,103.30232C274.52454,104.60075,280.271,101.75986,286.33032,96.956985C292.38977,92.154129,296.46753,87.208023,295.43835,85.909592ZM57.396606,92.254959C51.337219,87.452087,45.590759,84.611176,44.561584,85.909622C43.53241,87.208069,47.610168,92.154129,53.669556,96.957016C59.728943,101.75989,65.475403,104.6008,66.504578,103.30235C67.533752,102.00391,63.455994,97.057846,57.396606,92.254959ZM15.616455,199.82874C16.928345,200.50421,18.529175,199.89215,19.116211,198.53836C19.627197,197.3598,19.230042,196.00763,18.198792,195.24173Q12.900024,191.30634,11.219482,187.00009Q9.2683105,182.00009,9.7561035,176.37311L9.7561035,161.62708Q9.2683105,156.00009,11.219482,151.00009Q12.900024,146.69385,18.198792,142.75848C19.230042,141.99255,19.627197,140.64038,19.116211,139.46182C18.529175,138.10802,16.928345,137.49597,15.616455,138.17143Q7.8864136,142.15143,4.3902588,147.50009Q0.36584473,153.65683,0,161.62708L0,176.37311Q0.36584473,184.34335,4.3902588,190.50009Q7.8864136,195.84875,15.616455,199.82874ZM320.88379,198.53836C321.47083,199.89215,323.07166,200.50421,324.38354,199.82874Q332.11353,195.84875,335.60974,190.50009Q339.63416,184.34335,340,176.37311L340,161.62708Q339.63416,153.65683,335.60974,147.50009Q332.11353,142.15143,324.38354,138.17143C323.07166,137.49597,321.47083,138.10802,320.88379,139.46182C320.3728,140.64038,320.7699,141.99255,321.80127,142.75848Q327.09998,146.69385,328.78052,151.00009Q330.73169,156.00009,330.2439,161.62708L330.2439,176.37311Q330.73169,182.00009,328.78052,187.00009Q327.09998,191.30634,321.80127,195.24173C320.7699,196.00763,320.3728,197.3598,320.88379,198.53836ZM35.403259,145.35156C27.722534,144.46307,21.650391,142.40857,21.840759,140.7627C22.031128,139.11682,28.411987,138.50282,36.092712,139.39131C43.773499,140.2798,49.845642,142.33432,49.655273,143.98019C49.464905,145.62607,43.084045,146.24005,35.403259,145.35156ZM318.1593,140.7627C318.34973,142.40857,312.27747,144.46307,304.59668,145.35156C296.91589,146.24005,290.53516,145.62607,290.34473,143.98019C290.1543,142.33432,296.22644,140.2798,303.90723,139.39131C311.58801,138.50282,317.96887,139.11682,318.1593,140.7627ZM55.667847,192.63907C57.999878,192.8334,60,190.99304,60,188.65289L60,151.34729C60,149.00714,57.999878,147.16678,55.667847,147.36111L21.169556,150.23596C15.986633,150.66788,12,155.00055,12,160.20142L12,179.79877C12,184.99963,15.986633,189.33231,21.169556,189.76422L55.667847,192.63907ZM280,188.65289C280,190.99304,282.00012,192.8334,284.33215,192.63907L318.83044,189.76422C324.01343,189.33231,328,184.99963,328,179.79877L328,160.20142C328,155.00055,324.01343,150.66788,318.83044,150.23596L284.33215,147.36111C282.00012,147.16678,280,149.00714,280,151.34729L280,188.65289ZM35.403259,194.64859C27.722534,195.53708,21.650391,197.59158,21.840759,199.23746C22.031128,200.88333,28.411987,201.49731,36.092712,200.60883C43.773499,199.72034,49.845642,197.66583,49.655273,196.01996C49.464905,194.37408,43.084045,193.7601,35.403259,194.64859ZM318.1593,199.23746C318.34973,197.59158,312.27747,195.53708,304.59668,194.64859C296.91589,193.7601,290.53516,194.37408,290.34473,196.01996C290.1543,197.66583,296.22644,199.72034,303.90723,200.60883C311.58801,201.49731,317.96887,200.88333,318.1593,199.23746ZM105.16321,266.8533C106.94965,265.34167,107.06262,262.62607,105.4079,260.97131L79.028809,234.59229C77.374084,232.93753,74.658447,233.05048,73.146851,234.83694L50.785706,261.26373C47.42627,265.23401,47.670959,271.11664,51.348511,274.79422L65.205933,288.65164C68.883545,292.32922,74.766113,292.57391,78.73645,289.21442L105.16321,266.8533ZM234.59216,260.97134C232.93738,262.6261,233.05029,265.34171,234.83679,266.85333L261.26355,289.21445C265.23389,292.57394,271.11646,292.32925,274.79407,288.65167L288.65149,274.79425C292.3291,271.11667,292.57373,265.23404,289.21423,261.26376L266.85315,234.83698C265.34155,233.05054,262.62585,232.93756,260.97119,234.59232L234.59216,260.97134ZM57.396667,247.74518C51.33728,252.54803,45.59082,255.38895,44.561646,254.09048C43.532471,252.79205,47.610229,247.84598,53.669617,243.04309C59.729004,238.24023,65.475464,235.39932,66.504639,236.69778C67.533813,237.99622,63.456055,242.94229,57.396667,247.74518ZM295.43835,254.09055C294.40918,255.38898,288.66272,252.5481,282.60339,247.74524C276.54395,242.94238,272.46619,237.99628,273.49536,236.69785C274.52454,235.39941,280.271,238.2403,286.33032,243.04315C292.38977,247.84601,296.46753,252.79211,295.43835,254.09055ZM81.926392,300.25778C83.331726,299.80774,84.030884,298.24301,83.488647,296.87064C83.016663,295.67593,81.779663,295.00064,80.508911,295.18826Q73.97937,296.15234,69.746094,294.29565Q64.830811,292.13983,61.196899,287.81604L56.137207,282.75632L50.769836,277.38901Q46.446045,273.75507,44.290222,268.83981Q42.433533,264.60654,43.397644,258.077C43.585266,256.80621,42.909973,255.56921,41.715271,255.09723C40.342896,254.55502,38.778137,255.25418,38.328125,256.65945Q35.676453,264.9397,36.986328,271.19394Q38.494141,278.3931,43.871277,284.2876L54.298279,294.71463Q60.19281,300.09174,67.391968,301.59955Q73.646179,302.90945,81.926392,300.25778ZM256.51135,296.87067C255.96912,298.24304,256.66833,299.80777,258.07361,300.25781Q266.35376,302.90948,272.60803,301.59958Q279.80725,300.09177,285.70166,294.71466L296.12878,284.28763Q301.50586,278.39313,303.01367,271.19397Q304.32361,264.93973,301.67188,256.65948C301.2218,255.25421,299.6571,254.55505,298.28479,255.09723C297.09009,255.56924,296.41479,256.80624,296.60242,258.07703Q297.56641,264.60657,295.70972,268.83984Q293.55396,273.7551,289.2301,277.38904L278.8031,287.81604Q275.16919,292.13986,270.25391,294.29568Q266.02063,296.15237,259.49109,295.18829C258.22034,295.00067,256.98328,295.67596,256.51135,296.87067ZM85.909546,295.43842C84.611145,294.40924,87.452026,288.66284,92.254883,282.60345C97.057739,276.54407,102.00385,272.46628,103.30231,273.49548C104.60071,274.52466,101.75983,280.27106,96.95697,286.33044C92.154114,292.38983,87.208008,296.46762,85.909546,295.43842ZM254.09045,295.43845C255.38892,294.40927,252.54797,288.6629,247.74512,282.60349C242.94226,276.54413,237.99609,272.46631,236.69775,273.49551C235.39929,274.52469,238.24023,280.27112,243.04309,286.33047C247.84595,292.38986,252.79199,296.46765,254.09045,295.43845ZM147.36102,284.33218C147.16669,282.00009,149.00702,280,151.34717,280L188.65283,280C190.99292,280,192.83337,282.00009,192.63904,284.33218L189.76416,318.83044C189.33228,324.01337,184.99951,328,179.79871,328L160.20129,328C155.00049,328,150.66779,324.01337,150.2359,318.83044L147.36102,284.33218ZM140.76263,318.15924C142.40851,318.34964,144.46301,312.2775,145.3515,304.59674C146.23999,296.91595,145.62598,290.53513,143.9801,290.34473C142.33423,290.15433,140.27972,296.22647,139.39124,303.90726C138.50275,311.58804,139.11676,317.96884,140.76263,318.15924ZM199.23743,318.15924C197.59155,318.34964,195.53699,312.2775,194.64844,304.59674C193.76001,296.91595,194.37402,290.53513,196.0199,290.34473C197.66577,290.15433,199.72021,296.22647,200.60876,303.90726C201.49731,311.58801,200.8833,317.96884,199.23743,318.15924ZM141.46173,320.88379C140.10791,321.47083,139.49585,323.07162,140.17133,324.38354Q144.15131,332.11356,149.5,335.60974Q155.65674,339.63416,163.62695,340L178.37305,340Q186.34326,339.63416,192.5,335.60974Q197.84863,332.11356,201.82861,324.38354C202.50415,323.07162,201.89209,321.47083,200.53821,320.88379C199.35974,320.37277,198.00757,320.76996,197.24158,321.80121Q193.30627,327.10001,189,328.78049Q184,330.73172,178.37305,330.2439L163.62695,330.2439Q158,330.73172,153,328.78049Q148.69373,327.10001,144.75836,321.80121C143.99249,320.76996,142.64026,320.37277,141.46173,320.88379Z" fill-rule="evenodd" fill="currentColor" fill-opacity="1"/></svg>