<svg xmlns="http://www.w3.org/2000/svg" xmlns:xlink="http://www.w3.org/1999/xlink" fill="none" version="1.1" width="200" height="148" viewBox="0 0 200 148"><path d="M175.00006,15C175.00006,23.284271,168.2843,30,160.00006,30C151.71582,30,145.00006,23.284271,145.00006,15C145.00006,6.7157288,151.71582,0,160.00006,0C168.2843,0,175.00006,6.7157288,175.00006,15ZM19.111176,35.806244L13.777832,35.806244C12.79599,35.806244,12.000061,36.595184,12.000061,37.568359L12.000061,62.237885C12.000061,63.21109,12.79599,64,13.777832,64L42.22229,64C43.204132,64,44.000061,63.21109,44.000061,62.237885L44.000061,37.568359C44.000061,36.595184,43.204132,35.806244,42.22229,35.806244L36.888947,35.806244C36.886566,30.941986,32.907562,27,28.000061,27C23.09256,27,19.113556,30.941986,19.111176,35.806244ZM61.111176,35.806244L55.777832,35.806244C54.79599,35.806244,54.000061,36.595184,54.000061,37.568359L54.000061,62.237885C54.000061,63.21109,54.79599,64,55.777832,64L84.22229,64C85.204102,64,86.000061,63.21109,86.000061,62.237885L86.000061,37.568359C86.000061,36.595184,85.204102,35.806244,84.22229,35.806244L78.888977,35.806244C78.886536,30.941986,74.907593,27,70.000061,27C65.092529,27,61.113556,30.941986,61.111176,35.806244ZM22.666718,35.806244C22.666718,32.886688,25.054535,30.519928,28.000061,30.519928C30.945587,30.519928,33.333405,32.886688,33.333405,35.806244L22.666718,35.806244ZM64.666718,35.806244C64.666718,32.886688,67.054565,30.519928,70.000061,30.519928C72.945557,30.519928,75.333374,32.886688,75.333374,35.806244L64.666718,35.806244ZM136.00006,84C136.00006,86.761429,138.23865,89,141.00006,89C142.93304,89,144.50006,90.567001,144.50006,92.5L144.50006,133.5C144.50006,141.23199,150.76807,147.5,158.50006,147.5L161.50006,147.5C169.23206,147.5,175.50006,141.23199,175.50006,133.5L175.50006,92.5C175.50006,90.567001,177.06708,89,179.00006,89C181.76147,89,184.00006,86.761429,184.00006,84L184.00006,45.5C184.00006,37.768005,177.73206,31.5,170.00006,31.5L150.00006,31.5C142.26807,31.5,136.00006,37.768005,136.00006,45.5L136.00006,84ZM22.666718,42.854675C22.666718,45.774231,25.054535,48.141022,28.000061,48.141022C30.945587,48.141022,33.333405,45.774231,33.333405,42.854675L36.888947,42.854675C36.887268,47.719421,32.908051,51.662201,28.000061,51.662201C23.092072,51.662201,19.112854,47.719421,19.111176,42.854675L22.666718,42.854675ZM64.666718,42.854675C64.666718,45.774231,67.054565,48.141022,70.000061,48.141022C72.945557,48.141022,75.333374,45.774231,75.333374,42.854675L78.888977,42.854675C78.887268,47.719421,74.908081,51.662201,70.000061,51.662201C65.092041,51.662201,61.112854,47.719421,61.111176,42.854675L64.666718,42.854675ZM133,88.6875C133,90.793091,134.70691,92.5,136.8125,92.5C138.91809,92.5,140.625,94.206909,140.625,96.3125L140.625,136C140.625,141.09265,143.34418,145.5502,147.40985,148L14,148C6.2680054,148,0,141.73199,0,134L0,80C0,72.268005,6.2680054,66,14,66L133,66L133,88.6875ZM186,148L172.59021,148C176.65582,145.5502,179.375,141.09265,179.375,136L179.375,96.3125C179.375,94.206909,181.08191,92.5,183.1875,92.5C185.29309,92.5,187,90.793091,187,88.6875L187,66.035767C194.3252,66.560333,200,72.656036,200,80L200,134C200,141.73199,193.73199,148,186,148ZM17,118L17,124C17,126.20914,18.790863,128,21,128L121,128C123.20917,128,125,126.20914,125,124L125,118C125,115.79086,123.20917,114,121,114L21,114C18.790863,114,17,115.79086,17,118Z" fill-rule="evenodd" fill="#FFFFFF" fill-opacity="1" style="mix-blend-mode:passthrough"/></svg>