<svg xmlns="http://www.w3.org/2000/svg" xmlns:xlink="http://www.w3.org/1999/xlink" fill="none" version="1.1" width="131.17105102539062" height="199.998046875" viewBox="0 0 131.17105102539062 199.998046875"><path d="M130.52011,9.3966675L130.78094,119.32279L119.94642,119.32279L119.94642,14.098362L93.237724,9.4579086L93.237724,119.3228L90.636261,119.3228L0,123.36902L0,14.327435C0.0049858093,12.500683,1.4846191,11.021048,3.3113708,11.016066L90.178116,0.0000930229C90.34198,0.000950485,90.505615,0.012314099,90.668015,0.034113921C90.8302,0.010215661,90.99398,-0.0011582604,91.157913,0.000093023307L119.65836,6.0852981C121.62931,6.7453041,130.52011,7.5822182,130.52011,9.3966675ZM80.077202,24.56356Q89.380493,31.832508,86.447906,44.452209L59.245934,24.058773Q70.066086,17.698442,80.077202,24.56356ZM80.582825,52.93264L52.875244,32.135372Q53.507259,30.242418,54.594326,28.702814Q55.681396,27.163212,57.223515,25.976959L85.335587,47.077103Q84.4002,48.944817,83.212013,50.408699Q82.023819,51.872589,80.582825,52.93264ZM58.437016,53.033615Q49.942795,46.875198,52.066292,34.760284L78.257027,54.447021Q66.324638,59.595856,58.437016,53.033615ZM15.662123,85.441002Q13.336304,84.532379,13.336304,82.210358Q13.336304,79.888336,15.662123,78.979713L22.336212,78.979713Q26.482237,78.878754,29.515913,73.225128Q32.549591,67.571503,34.572041,64.643738Q35.886635,61.715969,33.965305,58.7882Q32.043976,55.860428,23.85305,44.553177Q23.044069,42.029236,24.965397,40.615829Q27.796829,39.303368,30.021524,41.726364Q32.246223,44.149357,55.60553,67.369598Q59.144821,70.095451,62.987476,67.369598Q68.953705,64.037994,74.919937,60.90831Q77.650253,59.494904,78.964844,60.90831Q80.279434,62.321716,78.964844,64.643738L68.852585,74.537582Q65.818909,78.17205,66.830139,80.393127L48.122463,99.272209Q46.302258,99.272202,42.86409,98.363586Q39.425926,97.454964,36.59449,94.527191L26.886726,86.652496L15.662123,85.441002ZM52.330441,59.898003L48.021362,55.557541L51.661774,49.601044Q53.861191,53.740307,57.628006,56.264248Q61.394821,58.788185,66.729034,59.696804L66.443436,59.978031C62.519554,63.84185,56.210255,63.806076,52.330441,59.898003ZM52.470737,104.92582L49.841553,101.59422L69.05484,82.513229L86.953537,96.849213L86.953537,104.92582L52.470737,104.92582ZM13.37486,87.694649L0.000032424927,100.87646L2.8078289,103.72537L16.182655,90.543556Q16.449968,90.280098,16.823433,90.317368Q17.196898,90.35463,17.406881,90.66571Q17.763733,91.194366,17.32769,91.659874L10.914936,98.50589Q7.4294128,102.22691,10.703531,106.13523Q12.280284,108.0174,14.730148,108.18149Q17.18001,108.34557,18.993675,106.69047L28.662247,97.867203C30.384817,98.159683,32.212109,97.551605,33.40704,96.111855L25.62093,89.669037C24.19054,91.392494,24.101173,93.783684,25.234327,95.580208L16.297359,103.73583Q15.744391,104.24045,14.997452,104.19043Q14.250512,104.1404,13.769775,103.56654Q12.771529,102.37493,13.83423,101.24043L20.246986,94.394417Q22.863964,91.600624,20.722254,88.427788Q19.462,86.560783,17.220591,86.337135Q14.97918,86.11348,13.37486,87.694649ZM119.94642,121.34137L130.78546,121.34137L131.17105,190.81662C131.17105,192.63788,121.9083,193.46799,120.30704,194.12799L91.380188,199.88887C91.191925,199.97081,90.985504,200.00209,90.781418,199.9796C90.690979,199.96938,90.599686,199.96938,90.509247,199.9796C90.443474,199.99774,90.361824,199.99774,90.28244,199.99774C90.206413,199.99954,90.130409,199.99345,90.055634,199.9796L3.393013,193.5882C3.3405724,193.57916,3.2874603,193.5746,3.2342491,193.57458C1.4444275,193.51837,0.021099091,192.05391,0.015869141,190.26321L0.015869141,125.41481L90.638535,121.36405L90.638535,121.34137L93.230927,121.34137L93.230927,189.69621C93.230873,190.5385,94.082787,191.11354,94.86393,190.79849L119.20023,186.54814C119.65157,186.3667,119.94642,185.70442,119.94642,185.21906L119.94642,121.34137Z" fill-rule="evenodd" fill="#FFFFFF" fill-opacity="1" style="mix-blend-mode:passthrough"/></svg>