<svg xmlns="http://www.w3.org/2000/svg" xmlns:xlink="http://www.w3.org/1999/xlink" fill="none" version="1.1" width="210" height="148" viewBox="0 0 210 148"><path d="M125,15C125,23.284271,118.28427,30,110,30C101.71573,30,95,23.284271,95,15C95,6.7157288,101.71573,0,110,0C118.28427,0,125,6.7157288,125,15ZM185,15C185,23.284271,178.28427,30,170,30C161.71573,30,155,23.284271,155,15C155,6.7157288,161.71573,0,170,0C178.28427,0,185,6.7157288,185,15ZM24,55L24,27C24,25.895416,24.89543,25,26,25L74,25C75.104568,25,76,25.895416,76,27L76,55C76,56.104584,75.104568,57,74,57L58,57L58,46C58,41.581726,54.418278,38,50,38C45.581722,38,42,41.581726,42,46L42,57L26,57C24.89543,57,24,56.104584,24,55ZM146,84C146,86.761414,148.23859,89,151,89C152.933,89,154.5,90.567017,154.5,92.5L154.5,133.5C154.5,141.23199,160.76801,147.5,168.5,147.5L171.5,147.5C179.23199,147.5,185.5,141.23199,185.5,133.5L185.5,92.5C185.5,90.567017,187.067,89,189,89C191.76143,89,194,86.761414,194,84L194,45.5C194,37.768005,187.73199,31.5,180,31.5L160,31.5C152.26801,31.5,146,37.768005,146,45.5L146,84ZM134,64L134,48C134,39.163452,126.83656,32,118,32L110,42.5L102,32C93.163445,32,86,39.163452,86,48L86,64L134,64ZM45,47C45,44.238586,47.238575,42,50,42C52.761425,42,55,44.238586,55,47L55,64L45,64L45,47ZM143,88.6875C143,90.793091,144.70691,92.5,146.8125,92.5C148.91809,92.5,150.625,94.206909,150.625,96.3125L150.625,136C150.625,141.09265,153.34418,145.5502,157.40984,148L14,148C6.268013,148,0,141.73199,0,134L0,80C0,72.268005,6.268013,66,14,66L143,66L143,88.6875ZM196,148L182.59018,148C186.65584,145.5502,189.375,141.09265,189.375,136L189.375,96.3125C189.375,94.206909,191.08191,92.5,193.1875,92.5C195.29309,92.5,197,90.793091,197,88.6875L197,66.035156C204.26529,66.547913,210,72.604248,210,80L210,134C210,141.73199,203.73199,148,196,148ZM27,118L27,124C27,126.20914,28.790861,128,31,128L131,128C133.20914,128,135,126.20914,135,124L135,118C135,115.79086,133.20914,114,131,114L31,114C28.790861,114,27,115.79086,27,118Z" fill-rule="evenodd" fill="#FFFFFF" fill-opacity="1"/></svg>